<svg id="圖層_1" data-name="圖層 1" xmlns="http://www.w3.org/2000/svg" xmlns:xlink="http://www.w3.org/1999/xlink" viewBox="0 0 100 100"><defs><style>.cls-1,.cls-4,.cls-6{fill:none;}.cls-2{fill:#cd6e21;}.cls-3,.cls-5,.cls-7,.cls-9{fill:#fff;}.cls-3,.cls-4,.cls-7{stroke:#cd6e21;}.cls-3,.cls-4,.cls-6,.cls-7{stroke-miterlimit:10;}.cls-3{stroke-width:1.36px;}.cls-4,.cls-6{stroke-linecap:round;}.cls-4{stroke-width:2.1px;}.cls-6{stroke:#fff;stroke-width:0.99px;}.cls-7{stroke-width:0.49px;}.cls-8{clip-path:url(#clip-path);}.cls-9{fill-rule:evenodd;}</style><clipPath id="clip-path"><rect class="cls-1" x="20.28" y="-3.45" width="55.68" height="97.87" rx="18.55"/></clipPath></defs><circle class="cls-2" cx="48.9" cy="49.87" r="45.06"/><rect class="cls-3" x="41.14" y="9.16" width="13.96" height="30.17" rx="6.98"/><line class="cls-4" x1="48.12" y1="36.15" x2="48.12" y2="12.34"/><path class="cls-2" d="M48.12,33.36a5.11,5.11,0,1,1,5.11-5.11A5.11,5.11,0,0,1,48.12,33.36Z"/><path class="cls-5" d="M48.12,23.55a4.7,4.7,0,1,1-4.7,4.7,4.7,4.7,0,0,1,4.7-4.7m0-.82a5.53,5.53,0,1,0,5.53,5.52,5.53,5.53,0,0,0-5.53-5.52Z"/><path class="cls-5" d="M46.48,49.47c0,.27-.27.39-.67.39H42.06c-.28.49-.8,1.33-1.13,1.77h2.45a.62.62,0,0,0,.45-.24l.85.25c.4.13.09.41.09.63v5.65c0,.49-.47.65-.94.56V57.7H39.52V58c0,.52-.5.68-.94.61V51.32l.75.14c.11,0,.19.07.19.16h.93A18.33,18.33,0,0,0,41,49.86h-3.9c-.19,0-.24-.12-.47-.61h8.79c.2,0,.33-.14.55-.36C46.28,49.12,46.48,49.26,46.48,49.47Zm-7,2.77v2.11h4.31V52.24Zm4.31,4.84V55H39.52v2.12Z"/><path class="cls-5" d="M59.59,55.07c0,.27-.25.38-.61.38H50.25c-.2,0-.27-.1-.5-.62h1.56v-5l.63.15c.19,0,.25.1.25.16h1.08V48.45l.63.16c.23,0,.25.11.25.19v1.36h1.09V48.47l.62.15c.23.06.26.13.26.21v1.33h.63a.55.55,0,0,0,.46-.24l.7.24c.51.18.18.39.18.63v4h.52c.18,0,.31-.13.52-.38C59.4,54.72,59.59,54.86,59.59,55.07Zm-5.92,1.55a11.65,11.65,0,0,1-3.26,1.86c-.21.08-.24-.12-.11-.2a15.17,15.17,0,0,0,2.82-2.48l.46.4C53.84,56.42,53.8,56.52,53.67,56.62Zm-.4-5.86H52.19v1.7h1.08Zm-1.08,4.07h1.08V53.05H52.19Zm2-4.07v1.7h1.09v-1.7Zm1.09,2.29H54.15v1.78h1.09Zm2.69,5.09c-.5-.49-1.35-1.28-2.12-1.93-.13-.1,0-.25.13-.19a8.55,8.55,0,0,1,2.57,1.35C59.27,58.08,58.74,58.9,57.93,58.14Zm-1.81-7.38v1.7h1.09v-1.7Zm0,4.07h1.09V53.05H56.12Z"/><path class="cls-5" d="M41.81,70c-.52-.5-1.14-1.08-1.69-1.52a13.74,13.74,0,0,1-2.07,2l.56.12c.11,0,.16.06.17.12h1.33a.71.71,0,0,1-.32-.34c-.15-.28-.3-.61-.41-.88s0-.24.17-.17a2.16,2.16,0,0,1,1,.65.5.5,0,0,1-.15.74h.58a.57.57,0,0,0,.44-.24l.62.21c.55.17.24.4.24.62v2.14c0,.46-.49.58-.86.51v-.39H38.64a3.76,3.76,0,0,1-.1.6l.55.11c.11,0,.19.09.19.17h1.66a.57.57,0,0,0,.47-.27l.72.23c.44.15.14.4.14.63V77c0,.5-.36.62-.86.58V77H39.28c0,.46-.37.67-.86.58V74.69A4.12,4.12,0,0,1,36.85,77a.12.12,0,0,1-.19-.15,5.71,5.71,0,0,0,1.09-2.53,19,19,0,0,0,.13-3.67,6.18,6.18,0,0,1-.9.58c-.13.06-.27-.07-.12-.2a13,13,0,0,0,2.83-3.6l.47.32c.34.23.32.28.16.49h0a12.55,12.55,0,0,1,2,1.07C42.94,69.79,42.48,70.64,41.81,70Zm-.43,3v-.62H38.74c0,.21,0,.41,0,.62Zm-2.6-1.77c0,.21,0,.41,0,.61h2.61v-.61Zm.5,3.75v1.37h2.13V75Zm4,.5V69l.66.16c.16,0,.19.09.19.16V75C44.17,75.42,43.77,75.61,43.32,75.51Zm2.85-7.69V77a.57.57,0,0,1-.93.51A5.17,5.17,0,0,0,44,77c-.13,0-.12-.17,0-.17s1.16,0,1.23,0,.06-.06.06-.1V67.49l.67.16C46.11,67.69,46.17,67.75,46.17,67.82Z"/><path class="cls-5" d="M49.6,70.44h3.53a.47.47,0,0,1-.11-.13,10.13,10.13,0,0,1-.5-1,.12.12,0,0,1,0-.11H51.1c-.17,0-.25-.09-.44-.56h3.78l-.11-.11c-.19-.24-.45-.62-.65-.87s-.06-.24.12-.2A2.7,2.7,0,0,1,55,68a.45.45,0,0,1,0,.7h2.5c.19,0,.31-.09.51-.31.23.22.41.33.41.51s-.22.36-.57.36H56.4l.22.16c.23.15.24.24.1.36l-.83.69h2.67c.2,0,.34-.11.52-.33.24.23.42.37.42.54s-.2.36-.57.36H50C49.85,71,49.77,70.9,49.6,70.44Zm2,4.78A4.37,4.37,0,0,1,50.86,77c-.69.77-1.42,0-.85-.45a6.6,6.6,0,0,0,1.34-1.36C51.43,75,51.61,75.07,51.57,75.22Zm0-.56V71.21l.73.14c.12,0,.18.06.19.13h3.68a.59.59,0,0,0,.48-.25l.75.23c.45.13.17.4.17.59v2.1c0,.41-.41.56-.92.48v-.37H52.41C52.31,74.57,51.92,74.69,51.52,74.66ZM57,77.22a9.74,9.74,0,0,1-2.86.23c-1.8-.09-1.9-.19-1.9-1.69v-1l.72.13c.15,0,.19.09.19.18v1c0,.52.1.58,1,.64a8,8,0,0,0,2.14-.14.45.45,0,0,0,.3-.39l.09-.45a.09.09,0,0,1,.17,0c.1.47.18.69.35.82C57.62,76.85,57.32,77.13,57,77.22ZM52.44,72v.57H56.6V72Zm4.16,1.69v-.57H52.44v.57Zm-3-3.28h1.72c.22-.37.43-.81.62-1.21H52.81a2.09,2.09,0,0,1,.89.53A.46.46,0,0,1,53.62,70.44Zm1.73,4.62c.57.46,0,1.3-.48.78-.26-.28-.59-.74-1-1.17-.12-.13,0-.24.12-.2A3.6,3.6,0,0,1,55.35,75.06Zm3.94,1.06c.39.49-.11,1.35-.67.61-.36-.47-.7-1-1.12-1.53-.07-.09-.06-.28.13-.19A4,4,0,0,1,59.29,76.12Z"/><line class="cls-6" x1="36.29" y1="63.2" x2="59.95" y2="63.2"/><path class="cls-7" d="M54.86,60.92a2.29,2.29,0,1,1-2.29,2.28A2.28,2.28,0,0,1,54.86,60.92Z"/><path class="cls-2" d="M40.32,65.11a1.91,1.91,0,1,1,1.91-1.91A1.92,1.92,0,0,1,40.32,65.11Z"/><path class="cls-5" d="M40.32,61.54a1.66,1.66,0,1,1-1.66,1.66,1.66,1.66,0,0,1,1.66-1.66m0-.49a2.15,2.15,0,1,0,2.15,2.15,2.15,2.15,0,0,0-2.15-2.15Z"/><path class="cls-2" d="M42.3,65.24a2,2,0,1,1,2-2A2,2,0,0,1,42.3,65.24Z"/><path class="cls-5" d="M42.3,61.41a1.79,1.79,0,1,1-1.8,1.79,1.79,1.79,0,0,1,1.8-1.79m0-.49a2.29,2.29,0,1,0,2.28,2.28,2.28,2.28,0,0,0-2.28-2.28Z"/><path class="cls-5" d="M31.55,84.29V82.12a.18.18,0,1,1,.36,0v.77a.81.81,0,0,1,.52-.22.61.61,0,0,1,.5.23,1.05,1.05,0,0,1,.18.64,1,1,0,0,1-.22.68.67.67,0,0,1-.52.25.7.7,0,0,1-.48-.21h0v0a.15.15,0,0,1-.16.12C31.6,84.43,31.55,84.39,31.55,84.29Zm.36-1.11V84a.56.56,0,0,0,.38.16A.37.37,0,0,0,32.6,84a.7.7,0,0,0,.13-.46c0-.39-.14-.58-.41-.58A.6.6,0,0,0,31.91,83.18Z"/><path class="cls-5" d="M35.41,82.91c-.14.42-.33,1-.56,1.63a1.33,1.33,0,0,1-.27.46.57.57,0,0,1-.41.16h-.1c-.08,0-.11-.08-.08-.18a.13.13,0,0,1,.15-.11h0c.16,0,.28-.1.35-.32l0-.12-.6-1.5c0-.14,0-.21.15-.21a.19.19,0,0,1,.19.14l.27.75.15.48h0c.06-.23.18-.65.37-1.23a.17.17,0,0,1,.18-.14C35.41,82.71,35.45,82.78,35.41,82.91Z"/><path class="cls-5" d="M36.93,83.68h-.57a.13.13,0,0,1,0-.26h.57a.13.13,0,0,1,0,.26Z"/><path class="cls-5" d="M38,85V82.86a.13.13,0,0,1,.15-.15.15.15,0,0,1,.16.13v.06h0a.82.82,0,0,1,.53-.23.6.6,0,0,1,.5.23,1.05,1.05,0,0,1,.18.64,1,1,0,0,1-.22.68.65.65,0,0,1-.52.25.68.68,0,0,1-.45-.19V85c0,.12-.06.18-.19.18S38,85.07,38,85Zm.36-1.77V84a.53.53,0,0,0,.37.16.39.39,0,0,0,.32-.17.76.76,0,0,0,.12-.46c0-.39-.14-.58-.4-.58A.6.6,0,0,0,38.4,83.18Z"/><path class="cls-5" d="M41.26,82.67a.75.75,0,0,1,.59.25,1,1,0,0,1,.23.66.88.88,0,0,1-.24.65.81.81,0,0,1-1.15,0,.88.88,0,0,1-.24-.65.93.93,0,0,1,.24-.67A.78.78,0,0,1,41.26,82.67Zm.45.91a.76.76,0,0,0-.12-.44.35.35,0,0,0-.33-.17.38.38,0,0,0-.32.16.75.75,0,0,0-.11.45.74.74,0,0,0,.11.44.38.38,0,0,0,.32.16.38.38,0,0,0,.33-.16A.74.74,0,0,0,41.71,83.58Z"/><path class="cls-5" d="M43.4,82a.19.19,0,0,1,.07.16.18.18,0,0,1-.07.15.23.23,0,0,1-.16.06.21.21,0,0,1-.16-.06.18.18,0,0,1-.07-.15.21.21,0,0,1,.06-.16.25.25,0,0,1,.17-.06A.23.23,0,0,1,43.4,82Zm0,.87v1.37c0,.12-.06.17-.18.17s-.18-.05-.18-.17V82.89a.18.18,0,0,1,.36,0Z"/><path class="cls-5" d="M44.52,84.26v-1.4a.13.13,0,0,1,.15-.15.14.14,0,0,1,.16.14V83h0a1.57,1.57,0,0,1,.28-.21.57.57,0,0,1,.29-.07c.36,0,.53.22.53.68v.91c0,.12-.06.17-.18.17s-.18-.05-.18-.17v-.87a.56.56,0,0,0-.07-.32A.25.25,0,0,0,45.3,83a.46.46,0,0,0-.2,0,1.09,1.09,0,0,0-.22.18v1.05c0,.12-.06.17-.18.17S44.52,84.38,44.52,84.26Z"/><path class="cls-5" d="M47.76,83h-.31v.87c0,.21.09.32.25.32h0a.13.13,0,0,1,.18.11.12.12,0,0,1-.09.16.82.82,0,0,1-.21,0c-.35,0-.53-.2-.53-.6V83H47a.13.13,0,0,1-.14-.14.13.13,0,0,1,.13-.14h.14l0-.33a.14.14,0,0,1,.16-.14c.1,0,.15.05.15.14v.33h.31c.09,0,.14.05.14.15A.13.13,0,0,1,47.76,83Z"/><path class="cls-5" d="M49.41,83.68h-.56c-.09,0-.14,0-.14-.13s0-.13.14-.13h.56c.09,0,.13,0,.13.13S49.5,83.68,49.41,83.68Z"/><path class="cls-5" d="M51.24,83h-.3v.87c0,.21.08.32.25.32h0a.15.15,0,0,1,.19.11.12.12,0,0,1-.09.16.94.94,0,0,1-.22,0c-.35,0-.52-.2-.52-.6V83h-.12c-.09,0-.13,0-.13-.14s0-.13.13-.14h.13l0-.33a.14.14,0,0,1,.16-.14c.1,0,.16.05.16.14v.33h.3a.13.13,0,0,1,.15.15C51.39,83,51.34,83,51.24,83Z"/><path class="cls-5" d="M53.94,84.43h-.16a.12.12,0,0,1-.12-.09l-.2-.76c0-.13-.07-.3-.11-.49h0c0,.19-.07.36-.11.49l-.17.69a.21.21,0,0,1-.21.16h-.07a.21.21,0,0,1-.14,0,.2.2,0,0,1-.08-.12l-.37-1.36c0-.13,0-.2.15-.2a.19.19,0,0,1,.2.15l.19.79.09.49h0l.12-.49.2-.8a.15.15,0,0,1,.07-.1.23.23,0,0,1,.14,0,.2.2,0,0,1,.13,0,.15.15,0,0,1,.07.1l.21.8.06.23a2.07,2.07,0,0,0,.06.26h0s0-.09,0-.21.05-.22.06-.28l.19-.8a.17.17,0,0,1,.18-.14c.13,0,.17.06.14.19l-.35,1.37a.2.2,0,0,1-.08.12A.23.23,0,0,1,53.94,84.43Z"/><path class="cls-5" d="M55.67,84a.24.24,0,0,1,.18.07.28.28,0,0,1,.06.18.21.21,0,0,1-.07.18.21.21,0,0,1-.17.07.23.23,0,0,1-.17-.07.25.25,0,0,1-.07-.18A.29.29,0,0,1,55.5,84,.23.23,0,0,1,55.67,84Z"/><path class="cls-5" d="M56.85,83.58a.92.92,0,0,1,.24-.66.81.81,0,0,1,.62-.25.65.65,0,0,1,.39.12.12.12,0,0,1,0,.19.15.15,0,0,1-.23,0,.39.39,0,0,0-.18,0,.43.43,0,0,0-.35.16.66.66,0,0,0-.14.45.65.65,0,0,0,.13.43.41.41,0,0,0,.35.17.47.47,0,0,0,.25-.07.15.15,0,0,1,.18.23.87.87,0,0,1-.46.13.81.81,0,0,1-.6-.24A.92.92,0,0,1,56.85,83.58Z"/><path class="cls-5" d="M59.85,82.67a.73.73,0,0,1,.58.25,1,1,0,0,1,.23.66.88.88,0,0,1-.24.65.81.81,0,0,1-1.15,0,.88.88,0,0,1-.23-.65.93.93,0,0,1,.23-.67A.78.78,0,0,1,59.85,82.67Zm.44.91a.84.84,0,0,0-.11-.44.37.37,0,0,0-.33-.17.35.35,0,0,0-.32.16.75.75,0,0,0-.12.45.74.74,0,0,0,.12.44.35.35,0,0,0,.32.16.38.38,0,0,0,.32-.16A.74.74,0,0,0,60.29,83.58Z"/><path class="cls-5" d="M61.64,84.26v-1.4c0-.1,0-.15.16-.15a.14.14,0,0,1,.15.14l0,.1h0a.74.74,0,0,1,.53-.28A.46.46,0,0,1,63,83a.82.82,0,0,1,.57-.31c.35,0,.53.22.53.68v.91c0,.12-.07.17-.19.17s-.18-.05-.18-.17v-.87a.51.51,0,0,0-.07-.31.23.23,0,0,0-.21-.1.58.58,0,0,0-.39.23v1.05c0,.12-.06.17-.18.17s-.18-.05-.18-.17v-.87a.59.59,0,0,0-.07-.31.25.25,0,0,0-.22-.1.63.63,0,0,0-.39.23v1.05c0,.12-.06.17-.18.17S61.64,84.38,61.64,84.26Z"/><g class="cls-8"><path class="cls-9" d="M62.89,33.72a15.88,15.88,0,0,1,3,1.32A6,6,0,0,1,62.89,33.72Z"/><path class="cls-9" d="M64.82,34a4,4,0,0,1,1.6.47c.56.43,1,1.21,1.67,1.77-.29,0-.65-.7-.86-.46A4.36,4.36,0,0,0,64.82,34Z"/><path class="cls-9" d="M61.83,36.79A2.82,2.82,0,0,1,63,37.3a4.07,4.07,0,0,1,1.06.83A8.77,8.77,0,0,1,61.83,36.79Z"/><path class="cls-9" d="M61.43,37.64c.54-.1,1,.35,1.53.6a6.11,6.11,0,0,0,1.5.49A3.48,3.48,0,0,1,61.43,37.64Z"/><path class="cls-9" d="M65.49,39.59c.14-.35.45-.1.62-.13C66,39.65,65.67,39.54,65.49,39.59Z"/><path class="cls-9" d="M68.62,37.19c0-.1.23.11.17,0,1.13.75,2.25,1.59,3.38,2.38A16,16,0,0,1,68.62,37.19Z"/><path class="cls-9" d="M74,32.85c1.93,2.27,2.63,4.77,4.32,7.15a7.42,7.42,0,0,1-1.84-2.91C75.72,35.64,74.81,34.33,74,32.85Z"/><path class="cls-9" d="M64.5,45.06a32.07,32.07,0,0,0,5.1,1.81A10.15,10.15,0,0,1,64.5,45.06Z"/><path class="cls-9" d="M53.24,30.1a20.05,20.05,0,0,0-3.48-2.47c0,.12.28.27.24.4-.55.48-.71,1.15-1.08,1.53-.18,0,0-.16-.05-.26-.24-.1-.49-.1-.73-.2A46,46,0,0,0,53,33.53c1.28,1.09,2.59,1.94,3.86,3.17.76.73,1.81,1.15,2.57,1.88,1,1,1.9,2.05,3,3.1a17.54,17.54,0,0,0,3.68,2.42c-3.44.23-6.52-6.84-10-5.91.6.39,1.46,1.11,2.16,1.57.1.18-.29,0-.39,0a2,2,0,0,0-.06.55A15.89,15.89,0,0,1,59.5,42c.19-.37.81-1.08,1.25-1.14-.27.51-1.23,1-.85,1.52a2.85,2.85,0,0,0,.4-.8c.32.15-.32,1,0,1.2.42-.15.44-.85.74-1.22A3.52,3.52,0,0,1,60.75,43c2.83,1.61,5.36,3.64,8.17,4,1.36.19,2.77.08,4.17.24s2.64,1,4.06,1.75c-.42.24-.91-.05-1.29-.19a19.41,19.41,0,0,0-3.93-1.14c-.54-.08-1.09,0-1.62,0a12.94,12.94,0,0,1-4.74-1.14c-.47-.24-1-.62-1.48-.95-.93-.59-1.89-1.25-2.89-1.83a11.31,11.31,0,0,1-1.46-.79c-.84-.7-1.43-1.76-2.34-2.51-.25-.21-.62-.36-.94-.57a3.88,3.88,0,0,1-.91-.6c-.71-.86.78-1.9,1.57-1.67-1.78-1.49-4.45-3.81-6.5-5.54a16.45,16.45,0,0,1-3-2.65c-.49-.64-.87-1.73-.27-2.35s1.06-.7,1.54-.28a21.29,21.29,0,0,1,4.68,3.05,53.29,53.29,0,0,1,4.63,3.35,3.41,3.41,0,0,1,0-1c.42-.1.61-.52.91-.76a1.41,1.41,0,0,1,1.53,0c.4-.08.38-.51.62-.74s.43-.17.7-.33a1.93,1.93,0,0,1,1-.37c.36,0,.67.25,1,.28a2.26,2.26,0,0,1,2.38-1.54c.76.11,1.58.51,2.43.7a17.36,17.36,0,0,0,2.45.32,4.43,4.43,0,0,1,1.1.61,5.88,5.88,0,0,1,1.87,1.58c1.86,2.33,3.1,5.71,5.23,7.75.66.64,1.57.92,2.19,1.6-.39,0-.76-.39-1.15-.31a9.37,9.37,0,0,1-2.65-2.18c-.6-.82-1-2.06-1.73-3.2a34.83,34.83,0,0,0-2.17-3.22,7.73,7.73,0,0,0-2.33-2.09,5.71,5.71,0,0,0-1.74-.15c.77.23,2,.17,2.53,1.22a10.26,10.26,0,0,1,.54,1.62c-.55-.55-.44-1.13-.77-1.59-1-1.44-3-.84-4.17-1.61-.09-.17,0-.09-.09-.1s-.69-.32-1-.4a5.29,5.29,0,0,0-1.19-.16,3.06,3.06,0,0,0-.94,1.28,1.64,1.64,0,0,1,.58-1.2c-.59.17-.81.85-.9,1.25a11.92,11.92,0,0,0,2.87.86c.59.13,1.52.05,2.08.52s1,1.62,1.86,2.4c-1.2-.68-1.66-2.37-2.82-2.57-.21,0-.38.08-.59.1a3.59,3.59,0,0,1-.81-.08c-1.44-.31-2.93-.94-4.44-1.22-.52.34-.56.85-.93,1.09,0-.31.39-.59.37-.89-.44.19-.52.69-.83,1,1.3.9,2.65,1,4,1.79-.16.17-.36,0-.43.27a16.81,16.81,0,0,1-4.35-1.93,12.71,12.71,0,0,0-1,.85c-.18.23-.17.55-.39.6-.19-.62.53-1.19,1.15-1.53-.3-.26-.46.2-.71.39s-.55.21-.7.38c-.59.74.89,2.06,1.7,2.42.28.12.58.05.74.2-.08.08-.16,0-.23.09.28.12.59-.15.86.2-.6.46-1.29,0-2-.42-1.23-.79-2.69-2.19-3.84-3A16.51,16.51,0,0,0,58,33.71c.73.6,1.49,1.2,2.19,1.73a27.79,27.79,0,0,1-4.28-3.23,2.38,2.38,0,0,1-1.51,1.55c.45-.74,1.5-1.44,1-2.23a5.81,5.81,0,0,0-1.63,1.61c0-.75.72-1.07,1.32-1.75-.52-.28-1.14.41-1.44.87-.18.27-.16.56-.39.73-.18-.09,0-.4.09-.65A3.08,3.08,0,0,1,54.37,31c-1-.61-1.91-1.25-2.86-1.93-.5.47-.84,1.11-1.27,1.47-.14-.55.54-1.16,1-1.57,0-.11-.31-.27-.44-.35s0-.1,0-.06c.24,0,.46.33.7.29A8.7,8.7,0,0,0,53.24,30.1ZM47.6,27.42c-.35.67.53,1.33,1.2,1.46-.26-.44.37-1,.82-1C49,26.94,48.06,26.53,47.6,27.42ZM49,28.72c.12-.24.44-.47.59-.71C49.3,28.05,48.87,28.41,49,28.72Zm8.2,11.18a.45.45,0,0,1,.18-.35,7.09,7.09,0,0,0-1.41-1C55.38,39.23,56.84,39.56,57.23,39.9Z"/></g></svg>