<svg xmlns="http://www.w3.org/2000/svg" width="484.429" height="484.428" viewBox="0 0 484.429 484.428">
    <defs>
        <style>
            .cls-2,.cls-3{fill:none;stroke:#050a23;stroke-miterlimit:10}.cls-2{stroke-width:.939px}.cls-3{stroke-width:.235px}
        </style>
    </defs>
    <g id="Group_41" opacity="0.49" transform="translate(.117 .117)">
        <g id="Group_40">
            <g id="Group_39">
                <g id="Group_38" transform="translate(41.436 41.434)">
                    <path id="Path_82" d="M102.083 229.1l4.483 9.2 4.691-9.142c.082-.159.278-.514.566-1.04 13.468-24.682 20.3-42.358 20.3-52.535 0-12.5-9.514-25.437-25.435-25.437s-25.437 12.935-25.437 25.437c0 10.179 6.828 27.855 20.3 52.537.284.527.48.88.532.98zm4.6-68.741c10.5 0 15.223 8.9 15.223 15.223 0 3.522-1.571 14.225-15.223 40.466-13.65-26.236-15.223-36.939-15.223-40.464 0-6.322 4.723-15.223 15.225-15.223z" class="cls-2" transform="translate(93.977 -150.147)"/>
                    <path id="Path_83" d="M106.668 220.726a25.437 25.437 0 1 0 25.432 25.437 25.465 25.465 0 0 0-25.432-25.437zm0 40.66a15.223 15.223 0 1 1 15.225-15.223 15.241 15.241 0 0 1-15.225 15.223z" class="cls-2" transform="translate(93.955 -45.538)"/>
                    <path id="Path_84" d="M134.4 237.08c18.549-5.448 42.542-13.828 51.51-22.8a26.313 26.313 0 0 0 7.432-16.4 25.527 25.527 0 0 0-27-27 26.314 26.314 0 0 0-16.407 7.432c-7.2 7.2-14.866 24.524-22.794 51.5l-.315 1.075-3.326 9.673 9.78-3.145c.166-.055.554-.166 1.12-.335zm22.759-51.547a16.143 16.143 0 0 1 11.063-4.527 14.533 14.533 0 0 1 10.467 4.527c7.424 7.424 4.468 17.06 0 21.53-2.492 2.492-11.177 8.951-39.379 17.849 8.905-28.207 15.361-36.887 17.853-39.379z" class="cls-2" transform="translate(156.598 -119.523)"/>
                    <path id="Path_85" d="M38.819 214.262c7.2 7.2 24.524 14.868 51.5 22.794l1.075.318 9.675 3.336-3.147-9.785c-.055-.166-.166-.556-.335-1.132-7.928-26.976-15.6-44.3-22.794-51.5a26.328 26.328 0 0 0-16.407-7.432 25.527 25.527 0 0 0-27 27 26.3 26.3 0 0 0 7.433 16.401zm7.223-28.748A14.468 14.468 0 0 1 56.492 181c.39 0 .762.017 1.117.042a16.186 16.186 0 0 1 9.961 4.47c2.492 2.49 8.948 11.172 17.849 39.377-28.207-8.9-36.887-15.357-39.379-17.849a16.183 16.183 0 0 1-4.468-9.961 14.416 14.416 0 0 1 4.47-11.565z" class="cls-2" transform="translate(19.969 -119.556)"/>
                    <path id="Path_86" d="M89.606 250.747l9.194-4.48-9.134-4.691c-.156-.082-.509-.273-1.03-.558-16.97-9.263-39.861-20.306-52.547-20.306-12.5 0-25.435 9.514-25.435 25.437s12.932 25.437 25.435 25.437c12.684 0 35.572-11.041 52.54-20.3zm-53.517 10.624c-6.32 0-15.223-4.724-15.223-15.223s8.9-15.223 15.223-15.223c3.527 0 14.233 1.571 40.469 15.223-26.239 13.652-36.945 15.223-40.469 15.223z" class="cls-2" transform="translate(-10.654 -45.561)"/>
                    <path id="Path_87" d="M111.257 285.487l-4.48-9.2-4.7 9.142c-.079.154-.273.506-.558 1.028-9.263 16.97-20.3 39.863-20.3 52.547 0 12.5 9.514 25.437 25.435 25.437S132.09 351.5 132.09 339c0-10.177-6.828-27.85-20.3-52.527-.29-.529-.481-.886-.533-.986zm-4.6 68.738c-10.5 0-15.223-8.9-15.223-15.223 0-3.525 1.571-14.23 15.223-40.467 13.654 26.244 15.226 36.942 15.226 40.467-.005 6.323-4.728 15.223-15.23 15.223z" class="cls-2" transform="translate(93.932 36.81)"/>
                    <path id="Path_88" d="M90.308 266.518c-18.549 5.448-42.542 13.828-51.512 22.8a26.308 26.308 0 0 0-7.432 16.407 25.573 25.573 0 0 0 25.1 27.068c.63 0 1.263-.022 1.9-.072a26.314 26.314 0 0 0 16.407-7.431c7.2-7.2 14.866-24.524 22.794-51.5l.315-1.075 3.336-9.676-9.78 3.145c-.17.053-.555.165-1.128.334zm-22.762 51.547a16.185 16.185 0 0 1-9.961 4.47 14.425 14.425 0 0 1-11.567-4.47 14.414 14.414 0 0 1-4.47-11.567 16.193 16.193 0 0 1 4.47-9.963c2.492-2.492 11.175-8.951 39.379-17.849-8.903 28.207-15.359 36.887-17.851 39.379z" class="cls-2" transform="translate(19.937 17.174)"/>
                    <path id="Path_89" d="M134.294 266.642l-1.075-.315-9.675-3.336 3.145 9.782c.055.169.169.556.338 1.132 5.448 18.547 13.828 42.539 22.794 51.5a26.314 26.314 0 0 0 16.407 7.432q.953.071 1.9.072a24.791 24.791 0 0 0 17.668-7.5c11.257-11.259 8.841-27.13 0-35.971-7.196-7.198-24.526-14.868-51.502-22.796zm44.277 51.547c-7.424 7.422-17.06 4.468-21.528 0-2.492-2.492-8.951-11.175-17.849-39.379 28.207 8.9 36.887 15.359 39.377 17.849a16.192 16.192 0 0 1 4.47 9.961 14.418 14.418 0 0 1-4.47 11.569z" class="cls-2" transform="translate(156.666 17.105)"/>
                    <path id="Path_90" d="M199.508 220.742c-10.182 0-27.857 6.828-52.537 20.3-.526.288-.881.482-.98.534l-9.2 4.483 9.137 4.691c.156.082.509.276 1.033.561 16.968 9.263 39.861 20.3 52.545 20.3 12.5 0 25.435-9.514 25.435-25.437s-12.93-25.432-25.433-25.432zm0 40.66c-3.527 0-14.233-1.574-40.469-15.226 26.239-13.649 36.944-15.223 40.469-15.223 6.32 0 15.223 4.724 15.223 15.223s-8.903 15.224-15.223 15.224z" class="cls-2" transform="translate(176.304 -45.515)"/>
                    <path id="Path_91" d="M279.333 378.093a25.547 25.547 0 0 1-5.4.586 23.384 23.384 0 0 1-16.1-6.329 85.77 85.77 0 0 1-18.648-24.764 65.708 65.708 0 0 0-8.755 5.28 97.325 97.325 0 0 0 20.431 26.949 34.638 34.638 0 1 0 26.338-60.09 92.231 92.231 0 0 0-44.6 8.338 83.13 83.13 0 0 1 .03-31.767 93.66 93.66 0 0 0 44.565 8.486 34.63 34.63 0 1 0-26.338-60.088 97.307 97.307 0 0 0-20.349 26.79 68.306 68.306 0 0 0 8.784 5.309 86.865 86.865 0 0 1 18.537-24.638 23.675 23.675 0 0 1 21.5-5.741 23.967 23.967 0 0 1 17.383 14.319 24.372 24.372 0 0 1-1.733 22.4 23.934 23.934 0 0 1-18.5 11.463 82.567 82.567 0 0 1-41.154-8.323 79.216 79.216 0 0 1-21.284-15.243 78.092 78.092 0 0 1-15.315-21.312 83 83 0 0 1-8.233-41.184 23.934 23.934 0 0 1 11.463-18.5 24.291 24.291 0 0 1 12.815-3.671 24.956 24.956 0 0 1 9.584 1.936 23.98 23.98 0 0 1 14.322 17.383 23.688 23.688 0 0 1-5.744 21.5c-5.935 6.352-14.868 13.848-24.655 18.569a68.969 68.969 0 0 0 5.289 8.772 97.317 97.317 0 0 0 26.827-20.368 34.637 34.637 0 1 0-60.088-26.338A94.156 94.156 0 0 0 188.7 252.4a83.531 83.531 0 0 1-31.754.012 92.1 92.1 0 0 0 8.343-44.6 34.631 34.631 0 1 0-60.09 26.338 97.312 97.312 0 0 0 26.9 20.408 68.762 68.762 0 0 0 5.3-8.789 86.773 86.773 0 0 1-24.747-18.591 23.693 23.693 0 0 1-5.741-21.5 23.972 23.972 0 0 1 14.32-17.383 24.959 24.959 0 0 1 9.586-1.936 24.276 24.276 0 0 1 12.813 3.671 23.936 23.936 0 0 1 11.465 18.5 81.693 81.693 0 0 1-8.2 41.194 79.438 79.438 0 0 1-15.355 21.257 80.72 80.72 0 0 1-62.506 23.536 23.887 23.887 0 0 1-18.5-11.465 24.371 24.371 0 0 1-1.733-22.4 23.973 23.973 0 0 1 17.38-14.319 25.506 25.506 0 0 1 5.4-.586 23.386 23.386 0 0 1 16.1 6.329 89.281 89.281 0 0 1 18.646 24.764 66.833 66.833 0 0 0 8.755-5.28 97.272 97.272 0 0 0-20.428-26.949 34.638 34.638 0 1 0-26.338 60.09 92.221 92.221 0 0 0 44.594-8.338 83.065 83.065 0 0 1-.027 31.767 93.659 93.659 0 0 0-44.565-8.486 34.63 34.63 0 1 0 26.338 60.088 97.355 97.355 0 0 0 20.349-26.79 68.149 68.149 0 0 0-8.787-5.309 86.815 86.815 0 0 1-18.534 24.638 23.687 23.687 0 0 1-21.5 5.741A23.971 23.971 0 0 1 48.806 363.7a24.372 24.372 0 0 1 1.735-22.4 23.93 23.93 0 0 1 18.5-11.463 82.566 82.566 0 0 1 41.154 8.323 79.259 79.259 0 0 1 21.284 15.24 78.093 78.093 0 0 1 15.315 21.312 83 83 0 0 1 8.233 41.184 23.934 23.934 0 0 1-11.463 18.5 24.292 24.292 0 0 1-12.815 3.671 24.975 24.975 0 0 1-9.586-1.936 23.982 23.982 0 0 1-14.32-17.383 23.688 23.688 0 0 1 5.744-21.5 87.34 87.34 0 0 1 24.655-18.569 66.3 66.3 0 0 0-5.289-8.772 97.318 97.318 0 0 0-26.827 20.369 34.637 34.637 0 1 0 60.088 26.338 94.152 94.152 0 0 0-8.395-44.584 83.531 83.531 0 0 1 31.754-.012 92.1 92.1 0 0 0-8.342 44.6 34.63 34.63 0 1 0 60.09-26.338 97.366 97.366 0 0 0-26.906-20.408 68.739 68.739 0 0 0-5.3 8.789 86.8 86.8 0 0 1 24.745 18.591 23.688 23.688 0 0 1 5.744 21.5 23.972 23.972 0 0 1-14.32 17.383 24.957 24.957 0 0 1-9.586 1.936 24.291 24.291 0 0 1-12.818-3.671 23.94 23.94 0 0 1-11.463-18.5 81.665 81.665 0 0 1 8.2-41.194 79.436 79.436 0 0 1 15.355-21.257 80.72 80.72 0 0 1 62.506-23.536 23.891 23.891 0 0 1 18.5 11.465 24.374 24.374 0 0 1 1.733 22.4 23.971 23.971 0 0 1-17.378 14.315zm-56.1-44.959a93.616 93.616 0 0 0-29.577 29.52 93.914 93.914 0 0 0-41.869 0 89.47 89.47 0 0 0-13.106-16.494 91.189 91.189 0 0 0-16.422-12.984 93.537 93.537 0 0 0 .027-41.881 93.589 93.589 0 0 0 29.577-29.523 93.818 93.818 0 0 0 41.869 0 89.291 89.291 0 0 0 13.106 16.5 91.277 91.277 0 0 0 16.422 12.984 93.585 93.585 0 0 0-.025 41.881z" class="cls-2" transform="translate(27.865 -111.627)"/>
                </g>
                <circle id="Ellipse_3" cx="225.426" cy="225.426" r="225.426" class="cls-3" transform="translate(16.67 16.67)"/>
                <circle id="Ellipse_4" cx="139.328" cy="139.328" r="139.328" class="cls-3" transform="translate(102.769 102.769)"/>
                <circle id="Ellipse_5" cx="86.109" cy="86.109" r="86.109" class="cls-3" transform="translate(155.988 16.66)"/>
                <circle id="Ellipse_6" cx="86.109" cy="86.109" r="86.109" class="cls-3" transform="translate(155.988 295.316)"/>
                <circle id="Ellipse_7" cx="86.109" cy="86.109" r="86.109" class="cls-3" transform="translate(295.24 155.988)"/>
                <circle id="Ellipse_8" cx="86.109" cy="86.109" r="86.109" class="cls-3" transform="translate(16.66 155.988)"/>
                <circle id="Ellipse_9" cx="86.109" cy="86.109" r="86.109" class="cls-3" transform="translate(254.497 57.495)"/>
                <circle id="Ellipse_10" cx="86.109" cy="86.109" r="86.109" class="cls-3" transform="translate(57.457 254.534)"/>
                <circle id="Ellipse_11" cx="86.109" cy="86.109" r="86.109" class="cls-3" transform="translate(254.443 254.481)"/>
                <circle id="Ellipse_12" cx="86.109" cy="86.109" r="86.109" class="cls-3" transform="translate(57.457 57.495)"/>
                <path id="Line_15" d="M0 0L484.194 0" class="cls-3" transform="translate(0 242.097)"/>
                <path id="Line_16" d="M0 0L0 484.193" class="cls-3" transform="translate(242.097)"/>
                <path id="Line_17" d="M0 0L342.377 342.376" class="cls-3" transform="translate(70.909 70.909)"/>
                <path id="Line_18" d="M342.377 0L0 342.376" class="cls-3" transform="translate(70.909 70.909)"/>
                <circle id="Ellipse_13" cx="20.33" cy="20.33" r="20.33" class="cls-3" transform="translate(221.729 221.767)"/>
                <circle id="Ellipse_14" cx="20.33" cy="20.33" r="20.33" class="cls-3" transform="translate(221.767 46.579)"/>
                <circle id="Ellipse_15" cx="7.765" cy="7.765" r="7.765" class="cls-3" transform="translate(234.294 102.769)"/>
                <circle id="Ellipse_16" cx="7.765" cy="7.765" r="7.765" class="cls-3" transform="translate(234.294 87.239)"/>
                <circle id="Ellipse_17" cx="20.33" cy="20.33" r="20.33" class="cls-3" transform="translate(345.67 97.917)"/>
                <circle id="Ellipse_18" cx="7.765" cy="7.765" r="7.765" class="cls-3" transform="translate(327.361 141.303)"/>
                <circle id="Ellipse_19" cx="7.765" cy="7.765" r="7.765" class="cls-3" transform="translate(338.342 130.321)"/>
                <circle id="Ellipse_20" cx="29.549" cy="29.549" r="29.549" class="cls-3" transform="translate(170.513 111.111)"/>
                <circle id="Ellipse_21" cx="29.549" cy="29.549" r="29.549" class="cls-3" transform="translate(254.573 111.111)"/>
                <circle id="Ellipse_22" cx="29.549" cy="29.549" r="29.549" class="cls-3" transform="translate(313.984 170.551)"/>
                <circle id="Ellipse_23" cx="29.549" cy="29.549" r="29.549" class="cls-3" transform="translate(313.984 254.61)"/>
                <circle id="Ellipse_24" cx="29.549" cy="29.549" r="29.549" class="cls-3" transform="translate(111.111 254.545)"/>
                <circle id="Ellipse_25" cx="29.549" cy="29.549" r="29.549" class="cls-3" transform="translate(111.111 170.485)"/>
                <circle id="Ellipse_26" cx="29.549" cy="29.549" r="29.549" class="cls-3" transform="translate(254.573 313.984)"/>
                <circle id="Ellipse_27" cx="29.549" cy="29.549" r="29.549" class="cls-3" transform="translate(170.513 313.984)"/>
                <circle id="Ellipse_28" cx="20.33" cy="20.33" r="20.33" class="cls-3" transform="translate(97.917 97.864)"/>
                <circle id="Ellipse_29" cx="7.765" cy="7.765" r="7.765" class="cls-3" transform="translate(141.303 141.303)"/>
                <circle id="Ellipse_30" cx="7.765" cy="7.765" r="7.765" class="cls-3" transform="translate(130.321 130.321)"/>
                <circle id="Ellipse_31" cx="20.33" cy="20.33" r="20.33" class="cls-3" transform="translate(46.579 221.729)"/>
                <circle id="Ellipse_32" cx="7.765" cy="7.765" r="7.765" class="cls-3" transform="translate(102.769 234.332)"/>
                <circle id="Ellipse_33" cx="7.765" cy="7.765" r="7.765" class="cls-3" transform="translate(87.239 234.332)"/>
                <circle id="Ellipse_34" cx="20.33" cy="20.33" r="20.33" class="cls-3" transform="translate(221.691 396.955)"/>
                <circle id="Ellipse_35" cx="7.765" cy="7.765" r="7.765" class="cls-3" transform="translate(234.294 365.895)"/>
                <circle id="Ellipse_36" cx="7.765" cy="7.765" r="7.765" class="cls-3" transform="translate(234.294 381.425)"/>
                <circle id="Ellipse_37" cx="20.33" cy="20.33" r="20.33" class="cls-3" transform="translate(97.788 345.617)"/>
                <circle id="Ellipse_38" cx="7.765" cy="7.765" r="7.765" class="cls-3" transform="translate(141.227 327.361)"/>
                <circle id="Ellipse_39" cx="7.765" cy="7.765" r="7.765" class="cls-3" transform="translate(130.246 338.342)"/>
                <circle id="Ellipse_40" cx="20.33" cy="20.33" r="20.33" class="cls-3" transform="translate(345.541 345.67)"/>
                <circle id="Ellipse_41" cx="7.765" cy="7.765" r="7.765" class="cls-3" transform="translate(327.285 327.361)"/>
                <circle id="Ellipse_42" cx="7.765" cy="7.765" r="7.765" class="cls-3" transform="translate(338.267 338.342)"/>
                <circle id="Ellipse_43" cx="20.33" cy="20.33" r="20.33" class="cls-3" transform="translate(396.879 221.805)"/>
                <circle id="Ellipse_44" cx="7.765" cy="7.765" r="7.765" class="cls-3" transform="translate(365.819 234.332)"/>
                <circle id="Ellipse_45" cx="7.765" cy="7.765" r="7.765" class="cls-3" transform="translate(381.349 234.332)"/>
            </g>
            <circle id="Ellipse_46" cx="242.097" cy="242.097" r="242.097" class="cls-3"/>
        </g>
    </g>
</svg>
