<svg xmlns="http://www.w3.org/2000/svg" width="160" height="160" viewBox="0 0 160 160">
    <defs>
        <style>
            .cls-1{fill:#050a23}
        </style>
    </defs>
    <g id="Group_344" transform="translate(-531 -1066)">
        <g id="Group_342" transform="translate(540 1081.146)">
            <path id="Path_26" d="M35.965 41.7l1.527 3.132 1.6-3.113c.025-.054.093-.172.191-.353 4.58-8.4 6.9-14.409 6.9-17.87a8.653 8.653 0 1 0-17.306 0c0 3.461 2.327 9.475 6.908 17.87.1.182.167.3.182.334m1.566-23.383a5.144 5.144 0 0 1 5.178 5.183c0 1.2-.535 4.841-5.179 13.766-4.645-8.928-5.18-12.566-5.18-13.766a5.144 5.144 0 0 1 5.179-5.179" class="cls-1" transform="translate(30.734 -14.842)"/>
            <path id="Path_27" d="M37.524 26.982a8.653 8.653 0 1 0 8.655 8.65 8.657 8.657 0 0 0-8.655-8.65m0 13.83a5.179 5.179 0 1 1 5.176-5.18 5.187 5.187 0 0 1-5.179 5.179" class="cls-1" transform="translate(30.726 32.218)"/>
            <path id="Path_28" d="M39.854 40.94c6.309-1.856 14.473-4.7 17.522-7.757a8.931 8.931 0 0 0 2.524-5.577 8.685 8.685 0 0 0-9.185-9.185 8.955 8.955 0 0 0-5.582 2.528c-2.445 2.45-5.052 8.341-7.752 17.517-.059.2-.093.329-.108.368l-1.134 3.289 3.329-1.07c.054-.02.187-.054.383-.113M47.6 23.4a5.5 5.5 0 0 1 3.765-1.537 4.955 4.955 0 0 1 3.556 1.537 5.151 5.151 0 0 1 0 7.325c-.849.849-3.8 3.044-13.4 6.073 3.029-9.6 5.224-12.548 6.073-13.4" class="cls-1" transform="translate(59.143 -.948)"/>
            <path id="Path_29" d="M22.841 33.184c2.45 2.45 8.341 5.057 17.522 7.752l.363.108 3.294 1.134-1.075-3.324c-.015-.059-.054-.191-.113-.388-2.7-9.176-5.307-15.072-7.752-17.522a8.982 8.982 0 0 0-5.58-2.528 8.685 8.685 0 0 0-9.188 9.184 8.955 8.955 0 0 0 2.528 5.582M25.3 23.4a4.9 4.9 0 0 1 3.549-1.537c.133 0 .265 0 .383.015A5.487 5.487 0 0 1 32.62 23.4c.849.844 3.044 3.8 6.073 13.393-9.593-3.025-12.548-5.22-13.393-6.069a5.461 5.461 0 0 1-1.522-3.387A4.894 4.894 0 0 1 25.3 23.4" class="cls-1" transform="translate(-2.84 -.963)"/>
            <path id="Path_30" d="M43.593 37.2l3.127-1.522-3.1-1.6-.353-.191c-5.773-3.152-13.56-6.907-17.875-6.907a8.653 8.653 0 1 0 0 17.306c4.315 0 12.1-3.756 17.875-6.907l.329-.182m-18.2 3.613a5.177 5.177 0 1 1 0-10.354c1.2 0 4.841.535 13.766 5.174-8.925 4.644-12.568 5.179-13.766 5.179" class="cls-1" transform="translate(-16.734 32.206)"/>
            <path id="Path_31" d="M39.092 39.669l-1.527-3.132-1.6 3.113-.191.349c-3.152 5.773-6.907 13.56-6.907 17.875a8.653 8.653 0 1 0 17.305 0c0-3.461-2.322-9.47-6.9-17.87-.1-.177-.167-.3-.182-.334m-1.564 23.383a5.144 5.144 0 0 1-5.179-5.179c0-1.2.535-4.841 5.179-13.766C42.17 53.037 42.7 56.675 42.7 57.873a5.143 5.143 0 0 1-5.174 5.179" class="cls-1" transform="translate(30.714 69.172)"/>
            <path id="Path_32" d="M40.363 35.442C34.05 37.3 25.89 40.145 22.837 43.2a8.97 8.97 0 0 0-2.528 5.582 8.7 8.7 0 0 0 8.542 9.205c.211 0 .427 0 .643-.025a8.93 8.93 0 0 0 5.582-2.528c2.45-2.445 5.057-8.341 7.752-17.517.059-.2.1-.329.108-.368l1.134-3.289-3.324 1.07c-.059.02-.191.054-.383.113m-7.742 17.535a5.539 5.539 0 0 1-3.392 1.522 5.216 5.216 0 0 1-5.454-5.459 5.487 5.487 0 0 1 1.525-3.387c.844-.849 3.8-3.044 13.393-6.073-3.024 9.6-5.224 12.548-6.068 13.4" class="cls-1" transform="translate(-2.855 60.266)"/>
            <path id="Path_33" d="M39.808 35.493l-.363-.108-3.294-1.134 1.07 3.329c.02.054.059.187.113.383 1.856 6.309 4.7 14.473 7.757 17.522a8.944 8.944 0 0 0 5.582 2.528c.216.015.432.025.643.025a8.449 8.449 0 0 0 6.014-2.553 8.569 8.569 0 0 0 0-12.234c-2.45-2.45-8.346-5.062-17.522-7.757M54.87 53.029a5.151 5.151 0 0 1-7.325 0c-.844-.849-3.044-3.8-6.073-13.4 9.6 3.029 12.548 5.224 13.4 6.073a5.514 5.514 0 0 1 1.522 3.387 4.9 4.9 0 0 1-1.522 3.937" class="cls-1" transform="translate(59.174 60.235)"/>
            <path id="Path_34" d="M59.766 26.984c-3.466 0-9.48 2.322-17.875 6.907l-.334.182L38.43 35.6l3.108 1.6.353.187c5.773 3.152 13.56 6.907 17.875 6.907a8.653 8.653 0 0 0 0-17.306m0 13.835c-1.2 0-4.846-.535-13.771-5.179C54.92 31 58.563 30.465 59.766 30.465a5.179 5.179 0 0 1 0 10.359" class="cls-1" transform="translate(68.084 32.225)"/>
            <path id="Path_35" d="M103.763 87.42a8.515 8.515 0 0 1-1.836.2 7.987 7.987 0 0 1-5.479-2.137 28.976 28.976 0 0 1-6.348-8.347 22.161 22.161 0 0 0-2.975 1.776A32.8 32.8 0 0 0 94.076 88a11.849 11.849 0 0 0 18.808-4.093 11.687 11.687 0 0 0-9.848-16.173 31.6 31.6 0 0 0-15.17 2.813 27.849 27.849 0 0 1 .01-10.717 32 32 0 0 0 15.16 2.862 11.688 11.688 0 1 0-8.96-20.261 32.9 32.9 0 0 0-6.922 9.033 23.22 23.22 0 0 0 2.99 1.791 29.188 29.188 0 0 1 6.3-8.308 8.271 8.271 0 1 1 6.343 14.314 28.318 28.318 0 0 1-14-2.808 27.011 27.011 0 0 1-7.241-5.139 26.363 26.363 0 0 1-5.214-7.188 27.815 27.815 0 0 1-2.8-13.89A8.08 8.08 0 0 1 77.439 24a8.31 8.31 0 0 1 4.36-1.236 8.568 8.568 0 0 1 3.265.652 8.114 8.114 0 0 1 4.87 5.86 7.943 7.943 0 0 1-1.954 7.252 29.914 29.914 0 0 1-8.39 6.264 23.36 23.36 0 0 0 1.8 2.954 32.95 32.95 0 0 0 9.127-6.867 11.455 11.455 0 0 0 2.808-10.328 11.659 11.659 0 0 0-6.932-8.318 11.828 11.828 0 0 0-10.781.837 11.516 11.516 0 0 0-5.538 8.926 31.5 31.5 0 0 0 2.857 15.039 28.377 28.377 0 0 1-5.41.516 27.82 27.82 0 0 1-5.39-.516 30.8 30.8 0 0 0 2.833-15.039 11.5 11.5 0 0 0-5.538-8.926 11.817 11.817 0 0 0-10.776-.837 11.665 11.665 0 0 0-6.937 8.318 11.458 11.458 0 0 0 2.813 10.328 32.974 32.974 0 0 0 9.151 6.882 22.94 22.94 0 0 0 1.807-2.964 29.422 29.422 0 0 1-8.42-6.269 7.93 7.93 0 0 1-1.954-7.252 8.1 8.1 0 0 1 4.87-5.86 8.531 8.531 0 0 1 3.265-.652A8.293 8.293 0 0 1 57.6 24a8.073 8.073 0 0 1 3.9 6.239 27.282 27.282 0 0 1-2.793 13.89 26.683 26.683 0 0 1-5.221 7.171 27.585 27.585 0 0 1-21.262 7.933 8.22 8.22 0 0 1-.967-16.246 8.449 8.449 0 0 1 1.836-.2 7.975 7.975 0 0 1 5.474 2.137 30.058 30.058 0 0 1 6.348 8.352 23.2 23.2 0 0 0 2.974-1.776 32.812 32.812 0 0 0-6.952-9.091 11.848 11.848 0 0 0-18.8 4.088 11.683 11.683 0 0 0 9.843 16.178 31.652 31.652 0 0 0 15.175-2.808 27.824 27.824 0 0 1-.01 10.712 32.157 32.157 0 0 0-15.16-2.867 11.656 11.656 0 0 0-9.011 5.488 11.538 11.538 0 0 0-.84 10.683 11.841 11.841 0 0 0 18.8 4.088 32.81 32.81 0 0 0 6.927-9.033 23.218 23.218 0 0 0-2.99-1.791 29.2 29.2 0 0 1-6.309 8.308 8.271 8.271 0 1 1-6.338-14.314 28.334 28.334 0 0 1 14 2.808 27.012 27.012 0 0 1 7.241 5.14 26.474 26.474 0 0 1 5.209 7.188 27.78 27.78 0 0 1 2.8 13.89 8.073 8.073 0 0 1-3.9 6.239 8.3 8.3 0 0 1-4.36 1.236 8.544 8.544 0 0 1-3.26-.652 8.092 8.092 0 0 1-4.87-5.86 7.93 7.93 0 0 1 1.954-7.252 29.785 29.785 0 0 1 8.385-6.264 22.443 22.443 0 0 0-1.8-2.954 32.97 32.97 0 0 0-9.123 6.872 11.462 11.462 0 0 0-2.813 10.328 11.666 11.666 0 0 0 6.937 8.318 11.817 11.817 0 0 0 10.776-.838 11.521 11.521 0 0 0 5.543-8.926 31.565 31.565 0 0 0-2.857-15.039 28.377 28.377 0 0 1 5.41-.516 27.819 27.819 0 0 1 5.39.516 30.818 30.818 0 0 0-2.838 15.039 11.5 11.5 0 0 0 5.538 8.926 11.826 11.826 0 0 0 10.781.837 11.659 11.659 0 0 0 6.933-8.317 11.473 11.473 0 0 0-2.808-10.328 33.047 33.047 0 0 0-9.151-6.882 22.941 22.941 0 0 0-1.807 2.964 29.421 29.421 0 0 1 8.42 6.269 7.956 7.956 0 0 1 1.954 7.252 8.1 8.1 0 0 1-4.875 5.86 8.526 8.526 0 0 1-3.26.652 8.31 8.31 0 0 1-4.36-1.236 8.08 8.08 0 0 1-3.9-6.239 27.342 27.342 0 0 1 2.789-13.9 27.029 27.029 0 0 1 5.224-7.169 27.6 27.6 0 0 1 21.274-7.929 8.221 8.221 0 0 1 .967 16.246M84.68 72.259a31.649 31.649 0 0 0-10.064 9.958 32.164 32.164 0 0 0-14.242 0 30.128 30.128 0 0 0-4.458-5.563 31.028 31.028 0 0 0-5.587-4.38 30.512 30.512 0 0 0 .81-7.072 30.927 30.927 0 0 0-.8-7.052 31.527 31.527 0 0 0 5.6-4.419 30.833 30.833 0 0 0 4.461-5.539 32.186 32.186 0 0 0 14.247 0 29.924 29.924 0 0 0 4.453 5.563 30.859 30.859 0 0 0 5.587 4.38 31.188 31.188 0 0 0-.01 14.124" class="cls-1" transform="translate(.743 2.633)"/>
        </g>
        <path id="Rectangle_257" fill="none" d="M0 0H160V160H0z" transform="translate(531 1066)"/>
    </g>
</svg>
