<svg xmlns="http://www.w3.org/2000/svg" width="313.829" height="311.995" viewBox="0 0 313.829 311.995">
    <defs>
        <style>
            .cls-1{fill:none;stroke:#dcdcdc}
        </style>
    </defs>
    <g id="Group_76" transform="translate(.5 .5)">
        <path id="Path_26" d="M45.123 76.4l3.5 7.178 3.657-7.133c.056-.124.214-.394.439-.81 10.5-19.24 15.819-33.022 15.819-40.954 0-9.755-7.415-19.836-19.825-19.836S28.876 24.923 28.876 34.678c0 7.932 5.333 21.715 15.831 40.954.225.416.382.686.416.765m3.589-53.59c8.191 0 11.87 6.942 11.87 11.87 0 2.745-1.226 11.094-11.87 31.548-10.644-20.455-11.87-28.8-11.87-31.548 0-4.928 3.679-11.87 11.87-11.87" class="cls-1" transform="translate(107.736 -14.842)"/>
        <path id="Path_27" d="M48.7 26.982a19.83 19.83 0 1 0 19.835 19.825A19.841 19.841 0 0 0 48.7 26.982m0 31.695a11.87 11.87 0 1 1 11.87-11.87 11.887 11.887 0 0 1-11.87 11.87" class="cls-1" transform="translate(107.716 108.691)"/>
        <path id="Path_28" d="M44.649 70.061C59.107 65.808 77.818 59.282 84.8 52.284A20.467 20.467 0 0 0 90.6 39.5a19.259 19.259 0 0 0-5.8-15.254 19.259 19.259 0 0 0-15.257-5.794 20.524 20.524 0 0 0-12.793 5.794C51.152 29.86 45.178 43.362 38.99 64.39c-.135.45-.214.754-.248.844l-2.6 7.538 7.628-2.453c.124-.045.428-.124.878-.259m17.744-40.188a12.6 12.6 0 0 1 8.63-3.522 11.355 11.355 0 0 1 8.157 3.522c5.783 5.794 3.477 13.3 0 16.787-1.946 1.946-8.72 6.976-30.7 13.918 6.942-22 11.971-28.758 13.918-30.7" class="cls-1" transform="translate(182.232 21.591)"/>
        <path id="Path_29" d="M26.138 52.291c5.614 5.614 19.116 11.589 40.156 17.766l.833.248 7.55 2.6-2.464-7.617c-.034-.135-.124-.439-.259-.889-6.178-21.03-12.164-34.543-17.767-40.157a20.584 20.584 0 0 0-12.793-5.794 19.311 19.311 0 0 0-15.257 5.794A19.273 19.273 0 0 0 20.344 39.5a20.524 20.524 0 0 0 5.794 12.793m5.637-22.412a11.228 11.228 0 0 1 8.135-3.522c.3 0 .608.011.878.034a12.575 12.575 0 0 1 7.763 3.488c1.946 1.935 6.976 8.708 13.918 30.693C40.483 53.63 33.71 48.6 31.775 46.654a12.514 12.514 0 0 1-3.488-7.763 11.215 11.215 0 0 1 3.488-9.012" class="cls-1" transform="translate(19.699 21.551)"/>
        <path id="Path_30" d="M78.289 50.393l7.168-3.493-7.111-3.657-.81-.439C64.3 35.586 46.46 26.979 36.57 26.979c-9.744 0-19.836 7.415-19.836 19.825S26.826 66.64 36.57 66.64c9.89 0 27.734-8.607 40.966-15.83l.754-.416m-41.72 8.28c-4.928 0-11.87-3.679-11.87-11.87s6.942-11.859 11.87-11.859c2.745 0 11.094 1.226 31.548 11.859-20.455 10.644-28.8 11.87-31.548 11.87" class="cls-1" transform="translate(-16.734 108.661)"/>
        <path id="Path_31" d="M52.3 43.715l-3.5-7.178-3.66 7.133c-.068.124-.214.394-.439.8-7.223 13.23-15.83 31.075-15.83 40.965 0 9.755 7.415 19.836 19.836 19.836S68.532 95.19 68.532 85.435c0-7.932-5.322-21.7-15.819-40.954-.225-.4-.383-.686-.416-.765M48.707 97.3c-8.191 0-11.87-6.942-11.87-11.87 0-2.745 1.226-11.094 11.87-31.548 10.644 20.466 11.859 28.8 11.859 31.548 0 4.928-3.679 11.87-11.859 11.87" class="cls-1" transform="translate(107.685 205.725)"/>
        <path id="Path_32" d="M66.3 36.971c-14.468 4.252-33.168 10.778-40.166 17.777a20.557 20.557 0 0 0-5.795 12.792 19.287 19.287 0 0 0 5.794 15.245 19.344 19.344 0 0 0 13.783 5.851c.484 0 .979-.011 1.474-.056a20.465 20.465 0 0 0 12.793-5.794c5.614-5.6 11.589-19.116 17.766-40.144.135-.45.225-.754.248-.844l2.6-7.538-7.617 2.453c-.135.045-.439.124-.878.259M48.558 77.16a12.7 12.7 0 0 1-7.775 3.488 11.28 11.28 0 0 1-9.012-3.488 11.236 11.236 0 0 1-3.488-9.023 12.575 12.575 0 0 1 3.488-7.763c1.935-1.946 8.708-6.976 30.693-13.918-6.931 22-11.971 28.758-13.907 30.7" class="cls-1" transform="translate(19.659 182.372)"/>
        <path id="Path_33" d="M44.533 37.1l-.833-.25-7.55-2.6 2.45 7.629c.045.124.135.428.259.878 4.253 14.458 10.779 33.169 17.777 40.156a20.5 20.5 0 0 0 12.793 5.794c.5.034.99.056 1.474.056a19.363 19.363 0 0 0 13.783-5.851c8.776-8.776 6.886-21.152 0-28.038C79.074 49.26 65.562 43.275 44.533 37.1m34.519 40.187c-5.794 5.783-13.3 3.477-16.787 0-1.935-1.946-6.976-8.72-13.918-30.7 22 6.942 28.758 11.971 30.7 13.918a12.637 12.637 0 0 1 3.488 7.763 11.236 11.236 0 0 1-3.488 9.024" class="cls-1" transform="translate(182.314 182.291)"/>
        <path id="Path_34" d="M87.328 26.984c-7.943 0-21.726 5.322-40.966 15.83l-.765.416-7.167 3.5 7.122 3.657.81.428c13.231 7.223 31.076 15.83 40.966 15.83 9.744 0 19.825-7.415 19.825-19.825S97.071 26.984 87.328 26.984m0 31.706c-2.757 0-11.1-1.226-31.56-11.87 20.455-10.644 28.8-11.87 31.56-11.87 4.917 0 11.859 3.679 11.859 11.87s-6.942 11.87-11.859 11.87" class="cls-1" transform="translate(205.677 108.711)"/>
        <path id="Path_35" d="M210.41 175.4a19.515 19.515 0 0 1-4.208.457 18.305 18.305 0 0 1-12.556-4.9 66.407 66.407 0 0 1-14.537-19.129 50.789 50.789 0 0 0-6.818 4.071 75.179 75.179 0 0 0 15.921 20.836 27.156 27.156 0 0 0 43.1-9.381 26.783 26.783 0 0 0-22.57-37.065 72.422 72.422 0 0 0-34.766 6.447A63.825 63.825 0 0 1 174 112.18a73.333 73.333 0 0 0 34.744 6.559A26.787 26.787 0 1 0 188.211 72.3 75.392 75.392 0 0 0 172.347 93a53.217 53.217 0 0 0 6.852 4.1 66.892 66.892 0 0 1 14.447-19.04 18.956 18.956 0 1 1 14.537 32.8 64.9 64.9 0 0 1-32.077-6.436 61.9 61.9 0 0 1-16.6-11.779 60.418 60.418 0 0 1-11.949-16.474 63.746 63.746 0 0 1-6.413-31.834 18.517 18.517 0 0 1 8.933-14.3 19.044 19.044 0 0 1 9.991-2.833 19.636 19.636 0 0 1 7.482 1.495 18.6 18.6 0 0 1 11.161 13.429 18.2 18.2 0 0 1-4.478 16.62 68.558 68.558 0 0 1-19.228 14.355 53.533 53.533 0 0 0 4.129 6.77 75.515 75.515 0 0 0 20.92-15.723 26.254 26.254 0 0 0 6.436-23.669 26.72 26.72 0 0 0-15.89-19.062 27.107 27.107 0 0 0-24.7 1.919 26.391 26.391 0 0 0-12.7 20.456 72.2 72.2 0 0 0 6.548 34.466 65.035 65.035 0 0 1-12.4 1.182A63.757 63.757 0 0 1 115 78.26a70.584 70.584 0 0 0 6.492-34.466A26.362 26.362 0 0 0 108.8 23.338a27.082 27.082 0 0 0-24.7-1.918 26.735 26.735 0 0 0-15.9 19.062 26.259 26.259 0 0 0 6.453 23.668 75.57 75.57 0 0 0 20.972 15.772 52.572 52.572 0 0 0 4.14-6.793 67.427 67.427 0 0 1-19.3-14.366 18.173 18.173 0 0 1-4.478-16.62 18.571 18.571 0 0 1 11.166-13.429 19.551 19.551 0 0 1 7.482-1.495 19.006 19.006 0 0 1 9.98 2.833 18.5 18.5 0 0 1 8.945 14.3 62.525 62.525 0 0 1-6.4 31.834 61.152 61.152 0 0 1-11.974 16.441 63.219 63.219 0 0 1-48.729 18.181 18.839 18.839 0 0 1-2.217-37.232 19.365 19.365 0 0 1 4.208-.457 18.277 18.277 0 0 1 12.545 4.9 68.886 68.886 0 0 1 14.548 19.14 53.161 53.161 0 0 0 6.818-4.082 75.2 75.2 0 0 0-15.931-20.84 27.153 27.153 0 0 0-43.092 9.369 26.776 26.776 0 0 0 22.559 37.076 72.539 72.539 0 0 0 34.778-6.436 63.766 63.766 0 0 1-.023 24.55 73.7 73.7 0 0 0-34.744-6.57A26.714 26.714 0 0 0 25.26 142.82a26.443 26.443 0 0 0-1.924 24.48 27.137 27.137 0 0 0 43.092 9.369A75.194 75.194 0 0 0 82.3 155.97a53.214 53.214 0 0 0-6.852-4.1 66.909 66.909 0 0 1-14.458 19.04 18.541 18.541 0 0 1-16.753 4.439 18.852 18.852 0 0 1 2.231-37.249 64.935 64.935 0 0 1 32.077 6.436 61.906 61.906 0 0 1 16.6 11.779 60.674 60.674 0 0 1 11.938 16.474 63.665 63.665 0 0 1 6.424 31.833 18.5 18.5 0 0 1-8.945 14.3 19.015 19.015 0 0 1-9.991 2.833 19.58 19.58 0 0 1-7.471-1.495 18.546 18.546 0 0 1-11.161-13.429 18.173 18.173 0 0 1 4.478-16.619 68.262 68.262 0 0 1 19.213-14.354 51.436 51.436 0 0 0-4.118-6.77A75.56 75.56 0 0 0 74.6 184.826a26.268 26.268 0 0 0-6.447 23.669 26.735 26.735 0 0 0 15.9 19.062 27.081 27.081 0 0 0 24.7-1.918 26.4 26.4 0 0 0 12.7-20.456 72.341 72.341 0 0 0-6.548-34.466 65.036 65.036 0 0 1 12.4-1.182 63.757 63.757 0 0 1 12.354 1.182 70.628 70.628 0 0 0-6.5 34.466 26.362 26.362 0 0 0 12.691 20.456 27.1 27.1 0 0 0 24.708 1.918 26.72 26.72 0 0 0 15.887-19.062A26.293 26.293 0 0 0 180 184.826a75.736 75.736 0 0 0-20.972-15.772 52.577 52.577 0 0 0-4.14 6.793 67.427 67.427 0 0 1 19.3 14.366 18.233 18.233 0 0 1 4.478 16.619 18.561 18.561 0 0 1-11.172 13.429 19.539 19.539 0 0 1-7.471 1.495 19.044 19.044 0 0 1-9.991-2.833 18.517 18.517 0 0 1-8.934-14.3 62.663 62.663 0 0 1 6.391-31.845 61.944 61.944 0 0 1 11.971-16.43 63.262 63.262 0 0 1 48.74-18.181 18.841 18.841 0 0 1 2.21 37.233m-43.734-34.745a72.532 72.532 0 0 0-23.065 22.821 73.715 73.715 0 0 0-32.64 0 69.046 69.046 0 0 0-10.216-12.749 71.111 71.111 0 0 0-12.8-10.039 69.926 69.926 0 0 0 1.856-16.207 70.878 70.878 0 0 0-1.834-16.162 72.251 72.251 0 0 0 12.838-10.128A70.662 70.662 0 0 0 111.028 85.5a73.763 73.763 0 0 0 32.651 0A68.579 68.579 0 0 0 153.9 98.248a70.722 70.722 0 0 0 12.8 10.039 71.477 71.477 0 0 0-.023 32.369" class="cls-1" transform="translate(29.095 30.982)"/>
    </g>
</svg>
