<svg xmlns="http://www.w3.org/2000/svg" width="40" height="40" viewBox="0 0 40 40">
    <g transform="translate(-1608.147 -1043)">
        <rect width="40" height="40" fill="none" rx="5" transform="translate(1608.147 1043)"/>
        <path fill="#fff" d="M1420.3 77.98c0-1.706-.01-3.413.007-5.119 0-.407-.122-.567-.537-.542-.468.028-.939 0-1.408.006-.257 0-.376-.116-.376-.366v-3.9c0-.254.142-.367.385-.368l1.174-.006c.687 0 .682 0 .69-.714.008-.672-.01-1.342.064-2.016a4.219 4.219 0 0 1 3.991-3.969c1.3-.129 2.6-.031 3.894-.064.324-.008.44.142.437.456q-.015 1.55 0 3.1c0 .343-.141.483-.474.481-.689 0-1.378-.007-2.066 0s-.936.259-.955.936c-.012.438.007.877-.008 1.315-.012.341.127.478.47.473.861-.012 1.722.006 2.583-.007.358-.005.5.1.463.492-.126 1.2-.23 2.4-.323 3.6-.033.435-.223.581-.657.56-.7-.034-1.41.017-2.113-.018-.471-.023-.623.128-.62.608.018 3.3.01 6.606.009 9.909 0 .826 0 .827-.829.827-1.08 0-2.16-.012-3.24.006-.419.007-.576-.128-.571-.568.022-1.7.01-3.406.01-5.112z" transform="translate(204.736 991.634)"/>
    </g>
</svg>
