<svg xmlns="http://www.w3.org/2000/svg" width="40" height="40" viewBox="0 0 40 40">
    <g transform="translate(-1658 -1043)">
        <rect width="40" height="40" fill="none" rx="5" transform="translate(1658 1043)"/>
        <path fill="#fff" d="M901.545 770.077a14.067 14.067 0 0 0 2.966.79c.943.161 1.184.524 1.04 1.461-.057.371-.121.741-.174 1.114-.061.433.137.606.568.5a3.858 3.858 0 0 0 .971-.432 37.353 37.353 0 0 0 3.71-2.4 22.5 22.5 0 0 0 4.52-4.061 7.138 7.138 0 0 0 1.619-6.049 7.86 7.86 0 0 0-2.844-4.6 11.723 11.723 0 0 0-7.615-2.633 11.312 11.312 0 0 0-2.305.2 10.817 10.817 0 0 0-6.527 3.618 7.286 7.286 0 0 0-.249 9.28 9.957 9.957 0 0 0 4.32 3.212zm8.647-9.651c0-.37.076-.447.449-.449q1.279-.008 2.559 0c.361 0 .428.077.436.428.019.793.019.793-.774.793-.376 0-.752.007-1.127 0-.275-.005-.307.16-.308.378s.06.348.309.344c.477-.007.955 0 1.432 0 .395 0 .463.075.469.461.012.759.012.759-.75.759-.376 0-.752.008-1.127 0-.283-.007-.332.15-.334.388s.1.345.345.34c.477-.01.954-.006 1.432 0 .356 0 .426.08.434.432.018.757.018.757-.734.757h-2.285c-.369 0-.424-.056-.426-.427v-2.1c0-.7-.004-1.404 0-2.104zm-4.92-.426a1.048 1.048 0 0 1 1.063.225c.566.756 1.126 1.516 1.689 2.274.064.086.134.169.207.262.105-.124.067-.24.068-.346v-1.98c0-.379.073-.45.437-.463.764-.027.8.01.8.785v3.777c0 .468-.058.493-.531.529a.951.951 0 0 1-.961-.47c-.477-.706-1.007-1.376-1.516-2.061a.823.823 0 0 0-.27-.249v.561c0 .609-.006 1.219 0 1.828 0 .27-.1.38-.378.386-.857.022-.857.029-.857-.839v-3.595c.013-.224-.066-.509.249-.624zm-2.1.462c0-.432.056-.484.5-.49h.183c.48 0 .523.047.524.523V764.608c0 .4-.045.442-.432.448-.772.013-.772.013-.772-.756q-.004-1.917-.003-3.836zm-4.052.017c0-.43.076-.5.494-.507.719-.016.736 0 .736.711v2.773c0 .394.013.406.417.408h1.4c.338 0 .41.081.424.414.032.769.027.775-.753.775h-2.255c-.389 0-.46-.064-.464-.463-.008-.7 0-1.4 0-2.1 0-.668-.004-1.339.001-2.009z" transform="translate(771.662 299.906)"/>
    </g>
</svg>
