<svg xmlns="http://www.w3.org/2000/svg" id="Group_79" width="74.219" height="73.784" viewBox="0 0 74.219 73.784">
    <defs>
        <style>
            .cls-1{fill:#050a23}
        </style>
    </defs>
    <path id="Path_26" d="M32.731 29.446l.83 1.7.868-1.692c.013-.029.051-.093.1-.192 2.491-4.565 3.753-7.835 3.753-9.716a4.7 4.7 0 1 0-9.41 0c0 1.882 1.265 5.152 3.756 9.716.053.1.091.163.1.182m.852-12.714a2.8 2.8 0 0 1 2.82 2.818c0 .651-.291 2.632-2.816 7.485-2.525-4.853-2.816-6.834-2.816-7.485a2.8 2.8 0 0 1 2.816-2.816" class="cls-1" transform="translate(3.535 -14.842)"/>
    <path id="Path_27" d="M33.577 26.982a4.7 4.7 0 1 0 4.706 4.7 4.707 4.707 0 0 0-4.706-4.7m0 7.52a2.816 2.816 0 1 1 2.816-2.816 2.82 2.82 0 0 1-2.816 2.814" class="cls-1" transform="translate(3.532 5.207)"/>
    <path id="Path_28" d="M38.161 30.654c3.43-1.009 7.869-2.557 9.527-4.218a4.856 4.856 0 0 0 1.375-3.036 4.722 4.722 0 0 0-4.994-4.994 4.869 4.869 0 0 0-3.035 1.375c-1.329 1.332-2.747 4.535-4.215 9.524-.032.107-.051.179-.059.2l-.617 1.795 1.81-.582c.029-.011.1-.029.208-.061m4.21-9.535a2.989 2.989 0 0 1 2.047-.836 2.694 2.694 0 0 1 1.935.836 2.8 2.8 0 0 1 0 3.983c-.462.462-2.069 1.655-7.285 3.3 1.647-5.219 2.84-6.823 3.3-7.285" class="cls-1" transform="translate(15.667 -8.909)"/>
    <path id="Path_29" d="M21.676 26.435c1.332 1.332 4.535 2.749 9.527 4.215l.2.059 1.791.617-.585-1.807c-.008-.032-.029-.1-.061-.211-1.465-4.989-2.886-8.195-4.215-9.527a4.884 4.884 0 0 0-3.033-1.376 4.722 4.722 0 0 0-5 4.995 4.869 4.869 0 0 0 1.375 3.035m1.337-5.317a2.664 2.664 0 0 1 1.93-.836c.072 0 .144 0 .208.008a2.983 2.983 0 0 1 1.842.828c.462.459 1.655 2.066 3.3 7.282-5.216-1.647-6.823-2.84-7.282-3.3a2.969 2.969 0 0 1-.827-1.842 2.661 2.661 0 0 1 .827-2.138" class="cls-1" transform="translate(-10.801 -8.916)"/>
    <path id="Path_30" d="M31.338 32.534l1.7-.827-1.687-.868-.192-.1c-3.139-1.714-7.373-3.756-9.719-3.756a4.7 4.7 0 1 0 0 9.41c2.346 0 6.58-2.042 9.719-3.756l.179-.1M21.44 34.5a2.815 2.815 0 1 1 0-5.63c.651 0 2.632.291 7.485 2.814-4.853 2.524-6.834 2.816-7.485 2.816" class="cls-1" transform="translate(-16.734 5.202)"/>
    <path id="Path_31" d="M34.429 38.24l-.83-1.7-.868 1.692c-.016.029-.051.093-.1.19-1.714 3.139-3.756 7.373-3.756 9.719a4.7 4.7 0 1 0 9.41 0c0-1.882-1.263-5.149-3.753-9.716-.053-.1-.091-.163-.1-.182m-.852 12.714a2.8 2.8 0 0 1-2.816-2.816c0-.651.291-2.632 2.816-7.485 2.525 4.856 2.814 6.834 2.814 7.485a2.8 2.8 0 0 1-2.814 2.816" class="cls-1" transform="translate(3.527 20.94)"/>
    <path id="Path_32" d="M31.2 34.9c-3.433 1.009-7.869 2.557-9.53 4.218a4.877 4.877 0 0 0-1.37 3.037 4.731 4.731 0 0 0 4.645 5.005c.115 0 .232 0 .35-.013a4.855 4.855 0 0 0 3.035-1.375c1.332-1.329 2.749-4.535 4.215-9.524l.059-.2.617-1.788-1.807.582c-.032.011-.1.029-.208.061m-4.21 9.535a3.012 3.012 0 0 1-1.845.827 2.836 2.836 0 0 1-2.969-2.965 2.983 2.983 0 0 1 .828-1.842c.459-.462 2.066-1.655 7.282-3.3-1.644 5.219-2.84 6.823-3.3 7.285" class="cls-1" transform="translate(-10.808 17.137)"/>
    <path id="Path_33" d="M38.14 34.926l-.2-.059-1.791-.617.582 1.81c.011.029.032.1.061.208 1.009 3.43 2.557 7.869 4.218 9.527a4.863 4.863 0 0 0 3.035 1.375c.117.008.235.013.35.013a4.594 4.594 0 0 0 3.27-1.388 4.659 4.659 0 0 0 0-6.652c-1.332-1.332-4.538-2.752-9.527-4.218m8.19 9.535a2.8 2.8 0 0 1-3.983 0c-.459-.462-1.655-2.069-3.3-7.285 5.219 1.647 6.823 2.84 7.285 3.3a3 3 0 0 1 .827 1.842 2.666 2.666 0 0 1-.827 2.141" class="cls-1" transform="translate(15.68 17.124)"/>
    <path id="Path_34" d="M50.031 26.984c-1.885 0-5.155 1.263-9.719 3.756l-.181.1-1.7.83 1.69.868.192.1c3.139 1.714 7.373 3.756 9.719 3.756a4.7 4.7 0 0 0 0-9.41m0 7.522c-.654 0-2.635-.291-7.488-2.816 4.853-2.525 6.834-2.816 7.488-2.816a2.816 2.816 0 0 1 0 5.632" class="cls-1" transform="translate(19.485 5.21)"/>
    <path id="Path_35" d="M66.094 56.344a4.63 4.63 0 0 1-1 .109 4.343 4.343 0 0 1-2.979-1.162 15.755 15.755 0 0 1-3.449-4.538 12.049 12.049 0 0 0-1.618.966 17.836 17.836 0 0 0 3.777 4.943 6.443 6.443 0 0 0 10.226-2.226 6.354 6.354 0 0 0-5.351-8.793 17.182 17.182 0 0 0-8.248 1.53 15.142 15.142 0 0 1 .005-5.827A17.4 17.4 0 0 0 65.7 42.9a6.355 6.355 0 1 0-4.872-11.017 17.887 17.887 0 0 0-3.765 4.917 12.625 12.625 0 0 0 1.626.974 15.87 15.87 0 0 1 3.427-4.517 4.5 4.5 0 1 1 3.449 7.783 15.4 15.4 0 0 1-7.61-1.527 14.687 14.687 0 0 1-3.937-2.794 14.334 14.334 0 0 1-2.835-3.909 15.124 15.124 0 0 1-1.522-7.553 4.393 4.393 0 0 1 2.119-3.393 4.518 4.518 0 0 1 2.37-.672 4.659 4.659 0 0 1 1.775.355 4.412 4.412 0 0 1 2.648 3.186 4.319 4.319 0 0 1-1.062 3.943 16.265 16.265 0 0 1-4.562 3.406 12.7 12.7 0 0 0 .98 1.606 17.916 17.916 0 0 0 4.962-3.734 6.229 6.229 0 0 0 1.527-5.615 6.339 6.339 0 0 0-3.769-4.523 6.431 6.431 0 0 0-5.862.455 6.261 6.261 0 0 0-3.011 4.853A17.129 17.129 0 0 0 49.33 33.3a15.429 15.429 0 0 1-2.942.281 15.126 15.126 0 0 1-2.931-.281A16.746 16.746 0 0 0 45 25.121a6.254 6.254 0 0 0-3.011-4.853 6.425 6.425 0 0 0-5.859-.455 6.343 6.343 0 0 0-3.772 4.523 6.23 6.23 0 0 0 1.53 5.615 17.929 17.929 0 0 0 4.976 3.742 12.473 12.473 0 0 0 .982-1.612 16 16 0 0 1-4.578-3.408 4.312 4.312 0 0 1-1.068-3.944 4.406 4.406 0 0 1 2.648-3.186 4.639 4.639 0 0 1 1.775-.355 4.509 4.509 0 0 1 2.368.672 4.389 4.389 0 0 1 2.122 3.393 14.834 14.834 0 0 1-1.513 7.552 14.508 14.508 0 0 1-2.84 3.9 15 15 0 0 1-11.56 4.314 4.469 4.469 0 0 1-.526-8.833 4.594 4.594 0 0 1 1-.109 4.336 4.336 0 0 1 2.976 1.162 16.344 16.344 0 0 1 3.45 4.541 12.613 12.613 0 0 0 1.618-.969 17.841 17.841 0 0 0-3.78-4.943 6.442 6.442 0 0 0-10.228 2.223 6.353 6.353 0 0 0 5.352 8.8 17.21 17.21 0 0 0 8.251-1.527 15.129 15.129 0 0 1-.005 5.824 17.485 17.485 0 0 0-8.243-1.559 6.338 6.338 0 0 0-4.9 2.988 6.274 6.274 0 0 0-.456 5.809 6.438 6.438 0 0 0 10.224 2.223 17.84 17.84 0 0 0 3.767-4.915 12.625 12.625 0 0 0-1.626-.974 15.874 15.874 0 0 1-3.43 4.517 4.5 4.5 0 1 1-3.444-7.782 15.406 15.406 0 0 1 7.61 1.527 14.687 14.687 0 0 1 3.937 2.794 14.4 14.4 0 0 1 2.832 3.909 15.1 15.1 0 0 1 1.521 7.552 4.389 4.389 0 0 1-2.12 3.393 4.511 4.511 0 0 1-2.37.672 4.645 4.645 0 0 1-1.772-.355A4.4 4.4 0 0 1 34.19 63.8a4.312 4.312 0 0 1 1.062-3.943 16.2 16.2 0 0 1 4.559-3.406 12.2 12.2 0 0 0-.977-1.606 17.927 17.927 0 0 0-4.962 3.734 6.232 6.232 0 0 0-1.53 5.615 6.343 6.343 0 0 0 3.772 4.523 6.425 6.425 0 0 0 5.859-.455 6.264 6.264 0 0 0 3.014-4.853 17.163 17.163 0 0 0-1.554-8.177 15.43 15.43 0 0 1 2.942-.281 15.126 15.126 0 0 1 2.931.281 16.757 16.757 0 0 0-1.543 8.177 6.254 6.254 0 0 0 3.011 4.853 6.43 6.43 0 0 0 5.862.455 6.339 6.339 0 0 0 3.769-4.517 6.238 6.238 0 0 0-1.527-5.615 17.968 17.968 0 0 0-4.978-3.747 12.474 12.474 0 0 0-.982 1.612 16 16 0 0 1 4.582 3.408 4.326 4.326 0 0 1 1.061 3.942 4.4 4.4 0 0 1-2.651 3.186 4.636 4.636 0 0 1-1.772.355 4.518 4.518 0 0 1-2.37-.672 4.393 4.393 0 0 1-2.119-3.393 14.867 14.867 0 0 1 1.516-7.555 14.7 14.7 0 0 1 2.84-3.9 15.009 15.009 0 0 1 11.564-4.313 4.47 4.47 0 0 1 .526 8.833M55.718 48.1a17.208 17.208 0 0 0-5.472 5.414 17.489 17.489 0 0 0-7.744 0 16.381 16.381 0 0 0-2.424-3.025 16.871 16.871 0 0 0-3.038-2.382 16.59 16.59 0 0 0 .44-3.845 16.816 16.816 0 0 0-.435-3.834 17.142 17.142 0 0 0 3.046-2.4 16.765 16.765 0 0 0 2.424-3.011 17.5 17.5 0 0 0 7.747 0 16.27 16.27 0 0 0 2.424 3.025 16.779 16.779 0 0 0 3.038 2.382 16.958 16.958 0 0 0-.005 7.68" class="cls-1" transform="translate(-9.271 -7.38)"/>
</svg>
