<svg xmlns="http://www.w3.org/2000/svg" width="171.5" height="36.175" viewBox="0 0 171.5 36.175">
    <defs>
        <style>
            .cls-1{fill:#050a23}
        </style>
    </defs>
    <g id="Group_241" transform="translate(-16 -11)">
        <g id="Group_8" transform="translate(16 11)">
            <path id="Path_26" d="M30.766 22l.407.835.425-.83.051-.094c1.221-2.238 1.84-3.841 1.84-4.764a2.307 2.307 0 1 0-4.613 0c0 .923.62 2.526 1.841 4.764l.048.089m.417-6.234a1.371 1.371 0 0 1 1.381 1.381c0 .319-.143 1.29-1.381 3.67-1.238-2.379-1.381-3.35-1.381-3.67a1.371 1.371 0 0 1 1.381-1.381" class="cls-1" transform="translate(-12.985 -14.842)"/>
            <path id="Path_27" d="M31.18 26.982a2.307 2.307 0 1 0 2.307 2.306 2.308 2.308 0 0 0-2.307-2.306m0 3.687a1.381 1.381 0 1 1 1.381-1.381 1.383 1.383 0 0 1-1.381 1.381" class="cls-1" transform="translate(-12.986 -11.2)"/>
            <path id="Path_28" d="M37.132 24.406c1.682-.495 3.858-1.254 4.671-2.068a2.381 2.381 0 0 0 .674-1.487 2.315 2.315 0 0 0-2.448-2.451 2.387 2.387 0 0 0-1.488.674c-.652.653-1.347 2.224-2.067 4.67l-.029.1-.3.877.887-.285.1-.03m2.068-4.675a1.466 1.466 0 0 1 1-.41 1.321 1.321 0 0 1 .949.41 1.373 1.373 0 0 1 0 1.953c-.226.226-1.014.811-3.572 1.619.807-2.559 1.393-3.345 1.619-3.572" class="cls-1" transform="translate(-10.741 -13.745)"/>
            <path id="Path_29" d="M20.969 22.335c.653.653 2.224 1.348 4.671 2.067l.1.029.878.3-.287-.886c0-.016-.014-.051-.03-.1-.719-2.446-1.415-4.018-2.067-4.671a2.394 2.394 0 0 0-1.488-.674 2.315 2.315 0 0 0-2.449 2.449 2.387 2.387 0 0 0 .674 1.488m.656-2.607a1.306 1.306 0 0 1 .946-.41h.1a1.463 1.463 0 0 1 .9.406c.226.225.811 1.013 1.619 3.57-2.557-.807-3.345-1.393-3.57-1.619a1.456 1.456 0 0 1-.406-.9 1.3 1.3 0 0 1 .406-1.048" class="cls-1" transform="translate(-15.637 -13.746)"/>
            <path id="Path_30" d="M23.894 29.7l.834-.406-.827-.425-.094-.051c-1.539-.84-3.615-1.841-4.765-1.841a2.307 2.307 0 1 0 0 4.613c1.15 0 3.226-1 4.765-1.841l.088-.048m-4.853.963a1.38 1.38 0 1 1 0-2.76c.319 0 1.29.143 3.67 1.379-2.379 1.238-3.35 1.381-3.67 1.381" class="cls-1" transform="translate(-16.734 -11.201)"/>
            <path id="Path_31" d="M31.6 37.372l-.407-.835-.425.83-.051.093c-.84 1.539-1.841 3.615-1.841 4.765a2.307 2.307 0 1 0 4.613 0c0-.923-.619-2.525-1.84-4.764l-.048-.089m-.417 6.234a1.371 1.371 0 0 1-1.384-1.381c0-.319.143-1.29 1.381-3.67 1.238 2.381 1.379 3.35 1.379 3.67a1.371 1.371 0 0 1-1.379 1.381" class="cls-1" transform="translate(-12.987 -8.357)"/>
            <path id="Path_32" d="M25.637 34.574c-1.683.495-3.858 1.254-4.672 2.068a2.391 2.391 0 0 0-.674 1.488 2.32 2.32 0 0 0 2.277 2.454c.056 0 .114 0 .171-.007a2.38 2.38 0 0 0 1.488-.674c.653-.652 1.348-2.224 2.067-4.67l.029-.1.3-.877-.886.285-.1.03m-2.064 4.675a1.477 1.477 0 0 1-.9.406 1.39 1.39 0 0 1-1.458-1.452 1.463 1.463 0 0 1 .406-.9c.225-.226 1.013-.811 3.57-1.619-.806 2.559-1.393 3.345-1.618 3.572" class="cls-1" transform="translate(-15.638 -9.06)"/>
            <path id="Path_33" d="M37.126 34.582l-.1-.029-.878-.3.285.887.03.1c.495 1.682 1.254 3.858 2.068 4.671a2.384 2.384 0 0 0 1.488.674c.058 0 .115.007.171.007a2.252 2.252 0 0 0 1.6-.681 2.284 2.284 0 0 0 0-3.261c-.653-.653-2.225-1.349-4.671-2.068m4.015 4.675a1.373 1.373 0 0 1-1.953 0c-.225-.226-.811-1.014-1.619-3.572 2.559.807 3.345 1.393 3.572 1.619a1.47 1.47 0 0 1 .406.9 1.307 1.307 0 0 1-.406 1.05" class="cls-1" transform="translate(-10.739 -9.063)"/>
            <path id="Path_34" d="M44.118 26.984c-.924 0-2.527.619-4.765 1.841l-.089.048-.834.407.828.425.094.05c1.539.84 3.615 1.841 4.765 1.841a2.307 2.307 0 0 0 0-4.613m0 3.688c-.321 0-1.292-.143-3.671-1.381 2.379-1.238 3.35-1.381 3.671-1.381a1.381 1.381 0 0 1 0 2.761" class="cls-1" transform="translate(-10.035 -11.2)"/>
            <path id="Path_35" d="M43.213 37.468a2.27 2.27 0 0 1-.489.053 2.129 2.129 0 0 1-1.461-.57 7.725 7.725 0 0 1-1.691-2.225 5.908 5.908 0 0 0-.793.474 8.745 8.745 0 0 0 1.852 2.424 3.159 3.159 0 0 0 5.014-1.091 3.115 3.115 0 0 0-2.625-4.311 8.424 8.424 0 0 0-4.044.75 7.424 7.424 0 0 1 0-2.857 8.53 8.53 0 0 0 4.041.763 3.116 3.116 0 1 0-2.388-5.4 8.77 8.77 0 0 0-1.845 2.408 6.189 6.189 0 0 0 .8.477 7.781 7.781 0 0 1 1.68-2.215 2.205 2.205 0 1 1 1.691 3.816 7.549 7.549 0 0 1-3.731-.749 7.2 7.2 0 0 1-1.93-1.37 7.028 7.028 0 0 1-1.39-1.916 7.415 7.415 0 0 1-.746-3.7 2.154 2.154 0 0 1 1.042-1.668 2.215 2.215 0 0 1 1.162-.33 2.284 2.284 0 0 1 .87.174 2.163 2.163 0 0 1 1.3 1.562 2.117 2.117 0 0 1-.521 1.933 7.974 7.974 0 0 1-2.237 1.67 6.227 6.227 0 0 0 .48.788 8.784 8.784 0 0 0 2.433-1.831 3.054 3.054 0 0 0 .749-2.753 3.108 3.108 0 0 0-1.848-2.217 3.153 3.153 0 0 0-2.874.223 3.07 3.07 0 0 0-1.476 2.38A8.4 8.4 0 0 0 35 26.169a7.565 7.565 0 0 1-1.442.138 7.416 7.416 0 0 1-1.437-.138 8.21 8.21 0 0 0 .755-4.009 3.066 3.066 0 0 0-1.476-2.38 3.15 3.15 0 0 0-2.873-.223 3.11 3.11 0 0 0-1.849 2.217 3.054 3.054 0 0 0 .75 2.753 8.79 8.79 0 0 0 2.44 1.835 6.115 6.115 0 0 0 .482-.79A7.843 7.843 0 0 1 28.1 23.9a2.114 2.114 0 0 1-.521-1.933 2.16 2.16 0 0 1 1.3-1.562 2.274 2.274 0 0 1 .87-.174 2.211 2.211 0 0 1 1.161.33 2.152 2.152 0 0 1 1.04 1.663 7.273 7.273 0 0 1-.745 3.7 7.113 7.113 0 0 1-1.395 1.916 7.354 7.354 0 0 1-5.668 2.115 2.191 2.191 0 0 1-.258-4.331 2.252 2.252 0 0 1 .489-.053 2.126 2.126 0 0 1 1.459.57 8.013 8.013 0 0 1 1.692 2.226 6.184 6.184 0 0 0 .793-.475 8.747 8.747 0 0 0-1.853-2.424 3.158 3.158 0 0 0-5.013 1.09 3.115 3.115 0 0 0 2.624 4.313 8.438 8.438 0 0 0 4.045-.749 7.417 7.417 0 0 1 0 2.856 8.572 8.572 0 0 0-4.041-.764 3.107 3.107 0 0 0-2.4 1.465 3.076 3.076 0 0 0-.224 2.848 3.157 3.157 0 0 0 5.013 1.09 8.746 8.746 0 0 0 1.847-2.408 6.19 6.19 0 0 0-.8-.477 7.783 7.783 0 0 1-1.682 2.215 2.2 2.2 0 1 1-1.69-3.816 7.553 7.553 0 0 1 3.731.749 7.2 7.2 0 0 1 1.93 1.37 7.058 7.058 0 0 1 1.389 1.916 7.406 7.406 0 0 1 .747 3.7 2.152 2.152 0 0 1-1.04 1.663 2.212 2.212 0 0 1-1.162.33 2.278 2.278 0 0 1-.869-.174 2.157 2.157 0 0 1-1.3-1.562 2.114 2.114 0 0 1 .521-1.933 7.94 7.94 0 0 1 2.235-1.67 5.984 5.984 0 0 0-.479-.788 8.789 8.789 0 0 0-2.433 1.831 3.055 3.055 0 0 0-.75 2.753 3.11 3.11 0 0 0 1.849 2.217 3.15 3.15 0 0 0 2.873-.223 3.071 3.071 0 0 0 1.478-2.38 8.415 8.415 0 0 0-.762-4.009 7.565 7.565 0 0 1 1.442-.138 7.416 7.416 0 0 1 1.437.138 8.215 8.215 0 0 0-.756 4.009 3.066 3.066 0 0 0 1.476 2.38 3.153 3.153 0 0 0 2.874.223 3.108 3.108 0 0 0 1.848-2.217 3.058 3.058 0 0 0-.749-2.753 8.81 8.81 0 0 0-2.44-1.835 6.116 6.116 0 0 0-.482.79A7.843 7.843 0 0 1 39 39.191a2.121 2.121 0 0 1 .521 1.933 2.159 2.159 0 0 1-1.3 1.562 2.273 2.273 0 0 1-.869.174 2.215 2.215 0 0 1-1.162-.33 2.154 2.154 0 0 1-1.039-1.663 7.289 7.289 0 0 1 .743-3.7 7.206 7.206 0 0 1 1.393-1.911 7.359 7.359 0 0 1 5.67-2.115 2.192 2.192 0 0 1 .258 4.331m-5.087-4.042a8.437 8.437 0 0 0-2.683 2.655 8.575 8.575 0 0 0-3.8 0 8.032 8.032 0 0 0-1.187-1.485 8.271 8.271 0 0 0-1.489-1.168 8.134 8.134 0 0 0 .216-1.885 8.244 8.244 0 0 0-.213-1.88 8.4 8.4 0 0 0 1.493-1.178 8.219 8.219 0 0 0 1.188-1.476 8.58 8.58 0 0 0 3.8 0 7.977 7.977 0 0 0 1.188 1.483 8.226 8.226 0 0 0 1.489 1.168 8.314 8.314 0 0 0 0 3.765" class="cls-1" transform="translate(-15.354 -13.462)"/>
        </g>
        <g id="Group_240" transform="translate(0 -.873)">
            <g id="Group_7" transform="translate(59.176 16.873)">
                <g id="Group_1" transform="translate(0 .01)">
                    <path id="Path_1" d="M55.942 42.445a.979.979 0 0 0 .859-.467h4.507v.21a1.637 1.637 0 0 0 1.568-.246v-5.9a.459.459 0 0 0-.342-.423c-.2-.059-1.226-.249-1.226-.249v.756h-4.2v-.084a.456.456 0 0 0-.344-.423c-.193-.059-1.223-.249-1.223-.249v5.285c0 .655-.112.941-.112 1.234a.521.521 0 0 0 .515.551m1.128-1.268a3.216 3.216 0 0 0 .036-.476V39.4h4.2v1.772zm4.238-2.57h-4.2V36.95h4.2z" class="cls-1" transform="translate(-49.162 -35.374)"/>
                    <path id="Path_2" d="M58.239 43.772a.059.059 0 0 0-.073-.09c-.381.216-.806.431-1.251.641v-4.115H58.3s.235-.532.316-.722c.07-.165.008-.252-.1-.252s-.291.154-.434.154h-1.167v-3.334a.391.391 0 0 0-.344-.42c-.269-.064-1.226-.249-1.226-.249v4h-1.954a1.041 1.041 0 0 0 .434.82h1.52v4.778a18.738 18.738 0 0 1-2.155.689 2.188 2.188 0 0 0 .523 1.03.434.434 0 0 0 .535.1c.375-.21.742-.437 1.1-.669v4.337a3.933 3.933 0 0 0-.929.02.057.057 0 0 0-.014.109.633.633 0 0 1 .451.585c0 .221-.081.277-.081.585s.372.577.761.577c.787 0 1.383-.725 1.383-1.744v-5.613a13.721 13.721 0 0 0 1.324-1.218" class="cls-1" transform="translate(-53.189 -35.354)"/>
                    <path id="Path_3" d="M65.545 38c-.112 0-.294.157-.437.157h-9.319a1.057 1.057 0 0 0 .434.82h1.391a15.065 15.065 0 0 1-2.9 4.034.057.057 0 0 0 .059.1 8.355 8.355 0 0 0 2.627-1.787h1.066a11.747 11.747 0 0 1-3.642 4.426.057.057 0 0 0 .053.1 10.481 10.481 0 0 0 5.232-4.526h1.021c-.627 2.186-2.508 4.33-5.26 6.077a.057.057 0 0 0 .045.1 9.687 9.687 0 0 0 6.844-6.181h.8c-.042 1.481-.288 3.883-1.526 4.857a1.133 1.133 0 0 0-.35-.537.057.057 0 0 0-.1.034.848.848 0 0 1-.328.551.8.8 0 0 0-.437.809.774.774 0 0 0 .834.563 2.92 2.92 0 0 0 1.926-1.03c1.31-1.332 1.467-4.092 1.481-6.136a.455.455 0 0 0-.341-.423c-.188-.062-.946-.21-1.162-.249v.764h-5.421a10.972 10.972 0 0 0 1.072-1.545h6.122s.235-.535.316-.725c.07-.165.008-.252-.1-.252" class="cls-1" transform="translate(-50.476 -30.647)"/>
                </g>
                <g id="Group_2" transform="translate(113.377 .237)">
                    <path id="Path_4" d="M108.182 37.441a.423.423 0 0 0-.33-.4c-.213-.07-1.173-.241-1.173-.241v.635h-2.5a.452.452 0 0 0-.341-.381c-.213-.067-1.243-.255-1.243-.255v5.176c0 3.8-.442 6.48-.966 7.5a.059.059 0 0 0 .084.076c1.26-.817 2.141-2.948 2.391-5.87h2.573v.364a1.587 1.587 0 0 0 1.5-.238zm-4.025 5.419c.011-.291.028-.579.028-.885l.006-3.723h2.489v4.608z" class="cls-1" transform="translate(-101.625 -33.04)"/>
                    <path id="Path_5" d="M102.171 36.594h5.946s.23-.521.308-.705c.067-.16.008-.246-.1-.246s-.286.151-.426.151h-6.153a.929.929 0 0 0 .426.8" class="cls-1" transform="translate(-101.408 -35.119)"/>
                    <path id="Path_6" d="M112.634 41.429c-.106 0-.286.151-.423.151h-4.924v-3.869a11.42 11.42 0 0 0 4.529-.753.444.444 0 0 0 .246-.649c-.3-.462-.574-.854-.574-.854a20.126 20.126 0 0 1-4.2 1.805V37a.448.448 0 0 0-.347-.428c-.216-.062-1.246-.252-1.246-.252v8.18a14.128 14.128 0 0 1-1.948 7.39.058.058 0 0 0 .081.078c1.565-.969 3.457-3.673 3.457-7.466V42.38h2.13v9.727a1.585 1.585 0 0 0 1.5-.238V42.38h1.506s.23-.521.308-.705c.067-.16.008-.246-.1-.246" class="cls-1" transform="translate(-97.816 -35.455)"/>
                </g>
                <g id="Group_3" transform="translate(22.713 .01)">
                    <path id="Path_7" d="M65.649 44.571a6.536 6.536 0 0 0 2.489-2.206c.148.171.263.316.336.417.3.42.837.845 1.262.537.451-.33.23-1.232-.507-1.682-.162-.1-.347-.2-.543-.3a7.862 7.862 0 0 0 .529-1.934h.764v1.2c0 2.141.7 3.807 2.424 3.807a.719.719 0 0 0 .715-.41.7.7 0 0 0-.263-.865c-.148-.109-.484-.1-.434-.526 0-.048-.064-.064-.092-.028a1.115 1.115 0 0 0-.252.56c-.481-.277-.714-.873-.714-2.645v-2.162a.378.378 0 0 0-.305-.369c-.188-.048-1.081-.221-1.081-.221v.848H69.3c.039-.532.045-1.025.042-1.444a.449.449 0 0 0-.342-.42c-.21-.064-1.145-.232-1.145-.232v.277c0 .445.039 1.075.014 1.819h-1.632a.944.944 0 0 0 .428.812h1.151a9.766 9.766 0 0 1-.258 1.458c-.369-.134-.756-.26-1.173-.367a.058.058 0 0 0-.05.1 10.209 10.209 0 0 1 1.024.924 8.336 8.336 0 0 1-1.775 2.962.056.056 0 0 0 .064.09" class="cls-1" transform="translate(-58.058 -33.357)"/>
                    <path id="Path_8" d="M77.886 36.309c-.109 0-.285.151-.425.151h-3.668v-.389a.437.437 0 0 0-.358-.437c-.252-.084-1.276-.26-1.276-.26v1.086h-3.466v-.389a.437.437 0 0 0-.358-.437c-.249-.084-1.274-.26-1.274-.26v1.086h-4.134a.932.932 0 0 0 .423.8h3.712v.834c-.347-.07-.787-.151-.787-.151v1.265h-2.254a.925.925 0 0 0 .423.8h1.831v1.251h-3.292a.944.944 0 0 0 .428.812H64.8a9.772 9.772 0 0 1-1.9 2.623.057.057 0 0 0 .062.092 6.6 6.6 0 0 0 3.27-2.715h1.831A2.642 2.642 0 0 0 68.7 43.7a.734.734 0 0 1-.272.1H67.6v-.638a.387.387 0 0 0-.291-.356c-.162-.053-1.033-.213-1.033-.213V43.8h-1.362a.9.9 0 0 0 .409.77h.955v1.26a22.229 22.229 0 0 1-3.174.081 3.342 3.342 0 0 0 .445 1.12.434.434 0 0 0 .409.185 23.392 23.392 0 0 0 6.121-1.716.059.059 0 0 0-.036-.109c-.507.081-1.416.2-2.441.311v-1.13h1.033s.185-.42.274-.627a2.52 2.52 0 0 0 1.713.8.6.6 0 0 0 .529-.314.6.6 0 0 0-.249-.775A.681.681 0 0 1 70.5 43c0-.05-.073-.059-.1-.02a1.086 1.086 0 0 0-.23.523 1.544 1.544 0 0 1-.843-1.436h1.257s.235-.526.314-.717c.07-.162.008-.249-.1-.249s-.291.154-.431.154h-2.6V40h2.15s.23-.521.308-.705c.067-.16.008-.244-.1-.244s-.286.151-.425.151h-1.939v-.63a.37.37 0 0 0-.1-.246 1.377 1.377 0 0 0 1.027-.355v-.717h3.465v.974a1.72 1.72 0 0 0 1.635-.258v-.717h3.883s.23-.521.308-.705c.067-.16.008-.244-.1-.244" class="cls-1" transform="translate(-62.885 -35.374)"/>
                    <path id="Path_9" d="M64.76 40.379h6.477s.235-.535.316-.725c.07-.165.008-.252-.1-.252s-.294.157-.437.157h-6.69a.951.951 0 0 0 .434.82" class="cls-1" transform="translate(-60.293 -28.127)"/>
                    <path id="Path_10" d="M77.854 40.02c-.109 0-.291.157-.434.157H62.9a.957.957 0 0 0 .434.82H67.1a7.478 7.478 0 0 1-.655 1.682c-1 .006-1.971-.006-2.844-.036a3.886 3.886 0 0 0 .473 1.209.448.448 0 0 0 .392.193 33.871 33.871 0 0 0 10.038-1.411 7.662 7.662 0 0 1 .591.745c.341.49.9.957 1.358.568.423-.361.42-1.2-.411-1.733a10.092 10.092 0 0 0-3.088-1.044c-.059-.011-.1.067-.045.1a8.748 8.748 0 0 1 1.321 1.078c-2 .165-4.546.291-6.959.325A7.005 7.005 0 0 0 68.778 41h8.862s.235-.535.316-.725c.07-.162.008-.252-.1-.252" class="cls-1" transform="translate(-62.858 -27.015)"/>
                </g>
                <g id="Group_4" transform="translate(45.346)">
                    <path id="Path_11" d="M75.264 37.234a.766.766 0 0 0 1.053.4c.367-.28.358-.994-.378-1.444a8.559 8.559 0 0 0-2.181-.82.055.055 0 0 0-.05.1 5.766 5.766 0 0 1 1.556 1.766" class="cls-1" transform="translate(-70.522 -35.37)"/>
                    <path id="Path_12" d="M80.657 47.469l.006-.017h6.332s.235-.537.316-.728c.07-.165.008-.252-.1-.252s-.3.157-.439.157h-5.927a7.412 7.412 0 0 0 .106-1.243v-.963h6.4s.23-.521.308-.708c.07-.16.011-.246-.1-.246s-.288.154-.425.154h-6.183v-2.04h4.563s.235-.532.313-.722c.07-.165.011-.252-.1-.252s-.291.157-.434.157h-4.342v-1.99h5.736s.235-.532.316-.722c.07-.162.008-.249-.1-.249s-.294.154-.434.154h-4.457a5.675 5.675 0 0 0 1.848-1.38.443.443 0 0 0-.1-.652 9.476 9.476 0 0 0-1.111-.554 8.76 8.76 0 0 1-1.321 2.586h-8.063a.95.95 0 0 0 .431.817h5.5v1.99h-4.8a.953.953 0 0 0 .431.817h4.37v2.041h-6.641a.933.933 0 0 0 .426.8h6.212v.963a7.3 7.3 0 0 1-.109 1.243H72.92a.958.958 0 0 0 .437.823h5.526c-.649 1.985-2.435 3.687-6.284 4.8a.059.059 0 0 0 .02.115c4.28-.274 6.934-1.92 7.905-4.518a7.931 7.931 0 0 0 6.307 4.563c.188.025.319-.073.437-.269s.481-1.237.481-1.237a9.68 9.68 0 0 1-7.09-3.432" class="cls-1" transform="translate(-72.556 -35.369)"/>
                </g>
                <g id="Group_5" transform="translate(68.049 .139)">
                    <path id="Path_13" d="M96.673 41.955c-.112 0-.3.157-.439.157h-5.775v-.557a11.009 11.009 0 0 0 2.612-2.035.432.432 0 0 0-.238-.714c-.322-.059-.658-.106-1.067-.16-.028.084-.067.182-.112.286h-5.892a.95.95 0 0 0 .431.817h5.053a12.228 12.228 0 0 1-.8 1.24.454.454 0 0 0-.328-.336c-.2-.053-1.223-.249-1.223-.249v1.708h-6.512a.963.963 0 0 0 .437.826h6.072v1.722a5.431 5.431 0 0 0-1.094.02.057.057 0 0 0-.014.109c.216.09.666.26.666.585 0 .224-.078.277-.078.585a.671.671 0 0 0 .705.579c.787 0 1.383-.728 1.383-1.747v-1.854h6s.235-.537.316-.728c.07-.165.008-.255-.1-.255" class="cls-1" transform="translate(-82.008 -29.616)"/>
                    <path id="Path_14" d="M84.162 39.359a.058.058 0 0 0 .056.1 7.428 7.428 0 0 0 2.382-1.444l.045.076c.314.579.644.932 1 .781.7-.3.381-1.131-.213-1.632a10.329 10.329 0 0 0 .753-.868.31.31 0 0 0-.115-.484l-.938-.467a6.19 6.19 0 0 1-.613 1.215 11.329 11.329 0 0 0-1.268-.6.057.057 0 0 0-.064.092 13.03 13.03 0 0 1 .913 1.112 14.782 14.782 0 0 1-1.94 2.119" class="cls-1" transform="translate(-78.841 -35.42)"/>
                    <path id="Path_15" d="M86.921 37.819a11.457 11.457 0 0 0-1.335-.577.057.057 0 0 0-.059.1c.364.375.647.694.879.985a9.492 9.492 0 0 1-2.267 1.422.057.057 0 0 0 .028.109 6.982 6.982 0 0 0 2.721-.876c.059.092.12.185.171.269.336.565.68.9 1.027.739.689-.325.336-1.142-.274-1.621a4.509 4.509 0 0 0 .747-.728.321.321 0 0 0-.112-.481l-.789-.406a4.608 4.608 0 0 1-.736 1.069" class="cls-1" transform="translate(-78.91 -33.027)"/>
                    <path id="Path_16" d="M97.06 42.181a8.624 8.624 0 0 0-1.131-.146c-.022.244-.048.465-.07.683h-.252v-6.451a.428.428 0 0 0-.35-.425c-.241-.081-1.176-.252-1.176-.252v.339h-1.9a.95.95 0 0 0 .431.817h1.47v1.528h-1.9a.953.953 0 0 0 .431.817h1.47v1.422h-1.9a.934.934 0 0 0 .425.8h1.475v1.4h-8.329v-1.402h1.582s.23-.521.308-.705c.067-.162.008-.246-.1-.246s-.285.151-.425.151h-1.365v-1.344h1.582s.23-.521.308-.705c.067-.16.008-.246-.1-.246s-.285.154-.425.154h-1.365v-1.518a4.019 4.019 0 0 0 1.727-.193.427.427 0 0 0 .249-.585l-.3-.635a7.475 7.475 0 0 1-1.8.887.567.567 0 0 0-.23-.134c-.241-.081-1.176-.252-1.176-.252v6.78h-.313c-.006-.328-.017-.635-.028-.885a.059.059 0 0 0-.118-.008c-.683 2.363-1.52 2.8-1.52 3.745 0 .529.3.759.677.759a1.107 1.107 0 0 0 .932-1.078c.048-.428.064-1.072.064-1.722h11.84a9.693 9.693 0 0 1-.736 2.878.054.054 0 0 0 .084.062 9.567 9.567 0 0 0 2.287-3.748.41.41 0 0 0-.333-.54" class="cls-1" transform="translate(-82.249 -35.388)"/>
                </g>
                <g id="Group_6" transform="translate(90.731 .248)">
                    <path id="Path_17" d="M97.162 39.367c-.2-.053-1.137-.232-1.137-.232v.571h-2.36a.407.407 0 0 0-.322-.383c-.2-.05-1.153-.235-1.153-.235v4.982c0 .619-.1.885-.1 1.164a.489.489 0 0 0 .484.518 1.033 1.033 0 0 0 1-.89h2.452v.6a1.537 1.537 0 0 0 1.456-.23v-5.476a.4.4 0 0 0-.319-.389m-3.493 1.142h2.357v3.533h-2.358z" class="cls-1" transform="translate(-91.662 -28.931)"/>
                    <path id="Path_18" d="M92.5 36.529h4.77s.23-.521.308-.705c.067-.162.008-.246-.1-.246s-.285.151-.423.151h-4.982a.93.93 0 0 0 .423.8" class="cls-1" transform="translate(-91.687 -35.247)"/>
                    <path id="Path_19" d="M97.472 37.411c-.109 0-.291.157-.434.157h-4.966a.956.956 0 0 0 .434.817h4.753s.235-.532.316-.722c.067-.165.008-.252-.1-.252" class="cls-1" transform="translate(-91.689 -31.947)"/>
                    <path id="Path_20" d="M97.437 38.339c-.109 0-.285.151-.423.151h-4.935a.93.93 0 0 0 .423.795h4.725s.23-.518.308-.7c.067-.16.008-.244-.1-.244" class="cls-1" transform="translate(-91.676 -30.277)"/>
                    <path id="Path_21" d="M98.144 37.448s.23-.521.308-.708c.07-.16.011-.246-.1-.246s-.286.154-.425.154h-5.992a.933.933 0 0 0 .423.8z" class="cls-1" transform="translate(-91.935 -33.599)"/>
                    <path id="Path_22" d="M98.618 36.738c.045-.1.1-.2.134-.288a.429.429 0 0 0-.224-.56c-.574-.249-1.08-.431-1.08-.431-1.234 3.4-2.287 5.167-3.331 6.088-.048.039.017.115.07.084a11.744 11.744 0 0 0 4.277-4.574A12.762 12.762 0 0 0 102 41.119a.457.457 0 0 0 .6-.084 4.5 4.5 0 0 0 .616-.851 17.024 17.024 0 0 1-4.6-3.446" class="cls-1" transform="translate(-88.04 -35.459)"/>
                    <path id="Path_23" d="M99.256 38.426a.4.4 0 0 0-.087-.574 9.685 9.685 0 0 0-.935-.624 16.267 16.267 0 0 1-3.869 4.817.057.057 0 0 0 .053.1c1.764-.47 3.824-2.452 4.837-3.717" class="cls-1" transform="translate(-87.6 -32.276)"/>
                    <path id="Path_24" d="M94.458 43.889a.057.057 0 0 0 .048.1c2.687-.652 5.022-2.959 6.287-4.748a.4.4 0 0 0-.087-.549 9.857 9.857 0 0 0-.848-.613 23.587 23.587 0 0 1-5.4 5.808" class="cls-1" transform="translate(-87.437 -30.741)"/>
                    <path id="Path_25" d="M100.845 39.184a16.315 16.315 0 0 1-6.41 6.072.058.058 0 0 0 .025.112 10.746 10.746 0 0 0 7.454-5.064.353.353 0 0 0-.1-.467c-.375-.26-.624-.448-.969-.652" class="cls-1" transform="translate(-87.504 -28.757)"/>
                </g>
            </g>
            <g id="Group_239" transform="translate(-66 -5885)">
                <path id="Path_36" d="M53.716 18.383c0-.945 0-1.12-.012-1.319s-.062-.311-.268-.354a1.262 1.262 0 0 0-.243-.019c-.068 0-.105-.013-.105-.056s.044-.056.137-.056c.169 0 .349.006.5.006s.305.013.392.013c.2 0 1.437 0 1.556-.006a2.443 2.443 0 0 0 .267-.038.612.612 0 0 1 .1-.024c.031 0 .037.024.037.056a3.954 3.954 0 0 0-.05.4c-.006.062-.019.336-.031.411-.006.031-.019.068-.062.068s-.056-.031-.056-.087a.666.666 0 0 0-.037-.224c-.044-.112-.106-.186-.417-.224-.105-.012-.759-.024-.883-.024-.031 0-.044.019-.044.062v1.573c0 .044.006.069.044.069.137 0 .852 0 .995-.013s.243-.031.3-.094.068-.081.1-.081.044.013.044.05-.024.137-.05.454c-.006.124-.025.374-.025.417s0 .118-.056.118a.049.049 0 0 1-.056-.056 1.752 1.752 0 0 0-.025-.224c-.031-.124-.118-.218-.348-.242-.118-.013-.734-.019-.884-.019-.031 0-.037.025-.037.062v.492c0 .212-.006.784 0 .965.013.429.112.523.746.523a1.572 1.572 0 0 0 .585-.075c.162-.074.236-.2.28-.46.013-.068.024-.094.068-.094s.05.05.05.112a4.851 4.851 0 0 1-.081.691c-.043.162-.1.162-.336.162-.467 0-.809-.013-1.077-.019s-.46-.019-.647-.019c-.068 0-.2 0-.355.006s-.3.013-.429.013c-.081 0-.124-.019-.124-.062s.024-.05.1-.05a1.056 1.056 0 0 0 .223-.024c.125-.025.156-.162.18-.342.031-.261.031-.753.031-1.325z" class="cls-1" transform="translate(73.03 5907.467)"/>
                <path id="Path_37" d="M59.672 19.488c0 .8 0 1.226.131 1.338.105.093.267.137.753.137.33 0 .572-.007.728-.175a.777.777 0 0 0 .162-.374c.006-.056.019-.093.068-.093s.05.031.05.105a5.011 5.011 0 0 1-.093.716c-.038.137-.069.168-.392.168-.449 0-.771-.013-1.051-.019s-.5-.019-.759-.019c-.069 0-.206 0-.355.006s-.305.013-.429.013c-.081 0-.125-.019-.125-.062s.025-.05.1-.05a1.058 1.058 0 0 0 .224-.024c.125-.025.155-.162.18-.342.031-.261.031-.753.031-1.325v-1.1c0-.945 0-1.12-.013-1.319s-.062-.311-.267-.354a.916.916 0 0 0-.206-.019c-.068 0-.105-.013-.105-.056s.044-.056.137-.056c.293 0 .685.019.852.019.149 0 .6-.019.846-.019.087 0 .13.013.13.056s-.037.056-.111.056a1.619 1.619 0 0 0-.243.019c-.168.031-.218.137-.23.354-.013.2-.013.374-.013 1.319z" class="cls-1" transform="translate(72.212 5907.457)"/>
                <path id="Path_38" d="M63.875 18.392c0-.945 0-1.12-.013-1.319s-.074-.317-.211-.348a.893.893 0 0 0-.224-.024c-.062 0-.1-.013-.1-.062s.05-.05.149-.05c.236 0 .628.019.809.019.156 0 .523-.019.759-.019.081 0 .131.013.131.05s-.037.062-.1.062a1.023 1.023 0 0 0-.186.019c-.168.031-.218.137-.23.354-.013.2-.013.374-.013 1.319v1.1c0 .6 0 1.1.025 1.362.019.168.062.28.249.305a2.744 2.744 0 0 0 .317.024c.068 0 .1.019.1.05s-.05.062-.118.062c-.411 0-.8-.019-.97-.019-.143 0-.535.019-.784.019-.081 0-.124-.019-.124-.062s.024-.05.1-.05a1.056 1.056 0 0 0 .223-.024c.125-.025.162-.131.18-.311.031-.261.031-.753.031-1.357z" class="cls-1" transform="translate(71.423 5907.457)"/>
                <path id="Path_39" d="M68.474 16.921l-.927.025c-.361.012-.51.043-.6.18a.707.707 0 0 0-.105.218c-.013.05-.031.074-.068.074s-.056-.031-.056-.1c0-.1.118-.665.131-.715.019-.081.037-.119.075-.119a1.43 1.43 0 0 0 .267.075c.18.019.417.031.622.031h2.464a2.95 2.95 0 0 0 .429-.031 1.491 1.491 0 0 1 .168-.031c.044 0 .05.037.05.131 0 .131-.019.56-.019.722-.006.062-.019.1-.056.1s-.062-.031-.068-.125l-.006-.068c-.013-.161-.18-.336-.734-.348l-.783-.019v2.55c0 .572 0 1.064.031 1.331.019.175.056.311.242.336a2.773 2.773 0 0 0 .318.024c.068 0 .1.019.1.05s-.05.062-.119.062c-.411 0-.8-.019-.976-.019-.143 0-.535.019-.784.019-.081 0-.124-.019-.124-.062s.024-.05.1-.05a1.056 1.056 0 0 0 .223-.024c.125-.025.162-.162.18-.342.031-.261.031-.753.031-1.325z" class="cls-1" transform="translate(70.892 5907.474)"/>
                <path id="Path_40" d="M73.451 18.383c0-.945 0-1.12-.013-1.319s-.062-.311-.267-.354a1.262 1.262 0 0 0-.243-.019c-.068 0-.105-.013-.105-.056s.043-.056.137-.056c.168 0 .348.006.5.006s.3.013.392.013c.2 0 1.437 0 1.555-.006a2.411 2.411 0 0 0 .267-.038.621.621 0 0 1 .1-.024c.031 0 .037.024.037.056a3.954 3.954 0 0 0-.05.4c-.007.062-.019.336-.031.411-.006.031-.019.068-.062.068s-.056-.031-.056-.087a.67.67 0 0 0-.038-.224c-.043-.112-.105-.186-.416-.224-.105-.012-.759-.024-.884-.024-.031 0-.043.019-.043.062v1.573c0 .044.006.069.043.069.137 0 .852 0 1-.013s.243-.031.3-.094.068-.081.1-.081.044.013.044.05-.025.137-.05.454c-.007.124-.025.374-.025.417s0 .118-.056.118a.049.049 0 0 1-.056-.056 1.6 1.6 0 0 0-.024-.224c-.031-.124-.118-.218-.348-.242-.118-.013-.734-.019-.884-.019-.031 0-.037.025-.037.062v.492c0 .212-.007.784 0 .965.012.429.112.523.746.523a1.572 1.572 0 0 0 .585-.075c.162-.074.236-.2.28-.46.012-.068.024-.094.068-.094s.05.05.05.112a4.853 4.853 0 0 1-.081.691c-.044.162-.1.162-.336.162-.467 0-.809-.013-1.077-.019s-.46-.019-.647-.019c-.068 0-.206 0-.355.006s-.3.013-.429.013c-.081 0-.124-.019-.124-.062s.024-.05.1-.05a1.056 1.056 0 0 0 .223-.024c.125-.025.156-.162.18-.342.031-.261.031-.753.031-1.325z" class="cls-1" transform="translate(69.934 5907.467)"/>
                <path id="Path_41" d="M81.447 19.689c-.031 0-.044.013-.056.05l-.336.852a1.21 1.21 0 0 0-.094.379c0 .112.056.193.25.193h.089c.075 0 .094.013.094.05s-.037.062-.106.062c-.2 0-.466-.019-.659-.019-.068 0-.411.019-.734.019-.081 0-.119-.013-.119-.062s.025-.05.075-.05a1.753 1.753 0 0 0 .193-.013c.286-.037.4-.249.529-.56l1.561-3.856c.074-.18.112-.25.175-.25s.093.056.155.2c.149.341 1.145 2.83 1.543 3.775.236.56.417.648.547.679a1.37 1.37 0 0 0 .261.024c.05 0 .081.007.081.05s-.056.062-.286.062-.679 0-1.176-.013c-.112-.006-.186-.006-.186-.05s.024-.05.087-.056a.1.1 0 0 0 .056-.143l-.5-1.282a.06.06 0 0 0-.062-.044zm1.269-.311c.031 0 .037-.019.031-.037l-.56-1.53c-.006-.024-.013-.056-.031-.056s-.031.031-.037.056l-.572 1.524c-.006.024 0 .043.024.043z" class="cls-1" transform="translate(68.843 5907.474)"/>
                <path id="Path_42" d="M87.018 18.383c0-.945 0-1.12-.012-1.319s-.062-.311-.268-.354a1.258 1.258 0 0 0-.242-.019c-.069 0-.106-.013-.106-.056s.044-.056.137-.056c.168 0 .348.006.5.006s.305.013.392.013c.2 0 1.437 0 1.555-.006a2.434 2.434 0 0 0 .268-.038.612.612 0 0 1 .1-.024c.031 0 .037.024.037.056a3.953 3.953 0 0 0-.05.4c-.006.062-.019.336-.031.411-.006.031-.019.068-.062.068s-.056-.031-.056-.087a.666.666 0 0 0-.037-.224c-.044-.112-.106-.186-.417-.224-.105-.012-.759-.024-.883-.024-.031 0-.044.019-.044.062v1.573c0 .044.006.069.044.069.137 0 .852 0 .995-.013s.243-.031.3-.094.068-.081.1-.081.044.013.044.05-.025.137-.05.454c-.006.124-.025.374-.025.417s0 .118-.056.118a.049.049 0 0 1-.056-.056 1.752 1.752 0 0 0-.025-.224c-.031-.124-.118-.218-.348-.242-.118-.013-.734-.019-.884-.019-.031 0-.037.025-.037.062v.492c0 .212-.007.784 0 .965.013.429.112.523.746.523a1.572 1.572 0 0 0 .585-.075c.162-.074.236-.2.28-.46.013-.068.024-.094.068-.094s.05.05.05.112a4.851 4.851 0 0 1-.081.691c-.044.162-.1.162-.336.162-.467 0-.809-.013-1.077-.019s-.46-.019-.647-.019c-.068 0-.206 0-.355.006s-.3.013-.429.013c-.081 0-.124-.019-.124-.062s.024-.05.1-.05a1.056 1.056 0 0 0 .223-.024c.125-.025.156-.162.18-.342.031-.261.031-.753.031-1.325z" class="cls-1" transform="translate(67.805 5907.467)"/>
                <path id="Path_43" d="M91.879 21.2c-.1-.043-.118-.074-.118-.211 0-.342.024-.716.031-.815s.024-.162.074-.162.062.056.062.106a1.351 1.351 0 0 0 .056.317.858.858 0 0 0 .889.628.756.756 0 0 0 .834-.709c0-.305-.094-.591-.61-1l-.286-.223a1.847 1.847 0 0 1-.921-1.475c0-.685.572-1.176 1.437-1.176a2.985 2.985 0 0 1 .827.106c.056.013.088.031.088.074 0 .081-.025.261-.025.747 0 .137-.019.186-.068.186s-.062-.037-.062-.111a.758.758 0 0 0-.161-.411.79.79 0 0 0-.679-.3.655.655 0 0 0-.74.641c0 .286.143.5.659.9l.175.13c.753.567 1.02 1 1.02 1.587a1.253 1.253 0 0 1-.585 1.083 1.8 1.8 0 0 1-.989.255 2.143 2.143 0 0 1-.908-.167z" class="cls-1" transform="translate(66.963 5907.474)"/>
                <path id="Path_44" d="M97.763 16.921l-.927.025c-.361.012-.51.043-.6.18a.735.735 0 0 0-.106.218c-.013.05-.031.074-.068.074s-.056-.031-.056-.1c0-.1.118-.665.131-.715.019-.081.037-.119.074-.119a1.452 1.452 0 0 0 .267.075c.18.019.417.031.622.031h2.464a2.94 2.94 0 0 0 .429-.031 1.565 1.565 0 0 1 .168-.031c.044 0 .05.037.05.131 0 .131-.019.56-.019.722-.006.062-.019.1-.056.1s-.062-.031-.068-.125l-.007-.068c-.012-.161-.18-.336-.734-.348l-.784-.019v2.55c0 .572 0 1.064.031 1.331.019.175.056.311.243.336a2.744 2.744 0 0 0 .317.024c.068 0 .1.019.1.05s-.05.062-.118.062c-.411 0-.8-.019-.977-.019-.142 0-.535.019-.783.019-.081 0-.125-.019-.125-.062s.025-.05.1-.05a1.065 1.065 0 0 0 .224-.024c.124-.025.162-.162.18-.342.031-.261.031-.753.031-1.325z" class="cls-1" transform="translate(66.297 5907.474)"/>
                <path id="Path_45" d="M105.931 18.567a.038.038 0 0 0 .037-.043v-.132c0-.945 0-1.12-.013-1.319s-.062-.311-.267-.354a1.268 1.268 0 0 0-.243-.019c-.068 0-.105-.013-.105-.056s.043-.056.131-.056c.336 0 .728.019.9.019.149 0 .541-.019.784-.019.087 0 .131.013.131.056s-.038.056-.112.056a1.077 1.077 0 0 0-.18.019c-.168.031-.218.137-.23.354-.013.2-.013.374-.013 1.319v1.1c0 .572 0 1.064.031 1.331.019.175.056.311.243.336a2.744 2.744 0 0 0 .317.024c.068 0 .1.019.1.05s-.05.062-.124.062c-.4 0-.8-.019-.97-.019-.143 0-.535.019-.778.019-.087 0-.131-.019-.131-.062s.025-.05.1-.05a1.058 1.058 0 0 0 .224-.024c.125-.025.156-.162.18-.342.031-.261.031-.753.031-1.325v-.552a.035.035 0 0 0-.037-.037h-2.377a.032.032 0 0 0-.037.037v.547c0 .572 0 1.064.031 1.331.019.175.056.311.242.336a2.774 2.774 0 0 0 .318.024c.068 0 .1.019.1.05s-.05.062-.125.062c-.4 0-.8-.019-.97-.019-.143 0-.535.019-.783.019-.081 0-.125-.019-.125-.062s.024-.05.1-.05a1.065 1.065 0 0 0 .224-.024c.124-.025.155-.162.18-.342.03-.261.03-.753.03-1.325v-1.1c0-.945 0-1.12-.012-1.319s-.062-.311-.268-.354a1.258 1.258 0 0 0-.242-.019c-.068 0-.106-.013-.106-.056s.044-.056.131-.056c.336 0 .728.019.9.019.149 0 .541-.019.783-.019.088 0 .131.013.131.056s-.037.056-.111.056a1.077 1.077 0 0 0-.18.019c-.169.031-.218.137-.23.354-.013.2-.013.374-.013 1.319v.132a.038.038 0 0 0 .037.043z" class="cls-1" transform="translate(65.339 5907.457)"/>
                <path id="Path_46" d="M110.419 18.383c0-.945 0-1.12-.012-1.319s-.062-.311-.268-.354a1.258 1.258 0 0 0-.242-.019c-.068 0-.106-.013-.106-.056s.044-.056.137-.056c.168 0 .348.006.5.006s.305.013.392.013c.2 0 1.437 0 1.556-.006a2.443 2.443 0 0 0 .267-.038.612.612 0 0 1 .1-.024c.031 0 .037.024.037.056a3.957 3.957 0 0 0-.05.4c-.006.062-.019.336-.031.411-.006.031-.019.068-.062.068s-.056-.031-.056-.087a.666.666 0 0 0-.037-.224c-.044-.112-.106-.186-.417-.224-.106-.012-.76-.024-.884-.024-.031 0-.044.019-.044.062v1.573c0 .044.007.069.044.069.137 0 .852 0 .995-.013a.438.438 0 0 0 .3-.094c.043-.05.068-.081.1-.081s.043.013.043.05-.024.137-.05.454c-.006.124-.024.374-.024.417s0 .118-.056.118a.049.049 0 0 1-.056-.056 1.755 1.755 0 0 0-.025-.224c-.031-.124-.118-.218-.348-.242-.118-.013-.734-.019-.884-.019-.03 0-.037.025-.037.062v.492c0 .212-.006.784 0 .965.013.429.112.523.747.523a1.57 1.57 0 0 0 .584-.075c.162-.074.236-.2.28-.46.013-.068.025-.094.068-.094s.05.05.05.112a4.851 4.851 0 0 1-.081.691c-.043.162-.1.162-.336.162-.466 0-.809-.013-1.076-.019s-.461-.019-.648-.019c-.068 0-.2 0-.354.006s-.305.013-.429.013c-.081 0-.125-.019-.125-.062s.024-.05.1-.05a1.065 1.065 0 0 0 .224-.024c.124-.025.155-.162.18-.342.03-.261.03-.753.03-1.325z" class="cls-1" transform="translate(64.134 5907.467)"/>
                <path id="Path_47" d="M116.361 16.921l-.927.025c-.361.012-.51.043-.6.18a.727.727 0 0 0-.105.218c-.013.05-.031.074-.068.074s-.056-.031-.056-.1c0-.1.118-.665.131-.715.019-.081.037-.119.075-.119a1.431 1.431 0 0 0 .267.075c.18.019.417.031.622.031h2.464a2.95 2.95 0 0 0 .429-.031 1.526 1.526 0 0 1 .168-.031c.044 0 .05.037.05.131 0 .131-.019.56-.019.722-.006.062-.019.1-.056.1s-.062-.031-.069-.125l-.006-.068c-.013-.161-.18-.336-.734-.348l-.783-.019v2.55c0 .572 0 1.064.031 1.331.019.175.056.311.242.336a2.774 2.774 0 0 0 .318.024c.068 0 .1.019.1.05s-.05.062-.119.062c-.411 0-.8-.019-.976-.019-.143 0-.535.019-.784.019-.081 0-.124-.019-.124-.062s.024-.05.1-.05a1.056 1.056 0 0 0 .223-.024c.125-.025.162-.162.18-.342.031-.261.031-.753.031-1.325z" class="cls-1" transform="translate(63.38 5907.474)"/>
                <path id="Path_48" d="M121.353 18.392c0-.945 0-1.12-.013-1.319s-.074-.317-.212-.348a.886.886 0 0 0-.223-.024c-.062 0-.1-.013-.1-.062s.05-.05.149-.05c.236 0 .628.019.809.019.156 0 .523-.019.759-.019.081 0 .131.013.131.05s-.037.062-.1.062a1.023 1.023 0 0 0-.186.019c-.168.031-.218.137-.23.354-.013.2-.013.374-.013 1.319v1.1c0 .6 0 1.1.024 1.362.019.168.062.28.25.305a2.744 2.744 0 0 0 .317.024c.068 0 .1.019.1.05s-.05.062-.118.062c-.411 0-.8-.019-.97-.019-.143 0-.535.019-.784.019-.081 0-.124-.019-.124-.062s.024-.05.1-.05a1.056 1.056 0 0 0 .223-.024c.125-.025.162-.131.18-.311.031-.261.031-.753.031-1.357z" class="cls-1" transform="translate(62.406 5907.457)"/>
                <path id="Path_49" d="M125.192 20.685a2.464 2.464 0 0 1-.044-3.539 2.714 2.714 0 0 1 1.966-.66 6.19 6.19 0 0 1 .9.062c.236.031.435.088.621.106.069.006.094.037.094.074s-.019.125-.031.342-.006.547-.019.672c-.006.094-.019.143-.075.143s-.062-.05-.062-.137a.9.9 0 0 0-.243-.572 1.858 1.858 0 0 0-1.263-.385 1.623 1.623 0 0 0-1.169.385 2.08 2.08 0 0 0-.572 1.612A2.091 2.091 0 0 0 127.257 21a1.353 1.353 0 0 0 1.139-.348 1.033 1.033 0 0 0 .211-.411c.019-.1.031-.124.081-.124s.057.043.057.093a5.9 5.9 0 0 1-.137.828.219.219 0 0 1-.161.18 3.609 3.609 0 0 1-1.121.142 3.108 3.108 0 0 1-2.134-.675z" class="cls-1" transform="translate(61.839 5907.474)"/>
                <path id="Path_50" d="M53.716 27.493c0-.946 0-1.121-.012-1.319s-.062-.311-.268-.354a1.262 1.262 0 0 0-.243-.019c-.068 0-.105-.013-.105-.056s.044-.056.137-.056c.33 0 .722.019.9.019.255 0 .615-.019.9-.019a1.519 1.519 0 0 1 1.157.354 1.084 1.084 0 0 1 .311.741 1.464 1.464 0 0 1-1.53 1.5.969.969 0 0 1-.131-.006c-.031-.007-.074-.013-.074-.056s.043-.068.174-.068a.98.98 0 0 0 .834-1.026 1.2 1.2 0 0 0-.366-.928.921.921 0 0 0-.621-.243.881.881 0 0 0-.243.025c-.031.012-.05.05-.05.118v2.488c0 .572 0 1.064.031 1.331.019.175.056.311.243.336a2.744 2.744 0 0 0 .317.024c.068 0 .1.019.1.05s-.05.062-.118.062c-.411 0-.8-.019-.965-.019-.143 0-.535.019-.784.019-.081 0-.124-.019-.124-.062s.024-.05.1-.05a1.056 1.056 0 0 0 .223-.024c.125-.025.156-.162.18-.342.031-.261.031-.753.031-1.325z" class="cls-1" transform="translate(140.487 5898.208)"/>
                <path id="Path_51" d="M59.842 28.588c0 .8 0 1.226.131 1.338.105.093.267.137.753.137.33 0 .572-.007.728-.175a.786.786 0 0 0 .162-.373c.006-.056.019-.094.068-.094s.05.031.05.105a4.911 4.911 0 0 1-.094.716c-.037.137-.068.168-.392.168-.448 0-.771-.013-1.051-.019s-.5-.019-.759-.019c-.068 0-.2 0-.354.006s-.305.013-.429.013c-.081 0-.125-.019-.125-.062s.025-.05.1-.05a1.065 1.065 0 0 0 .224-.024c.124-.025.155-.162.18-.342.031-.261.031-.753.031-1.325v-1.095c0-.946 0-1.121-.013-1.319s-.062-.311-.267-.354a.921.921 0 0 0-.206-.019c-.068 0-.105-.013-.105-.056s.043-.056.137-.056c.293 0 .685.019.852.019.149 0 .6-.019.846-.019.088 0 .131.013.131.056s-.037.056-.112.056a1.616 1.616 0 0 0-.242.019c-.169.031-.218.137-.23.354-.013.2-.013.374-.013 1.319z" class="cls-1" transform="translate(139.642 5898.208)"/>
                <path id="Path_52" d="M64.28 28.79c-.031 0-.044.012-.056.049l-.336.852a1.209 1.209 0 0 0-.094.379c0 .112.056.193.249.193h.094c.074 0 .093.013.093.05s-.037.062-.105.062c-.2 0-.466-.019-.659-.019-.068 0-.411.019-.734.019-.081 0-.118-.013-.118-.062s.025-.05.075-.05a1.738 1.738 0 0 0 .192-.013c.287-.037.4-.249.529-.56l1.561-3.856c.075-.18.112-.249.175-.249s.094.056.156.2c.149.341 1.144 2.83 1.542 3.775.237.56.417.648.548.679a1.365 1.365 0 0 0 .261.024c.05 0 .081.007.081.05s-.056.062-.287.062-.678 0-1.175-.013c-.112-.006-.187-.006-.187-.05s.025-.05.088-.056a.1.1 0 0 0 .056-.143l-.5-1.282a.06.06 0 0 0-.062-.043zm1.269-.311c.031 0 .037-.019.031-.038l-.56-1.53c-.007-.024-.013-.056-.031-.056s-.031.031-.038.056l-.572 1.524c-.007.025 0 .044.024.044z" class="cls-1" transform="translate(138.993 5898.225)"/>
                <path id="Path_53" d="M69.466 30.3c-.1-.043-.118-.074-.118-.211 0-.342.025-.716.031-.815s.025-.162.075-.162.062.056.062.106a1.314 1.314 0 0 0 .056.317.857.857 0 0 0 .889.628.756.756 0 0 0 .834-.709c0-.3-.094-.591-.61-.995l-.286-.224a1.847 1.847 0 0 1-.921-1.475c0-.684.572-1.175 1.438-1.175a3 3 0 0 1 .827.105c.056.013.087.031.087.075 0 .08-.024.261-.024.746 0 .137-.019.186-.069.186s-.062-.037-.062-.111a.754.754 0 0 0-.162-.411.789.789 0 0 0-.678-.3.655.655 0 0 0-.74.641c0 .286.142.5.659.9l.174.13c.753.567 1.02 1 1.02 1.587a1.254 1.254 0 0 1-.584 1.083 1.8 1.8 0 0 1-.989.255 2.149 2.149 0 0 1-.909-.171z" class="cls-1" transform="translate(137.936 5898.225)"/>
                <path id="Path_54" d="M75.35 26.021l-.927.025c-.361.012-.51.043-.6.18a.707.707 0 0 0-.105.218c-.013.05-.031.074-.069.074s-.056-.031-.056-.1c0-.1.118-.665.131-.715.019-.081.037-.118.074-.118a1.5 1.5 0 0 0 .268.074c.18.019.416.031.622.031h2.463a2.954 2.954 0 0 0 .43-.031 1.491 1.491 0 0 1 .168-.031c.043 0 .05.037.05.131 0 .131-.019.56-.019.722-.007.062-.019.1-.056.1s-.062-.031-.068-.124l-.006-.069c-.013-.161-.18-.336-.734-.348l-.784-.019v2.55c0 .572 0 1.064.031 1.331.019.175.056.311.243.336a2.759 2.759 0 0 0 .317.024c.068 0 .1.019.1.05s-.05.062-.118.062c-.411 0-.8-.019-.976-.019-.143 0-.535.019-.784.019-.081 0-.124-.019-.124-.062s.024-.05.1-.05a1.056 1.056 0 0 0 .223-.024c.125-.025.162-.162.18-.342.031-.261.031-.753.031-1.325z" class="cls-1" transform="translate(137.271 5898.225)"/>
                <path id="Path_55" d="M80.342 27.493c0-.946 0-1.121-.013-1.319s-.074-.317-.212-.348a.886.886 0 0 0-.223-.024c-.062 0-.1-.013-.1-.062s.05-.05.149-.05c.236 0 .628.019.809.019.155 0 .523-.019.759-.019.081 0 .131.013.131.05s-.037.062-.1.062a1.039 1.039 0 0 0-.187.019c-.168.031-.218.137-.229.354-.013.2-.013.374-.013 1.319v1.094c0 .6 0 1.1.024 1.362.019.168.062.28.249.305a2.774 2.774 0 0 0 .318.024c.068 0 .1.019.1.05s-.05.062-.118.062c-.411 0-.8-.019-.97-.019-.143 0-.535.019-.784.019-.081 0-.125-.019-.125-.062s.025-.05.1-.05a1.058 1.058 0 0 0 .224-.024c.125-.025.162-.131.18-.311.031-.261.031-.753.031-1.357z" class="cls-1" transform="translate(136.297 5898.208)"/>
                <path id="Path_56" d="M84.181 29.785a2.465 2.465 0 0 1-.043-3.539 2.713 2.713 0 0 1 1.965-.659 6.185 6.185 0 0 1 .9.062c.237.031.436.088.622.106.068.006.094.037.094.074s-.019.125-.031.342-.007.547-.019.672c-.007.094-.019.143-.075.143s-.062-.05-.062-.137a.888.888 0 0 0-.242-.572 1.853 1.853 0 0 0-1.263-.386 1.618 1.618 0 0 0-1.169.386 2.077 2.077 0 0 0-.572 1.611 2.09 2.09 0 0 0 1.96 2.212 1.35 1.35 0 0 0 1.138-.348 1.025 1.025 0 0 0 .212-.411c.019-.1.031-.124.081-.124s.056.043.056.093a5.9 5.9 0 0 1-.137.828.22.22 0 0 1-.162.18 3.606 3.606 0 0 1-1.12.142 3.11 3.11 0 0 1-2.133-.675z" class="cls-1" transform="translate(135.73 5898.225)"/>
                <path id="Path_57" d="M93.314 29.785a2.464 2.464 0 0 1-.044-3.539 2.714 2.714 0 0 1 1.966-.659 6.2 6.2 0 0 1 .9.062c.236.031.435.088.621.106.069.006.094.037.094.074s-.019.125-.031.342-.006.547-.019.672c-.006.094-.019.143-.075.143s-.062-.05-.062-.137a.893.893 0 0 0-.243-.572 1.853 1.853 0 0 0-1.263-.386 1.619 1.619 0 0 0-1.169.386 2.077 2.077 0 0 0-.572 1.611 2.091 2.091 0 0 0 1.962 2.212 1.352 1.352 0 0 0 1.139-.348 1.033 1.033 0 0 0 .211-.411c.019-.1.031-.124.081-.124s.056.043.056.093a5.9 5.9 0 0 1-.137.828.219.219 0 0 1-.161.18 3.608 3.608 0 0 1-1.121.142 3.108 3.108 0 0 1-2.133-.675z" class="cls-1" transform="translate(134.297 5898.225)"/>
                <path id="Path_58" d="M100.425 28.588c0 .8 0 1.226.131 1.338.106.093.268.137.753.137.33 0 .572-.007.728-.175a.77.77 0 0 0 .162-.373c.007-.056.019-.094.068-.094s.05.031.05.105a4.889 4.889 0 0 1-.093.716c-.037.137-.068.168-.392.168-.448 0-.771-.013-1.051-.019s-.5-.019-.759-.019c-.068 0-.206 0-.355.006s-.3.013-.429.013c-.081 0-.124-.019-.124-.062s.024-.05.1-.05a1.056 1.056 0 0 0 .223-.024c.125-.025.156-.162.18-.342.031-.261.031-.753.031-1.325v-1.095c0-.946 0-1.121-.013-1.319s-.062-.311-.267-.354a.913.913 0 0 0-.2-.019c-.069 0-.106-.013-.106-.056s.044-.056.137-.056c.293 0 .685.019.852.019.149 0 .6-.019.846-.019.087 0 .131.013.131.056s-.038.056-.112.056a1.636 1.636 0 0 0-.243.019c-.168.031-.218.137-.23.354-.013.2-.013.374-.013 1.319z" class="cls-1" transform="translate(133.276 5898.208)"/>
                <path id="Path_59" d="M104.628 27.493c0-.946 0-1.121-.012-1.319s-.075-.317-.212-.348a.888.888 0 0 0-.224-.024c-.062 0-.1-.013-.1-.062s.05-.05.149-.05c.237 0 .628.019.809.019.156 0 .523-.019.76-.019.08 0 .131.013.131.05s-.038.062-.1.062a1.039 1.039 0 0 0-.187.019c-.168.031-.218.137-.23.354-.013.2-.013.374-.013 1.319v1.094c0 .6 0 1.1.025 1.362.019.168.062.28.249.305a2.759 2.759 0 0 0 .317.024c.068 0 .1.019.1.05s-.05.062-.118.062c-.411 0-.8-.019-.97-.019-.143 0-.535.019-.783.019-.081 0-.125-.019-.125-.062s.024-.05.1-.05a1.065 1.065 0 0 0 .224-.024c.124-.025.161-.131.18-.311.03-.261.03-.753.03-1.357z" class="cls-1" transform="translate(132.487 5898.208)"/>
                <path id="Path_60" d="M108.787 29.529c.013.486.094.648.218.691a.968.968 0 0 0 .323.044c.068 0 .106.013.106.05s-.056.062-.143.062c-.4 0-.653-.019-.771-.019-.056 0-.348.019-.672.019-.081 0-.137-.006-.137-.062 0-.037.037-.05.1-.05a1.084 1.084 0 0 0 .28-.031c.162-.05.186-.23.193-.771l.056-3.664c0-.124.019-.211.081-.211s.125.08.23.192c.075.081 1.02 1.077 1.928 1.979.423.422 1.263 1.319 1.369 1.418h.031l-.062-2.793c-.007-.379-.062-.5-.212-.56a1.022 1.022 0 0 0-.33-.037c-.075 0-.1-.019-.1-.056s.068-.056.162-.056c.323 0 .621.019.752.019.069 0 .305-.019.61-.019.081 0 .143.006.143.056s-.037.056-.112.056a.683.683 0 0 0-.186.019c-.175.05-.224.18-.23.529l-.068 3.926c0 .137-.025.193-.081.193s-.143-.069-.212-.137c-.392-.374-1.188-1.188-1.835-1.829-.678-.672-1.368-1.431-1.481-1.549h-.019z" class="cls-1" transform="translate(131.918 5898.225)"/>
                <path id="Path_61" d="M115.968 27.493c0-.946 0-1.121-.013-1.319s-.075-.317-.212-.348a.888.888 0 0 0-.224-.024c-.062 0-.1-.013-.1-.062s.05-.05.149-.05c.237 0 .629.019.809.019.155 0 .522-.019.759-.019.081 0 .131.013.131.05s-.038.062-.1.062a1.039 1.039 0 0 0-.187.019c-.168.031-.218.137-.23.354-.012.2-.012.374-.012 1.319v1.094c0 .6 0 1.1.024 1.362.019.168.062.28.249.305a2.774 2.774 0 0 0 .318.024c.068 0 .1.019.1.05s-.05.062-.119.062c-.411 0-.8-.019-.97-.019-.142 0-.535.019-.783.019-.081 0-.125-.019-.125-.062s.025-.05.1-.05a1.065 1.065 0 0 0 .224-.024c.124-.025.162-.131.18-.311.031-.261.031-.753.031-1.357z" class="cls-1" transform="translate(130.709 5898.208)"/>
                <path id="Path_62" d="M119.806 29.785a2.463 2.463 0 0 1-.043-3.539 2.713 2.713 0 0 1 1.965-.659 6.185 6.185 0 0 1 .9.062c.237.031.436.088.622.106.068.006.094.037.094.074s-.019.125-.031.342-.007.547-.019.672c-.007.094-.019.143-.075.143s-.062-.05-.062-.137a.884.884 0 0 0-.243-.572 1.851 1.851 0 0 0-1.262-.386 1.618 1.618 0 0 0-1.169.386 2.077 2.077 0 0 0-.572 1.611 2.09 2.09 0 0 0 1.959 2.214 1.35 1.35 0 0 0 1.138-.348 1.025 1.025 0 0 0 .212-.411c.019-.1.031-.124.081-.124s.056.043.056.093a5.877 5.877 0 0 1-.137.828.22.22 0 0 1-.162.18 3.606 3.606 0 0 1-1.12.142 3.11 3.11 0 0 1-2.132-.677z" class="cls-1" transform="translate(130.141 5898.225)"/>
            </g>
        </g>
    </g>
</svg>
