<svg xmlns="http://www.w3.org/2000/svg" width="40" height="40" viewBox="0 0 40 40">
    <g transform="translate(-1808 -1043)">
        <rect width="40" height="40" fill="none" rx="5" transform="translate(1808 1043)"/>
        <path fill="#fff" d="M13.916 18.033a8.628 8.628 0 0 0-2.695-3.348c-.732-.374-1.531.651-2.288.872-.643.187-2.559-.674-4.3-3.738-1.578-2.782-1.447-4.6-.766-5.7.41-.666 2.274-.552 2.322-1.358A9.161 9.161 0 0 0 4.552.666C3.533-.947 2.168.666.915 2.374c-2.1 2.864-.109 9.7 1.253 12.169 1.512 2.741 5.959 6.385 9.153 5.877 1.901-.303 3.486-.703 2.595-2.387z" transform="rotate(-14 5203.787 -6880.292)"/>
    </g>
</svg>
