<svg xmlns="http://www.w3.org/2000/svg" id="Group_10" width="240.503" height="63.507" viewBox="0 0 240.503 63.507">
    <defs>
        <style>
            .cls-1{fill:#050a23}
        </style>
    </defs>
    <g id="Group_7" transform="translate(82.82 46.791)">
        <g id="Group_1" transform="translate(0 .008)">
            <path id="Path_1" d="M55.85 41.178a.8.8 0 0 0 .705-.384h3.7v.172a1.344 1.344 0 0 0 1.287-.2v-4.841a.377.377 0 0 0-.28-.347c-.163-.048-1.006-.2-1.006-.2v.62h-3.45v-.069a.374.374 0 0 0-.283-.347c-.159-.048-1-.2-1-.2v4.338c0 .538-.092.772-.092 1.013a.427.427 0 0 0 .423.453m.926-1.041a2.64 2.64 0 0 0 .03-.391v-1.072h3.449v1.454zm3.479-2.109h-3.453v-1.36h3.449z" class="cls-1" transform="translate(-50.285 -35.374)"/>
            <path id="Path_2" d="M57.334 42.269a.048.048 0 0 0-.06-.074c-.312.177-.662.354-1.027.526v-3.377h1.14s.193-.437.26-.593c.057-.136.007-.207-.085-.207s-.239.126-.356.126h-.958v-2.736a.321.321 0 0 0-.283-.345c-.221-.053-1.006-.2-1.006-.2v3.286h-1.6a.854.854 0 0 0 .356.673h1.248v3.922a15.38 15.38 0 0 1-1.769.565 1.8 1.8 0 0 0 .43.846.356.356 0 0 0 .439.083c.308-.172.609-.358.9-.549v3.557a3.227 3.227 0 0 0-.763.016.047.047 0 0 0-.011.09.52.52 0 0 1 .37.48c0 .182-.067.227-.067.48s.306.473.625.473c.646 0 1.135-.6 1.135-1.431v-4.612a11.261 11.261 0 0 0 1.087-1" class="cls-1" transform="translate(-53.189 -35.36)"/>
            <path id="Path_3" d="M63.6 38c-.092 0-.241.129-.358.129h-7.649a.868.868 0 0 0 .356.673h1.142a12.366 12.366 0 0 1-2.38 3.311.047.047 0 0 0 .048.078 6.858 6.858 0 0 0 2.155-1.464h.875a9.642 9.642 0 0 1-2.989 3.634.047.047 0 0 0 .044.083 8.6 8.6 0 0 0 4.294-3.715h.839a9.537 9.537 0 0 1-4.317 4.988.047.047 0 0 0 .037.085 7.951 7.951 0 0 0 5.618-5.073h.655c-.034 1.215-.237 3.187-1.252 3.986a.93.93 0 0 0-.287-.441.047.047 0 0 0-.078.028.7.7 0 0 1-.269.453.659.659 0 0 0-.358.664.635.635 0 0 0 .685.462 2.4 2.4 0 0 0 1.581-.846c1.075-1.094 1.2-3.359 1.215-5.036a.374.374 0 0 0-.28-.347c-.154-.051-.777-.172-.954-.2v.626h-4.454A9.007 9.007 0 0 0 58.4 38.8h5.025s.193-.439.26-.6c.057-.136.007-.207-.083-.207" class="cls-1" transform="translate(-51.233 -31.965)"/>
        </g>
        <g id="Group_2" transform="translate(133.656 .194)">
            <path id="Path_4" d="M107.007 37.325a.347.347 0 0 0-.271-.331c-.175-.057-.963-.2-.963-.2v.522h-2.049a.371.371 0 0 0-.28-.312c-.175-.055-1.02-.209-1.02-.209v4.248c0 3.118-.363 5.319-.793 6.157a.048.048 0 0 0 .069.062c1.034-.671 1.758-2.419 1.962-4.818h2.111v.3a1.3 1.3 0 0 0 1.234-.2zm-3.3 4.448c.009-.239.023-.476.023-.726v-3.056h2.043v3.782z" class="cls-1" transform="translate(-101.625 -33.714)"/>
            <path id="Path_5" d="M102.094 36.423h4.88s.188-.427.253-.579c.055-.131.007-.2-.083-.2s-.234.124-.349.124h-5.05a.763.763 0 0 0 .349.657" class="cls-1" transform="translate(-101.468 -35.212)"/>
            <path id="Path_6" d="M111.04 40.358c-.087 0-.234.124-.347.124h-4.041v-3.175a9.373 9.373 0 0 0 3.717-.618.365.365 0 0 0 .2-.533c-.248-.379-.471-.7-.471-.7a16.519 16.519 0 0 1-3.449 1.482v-.216a.368.368 0 0 0-.285-.352c-.177-.051-1.022-.207-1.022-.207v6.714a11.6 11.6 0 0 1-1.6 6.066.048.048 0 0 0 .067.064 7.314 7.314 0 0 0 2.838-6.128v-1.74h1.753v7.984a1.3 1.3 0 0 0 1.234-.2v-7.784h1.236s.188-.427.253-.579c.055-.131.007-.2-.083-.2" class="cls-1" transform="translate(-98.878 -35.455)"/>
        </g>
        <g id="Group_3" transform="translate(26.762 .008)">
            <path id="Path_7" d="M65.635 43.124a5.365 5.365 0 0 0 2.043-1.81c.122.14.216.26.276.342.248.345.687.694 1.036.441.37-.271.188-1.011-.416-1.381-.133-.08-.285-.163-.446-.246a6.454 6.454 0 0 0 .434-1.588h.627v.988c0 1.758.577 3.125 1.99 3.125a.59.59 0 0 0 .586-.34.577.577 0 0 0-.216-.71c-.122-.09-.4-.085-.356-.432 0-.039-.053-.053-.076-.023a.915.915 0 0 0-.207.46c-.4-.227-.586-.717-.586-2.171V38a.311.311 0 0 0-.25-.3c-.154-.039-.887-.182-.887-.182v.7h-.554c.032-.437.037-.841.034-1.186a.368.368 0 0 0-.28-.345c-.172-.053-.94-.191-.94-.191v.227c0 .365.032.882.011 1.493h-1.341a.775.775 0 0 0 .352.666h.944a8.015 8.015 0 0 1-.211 1.2c-.3-.11-.62-.214-.963-.3a.047.047 0 0 0-.041.083 8.377 8.377 0 0 1 .841.758 6.842 6.842 0 0 1-1.457 2.431.046.046 0 0 0 .053.074" class="cls-1" transform="translate(-59.404 -33.919)"/>
            <path id="Path_8" d="M75.2 36.141c-.09 0-.234.124-.349.124h-3.01v-.319a.359.359 0 0 0-.294-.358c-.207-.069-1.048-.214-1.048-.214v.891h-2.847v-.319a.359.359 0 0 0-.294-.358c-.2-.069-1.045-.214-1.045-.214v.891h-3.394a.765.765 0 0 0 .347.655h3.047v.68c-.285-.057-.646-.124-.646-.124v1.038h-1.85a.759.759 0 0 0 .347.655h1.5V40.2h-2.7a.775.775 0 0 0 .352.666h1.137A8.021 8.021 0 0 1 62.9 43.02a.047.047 0 0 0 .051.076 5.419 5.419 0 0 0 2.684-2.229h1.5a2.168 2.168 0 0 0 .522 1.342.6.6 0 0 1-.223.083h-.678v-.524a.318.318 0 0 0-.239-.292c-.133-.044-.848-.175-.848-.175v.99h-1.118a.737.737 0 0 0 .335.632h.783v1.034a18.246 18.246 0 0 1-2.605.067 2.743 2.743 0 0 0 .365.919.356.356 0 0 0 .335.152 19.2 19.2 0 0 0 5.025-1.406.048.048 0 0 0-.03-.09c-.416.067-1.163.168-2 .255v-.931h.841s.152-.345.225-.515a2.068 2.068 0 0 0 1.406.655.49.49 0 0 0 .434-.257.5.5 0 0 0-.2-.636.559.559 0 0 1-.331-.538c0-.041-.06-.048-.083-.016a.892.892 0 0 0-.188.43 1.267 1.267 0 0 1-.692-1.179H69.2s.193-.432.257-.588c.057-.133.007-.2-.083-.2s-.239.126-.354.126h-2.133v-1.031h1.765s.188-.427.253-.579c.055-.131.007-.2-.08-.2s-.234.124-.349.124h-1.589V38a.3.3 0 0 0-.078-.2 1.13 1.13 0 0 0 .843-.292v-.588H70.5v.8a1.412 1.412 0 0 0 1.342-.211v-.589h3.187s.188-.427.253-.579c.055-.131.007-.2-.08-.2" class="cls-1" transform="translate(-62.885 -35.374)"/>
            <path id="Path_9" d="M64.682 40.2H70s.193-.439.26-.6c.057-.136.007-.207-.083-.207s-.241.129-.358.129h-5.493a.78.78 0 0 0 .356.673" class="cls-1" transform="translate(-61.015 -30.147)"/>
            <path id="Path_10" d="M75.174 40.02c-.09 0-.239.129-.356.129H62.9a.786.786 0 0 0 .356.673h3.095a6.139 6.139 0 0 1-.538 1.381c-.825 0-1.617 0-2.334-.03a3.189 3.189 0 0 0 .388.993.368.368 0 0 0 .322.159 27.8 27.8 0 0 0 8.239-1.158 6.29 6.29 0 0 1 .485.611c.28.4.742.786 1.114.466.347-.3.345-.983-.338-1.422a8.283 8.283 0 0 0-2.534-.857c-.048-.009-.078.055-.037.08a7.182 7.182 0 0 1 1.084.885c-1.638.136-3.731.239-5.712.267a5.75 5.75 0 0 0 1.234-1.374H75s.193-.439.26-.6c.057-.133.007-.207-.085-.207" class="cls-1" transform="translate(-62.866 -29.345)"/>
        </g>
        <g id="Group_4" transform="translate(53.458)">
            <path id="Path_11" d="M74.981 36.9a.628.628 0 0 0 .864.331c.3-.23.294-.816-.31-1.186a7.026 7.026 0 0 0-1.79-.673.045.045 0 0 0-.041.078 4.733 4.733 0 0 1 1.277 1.45" class="cls-1" transform="translate(-71.089 -35.37)"/>
            <path id="Path_12" d="M79.205 45.3v-.014h5.2s.193-.441.26-.6c.057-.136.007-.207-.083-.207s-.244.129-.361.129h-4.862a6.085 6.085 0 0 0 .087-1.02V42.8H84.7s.188-.427.253-.581c.057-.131.009-.2-.08-.2s-.237.126-.349.126h-5.08v-1.676h3.745s.193-.437.257-.593c.057-.136.009-.207-.083-.207s-.239.129-.356.129h-3.56v-1.633h4.708s.193-.437.26-.593c.057-.133.007-.2-.083-.2s-.241.126-.356.126h-3.659a4.658 4.658 0 0 0 1.516-1.133.364.364 0 0 0-.08-.535 7.778 7.778 0 0 0-.912-.455 7.19 7.19 0 0 1-1.084 2.123h-6.619a.779.779 0 0 0 .354.671H78V39.8h-3.94a.782.782 0 0 0 .354.671H78v1.675h-5.444a.765.765 0 0 0 .349.657H78v.79a5.993 5.993 0 0 1-.09 1.02h-5.055a.786.786 0 0 0 .358.675h4.535c-.533 1.629-2 3.026-5.158 3.936a.048.048 0 0 0 .016.094c3.513-.225 5.691-1.576 6.488-3.708a6.51 6.51 0 0 0 5.176 3.745c.154.021.262-.06.358-.221s.4-1.016.4-1.016a7.945 7.945 0 0 1-5.82-2.817" class="cls-1" transform="translate(-72.556 -35.37)"/>
        </g>
        <g id="Group_5" transform="translate(80.212 .114)">
            <path id="Path_13" d="M94.112 41.362c-.092 0-.244.129-.361.129h-4.74v-.457a9.035 9.035 0 0 0 2.144-1.67.354.354 0 0 0-.2-.586c-.264-.048-.54-.087-.875-.131-.023.069-.055.149-.092.234h-4.832a.779.779 0 0 0 .354.671h4.147A10.032 10.032 0 0 1 89 40.569a.372.372 0 0 0-.269-.276c-.163-.044-1-.2-1-.2v1.4h-5.348a.79.79 0 0 0 .358.678h4.983v1.413a4.46 4.46 0 0 0-.9.016.046.046 0 0 0-.011.09c.177.074.547.214.547.48 0 .184-.064.227-.064.48a.551.551 0 0 0 .579.476c.646 0 1.135-.6 1.135-1.434v-1.524h4.924s.193-.441.26-.6c.057-.136.007-.209-.083-.209" class="cls-1" transform="translate(-82.075 -31.234)"/>
            <path id="Path_14" d="M84.159 38.653a.047.047 0 0 0 .046.08 6.1 6.1 0 0 0 1.953-1.183l.037.062c.257.476.528.765.82.641.574-.246.312-.928-.175-1.339a8.48 8.48 0 0 0 .618-.712.255.255 0 0 0-.094-.4l-.77-.384a5.08 5.08 0 0 1-.5 1 9.3 9.3 0 0 0-1.041-.492A.047.047 0 0 0 85 36a10.7 10.7 0 0 1 .754.912 12.133 12.133 0 0 1-1.592 1.739" class="cls-1" transform="translate(-79.791 -35.42)"/>
            <path id="Path_15" d="M86.417 37.628a9.4 9.4 0 0 0-1.1-.473.047.047 0 0 0-.048.078c.3.308.531.57.721.809a7.792 7.792 0 0 1-1.861 1.167.047.047 0 0 0 .023.09 5.731 5.731 0 0 0 2.233-.719c.048.076.1.152.14.221.276.464.558.742.843.607.565-.267.276-.937-.225-1.33a3.7 3.7 0 0 0 .613-.6.264.264 0 0 0-.092-.4l-.648-.333a3.782 3.782 0 0 1-.6.878" class="cls-1" transform="translate(-79.841 -33.694)"/>
            <path id="Path_16" d="M94.405 40.973a7.078 7.078 0 0 0-.928-.119c-.018.2-.039.381-.057.561h-.207v-5.3a.351.351 0 0 0-.287-.349c-.2-.067-.965-.207-.965-.207v.278H90.4a.779.779 0 0 0 .354.671h1.206v1.254H90.4a.782.782 0 0 0 .354.671h1.206V39.6H90.4a.767.767 0 0 0 .349.659h1.211v1.151h-6.834v-1.152h1.3s.188-.427.253-.579c.055-.133.007-.2-.08-.2s-.234.124-.349.124h-1.124V38.5h1.3s.188-.427.253-.579c.055-.131.007-.2-.08-.2s-.234.126-.349.126h-1.124V36.6a3.3 3.3 0 0 0 1.418-.159.35.35 0 0 0 .2-.48l-.244-.522a6.135 6.135 0 0 1-1.477.728.465.465 0 0 0-.188-.11c-.2-.067-.965-.207-.965-.207v5.565h-.257c0-.269-.014-.522-.023-.726a.049.049 0 0 0-.1-.007c-.561 1.939-1.248 2.3-1.248 3.074 0 .434.246.623.556.623a.909.909 0 0 0 .765-.885c.039-.352.053-.88.053-1.413h9.714a7.956 7.956 0 0 1-.6 2.362.044.044 0 0 0 .069.051 7.852 7.852 0 0 0 1.877-3.076.337.337 0 0 0-.273-.443" class="cls-1" transform="translate(-82.249 -35.397)"/>
        </g>
        <g id="Group_6" transform="translate(106.949 .204)">
            <path id="Path_17" d="M96.253 39.317c-.163-.044-.933-.191-.933-.191v.469h-1.937a.334.334 0 0 0-.264-.315c-.165-.041-.947-.193-.947-.193v4.09c0 .508-.085.726-.085.956a.4.4 0 0 0 .4.425.848.848 0 0 0 .823-.731h2.01v.5a1.262 1.262 0 0 0 1.195-.188v-4.5a.325.325 0 0 0-.262-.319m-2.867.937h1.934v2.9h-1.935z" class="cls-1" transform="translate(-91.738 -30.751)"/>
            <path id="Path_18" d="M92.42 36.358h3.915s.188-.427.253-.579c.055-.133.007-.2-.083-.2s-.234.124-.347.124h-4.085a.763.763 0 0 0 .347.657" class="cls-1" transform="translate(-91.756 -35.306)"/>
            <path id="Path_19" d="M96.5 37.411c-.09 0-.239.129-.356.129h-4.072a.784.784 0 0 0 .356.671h3.9s.193-.437.26-.593c.055-.136.007-.207-.085-.207" class="cls-1" transform="translate(-91.757 -32.926)"/>
            <path id="Path_20" d="M96.477 38.339c-.09 0-.234.124-.347.124h-4.051a.764.764 0 0 0 .347.653H96.3s.188-.425.253-.577c.055-.131.007-.2-.08-.2" class="cls-1" transform="translate(-91.748 -31.722)"/>
            <path id="Path_21" d="M97.031 37.276s.188-.427.253-.581c.057-.131.009-.2-.08-.2s-.234.126-.349.126h-4.92a.766.766 0 0 0 .347.657z" class="cls-1" transform="translate(-91.935 -34.117)"/>
            <path id="Path_22" d="M97.808 36.509c.037-.08.08-.163.11-.237a.352.352 0 0 0-.184-.46c-.471-.2-.887-.354-.887-.354-1.013 2.794-1.877 4.241-2.734 5-.039.032.014.094.057.069a9.639 9.639 0 0 0 3.511-3.754 10.474 10.474 0 0 0 2.9 3.334.375.375 0 0 0 .494-.069 3.69 3.69 0 0 0 .505-.7 13.972 13.972 0 0 1-3.777-2.828" class="cls-1" transform="translate(-89.126 -35.459)"/>
            <path id="Path_23" d="M98.375 38.211a.327.327 0 0 0-.071-.471 7.945 7.945 0 0 0-.767-.512 13.352 13.352 0 0 1-3.175 3.954.047.047 0 0 0 .044.08 9.529 9.529 0 0 0 3.97-3.051" class="cls-1" transform="translate(-88.808 -33.164)"/>
            <path id="Path_24" d="M94.454 42.848a.047.047 0 0 0 .039.083 9.882 9.882 0 0 0 5.16-3.9.325.325 0 0 0-.071-.45 8.1 8.1 0 0 0-.7-.5 19.361 19.361 0 0 1-4.432 4.767" class="cls-1" transform="translate(-88.691 -32.057)"/>
            <path id="Path_25" d="M99.69 39.184a13.392 13.392 0 0 1-5.261 4.983.048.048 0 0 0 .021.092 8.821 8.821 0 0 0 6.118-4.156.29.29 0 0 0-.083-.384c-.308-.214-.512-.368-.795-.535" class="cls-1" transform="translate(-88.739 -30.626)"/>
        </g>
    </g>
    <g id="Group_8">
        <path id="Path_26" d="M32.194 27.412l.715 1.466.747-1.457c.011-.025.044-.08.09-.165 2.144-3.929 3.23-6.743 3.23-8.363a4.049 4.049 0 1 0-8.1 0c0 1.62 1.089 4.434 3.233 8.363.046.085.078.14.085.156m.733-10.943a2.407 2.407 0 0 1 2.424 2.424c0 .561-.25 2.265-2.424 6.442-2.174-4.177-2.424-5.882-2.424-6.442a2.407 2.407 0 0 1 2.424-2.424" class="cls-1" transform="translate(-.979 -14.842)"/>
        <path id="Path_27" d="M32.922 26.982a4.049 4.049 0 1 0 4.051 4.048 4.052 4.052 0 0 0-4.051-4.048m0 6.472a2.424 2.424 0 1 1 2.424-2.424 2.427 2.427 0 0 1-2.424 2.424" class="cls-1" transform="translate(-.981 .723)"/>
        <path id="Path_28" d="M37.88 28.946c2.952-.868 6.773-2.2 8.2-3.63a4.18 4.18 0 0 0 1.183-2.61 4.064 4.064 0 0 0-4.3-4.3 4.191 4.191 0 0 0-2.612 1.183c-1.144 1.146-2.364 3.9-3.628 8.2-.028.092-.044.154-.051.172l-.529 1.539L37.7 29c.025-.009.087-.025.179-.053m3.621-8.208a2.573 2.573 0 0 1 1.762-.719 2.319 2.319 0 0 1 1.666.719 2.411 2.411 0 0 1 0 3.428c-.4.4-1.781 1.424-6.27 2.842 1.418-4.492 2.445-5.873 2.842-6.27" class="cls-1" transform="translate(8.451 -10.23)"/>
        <path id="Path_29" d="M21.483 25.314c1.146 1.146 3.9 2.366 8.2 3.628l.17.051 1.542.531-.5-1.555c-.007-.028-.025-.09-.053-.182-1.261-4.294-2.484-7.054-3.628-8.2A4.2 4.2 0 0 0 24.6 18.4a4.064 4.064 0 0 0-4.3 4.3 4.191 4.191 0 0 0 1.183 2.612m1.151-4.577a2.293 2.293 0 0 1 1.661-.719c.062 0 .124 0 .179.007a2.568 2.568 0 0 1 1.585.712c.4.4 1.424 1.778 2.842 6.268-4.489-1.418-5.873-2.445-6.268-2.842a2.556 2.556 0 0 1-.712-1.585 2.29 2.29 0 0 1 .712-1.84" class="cls-1" transform="translate(-12.122 -10.236)"/>
        <path id="Path_30" d="M29.3 31.76l1.464-.712-1.448-.748-.165-.09c-2.7-1.475-6.346-3.233-8.365-3.233a4.049 4.049 0 1 0 0 8.1c2.02 0 5.664-1.758 8.365-3.233l.154-.085m-8.519 1.691a2.423 2.423 0 1 1 0-4.846c.561 0 2.265.25 6.442 2.422-4.177 2.174-5.882 2.424-6.442 2.424" class="cls-1" transform="translate(-16.734 .719)"/>
        <path id="Path_31" d="M33.655 38l-.715-1.466-.747 1.457-.09.163c-1.475 2.7-3.233 6.346-3.233 8.365a4.049 4.049 0 1 0 8.1 0c0-1.62-1.087-4.432-3.23-8.363-.046-.083-.078-.14-.085-.156m-.733 10.943a2.407 2.407 0 0 1-2.422-2.421c0-.561.25-2.265 2.424-6.442 2.174 4.179 2.422 5.882 2.422 6.442a2.407 2.407 0 0 1-2.422 2.424" class="cls-1" transform="translate(-.985 12.934)"/>
        <path id="Path_32" d="M29.681 34.813c-2.955.868-6.773 2.2-8.2 3.63a4.2 4.2 0 0 0-1.181 2.612 4.072 4.072 0 0 0 4 4.308c.1 0 .2 0 .3-.011a4.179 4.179 0 0 0 2.612-1.183c1.146-1.144 2.367-3.9 3.628-8.2l.051-.172.531-1.539-1.555.5c-.028.009-.09.025-.179.053m-3.63 8.209a2.592 2.592 0 0 1-1.588.712 2.441 2.441 0 0 1-2.553-2.555 2.568 2.568 0 0 1 .712-1.585c.4-.4 1.778-1.424 6.268-2.842-1.415 4.492-2.445 5.873-2.84 6.27" class="cls-1" transform="translate(-12.128 9.979)"/>
        <path id="Path_33" d="M37.863 34.832l-.17-.051-1.542-.531.5 1.558c.009.025.028.087.053.179.868 2.952 2.2 6.773 3.63 8.2a4.186 4.186 0 0 0 2.612 1.183c.1.007.2.011.3.011a3.954 3.954 0 0 0 2.815-1.195 4.01 4.01 0 0 0 0-5.726c-1.146-1.146-3.906-2.369-8.2-3.63m7.049 8.207a2.411 2.411 0 0 1-3.428 0c-.4-.4-1.424-1.781-2.842-6.27 4.492 1.418 5.873 2.445 6.27 2.842a2.581 2.581 0 0 1 .712 1.585 2.294 2.294 0 0 1-.712 1.843" class="cls-1" transform="translate(8.461 9.968)"/>
        <path id="Path_34" d="M48.415 26.984c-1.622 0-4.437 1.087-8.365 3.233l-.156.085-1.464.715 1.454.747.165.087c2.7 1.475 6.346 3.233 8.365 3.233a4.049 4.049 0 0 0 0-8.1m0 6.475c-.563 0-2.268-.25-6.445-2.424 4.177-2.174 5.882-2.424 6.445-2.424a2.424 2.424 0 0 1 0 4.848" class="cls-1" transform="translate(11.418 .726)"/>
        <path id="Path_35" d="M59.842 51.186a3.986 3.986 0 0 1-.859.093 3.738 3.738 0 0 1-2.564-1 13.561 13.561 0 0 1-2.968-3.906 10.372 10.372 0 0 0-1.392.831 15.352 15.352 0 0 0 3.251 4.255 5.545 5.545 0 0 0 8.8-1.916 5.469 5.469 0 0 0-4.61-7.568 14.789 14.789 0 0 0-7.1 1.317 13.033 13.033 0 0 1 0-5.016 14.975 14.975 0 0 0 7.1 1.34 5.47 5.47 0 1 0-4.193-9.482 15.4 15.4 0 0 0-3.24 4.227 10.867 10.867 0 0 0 1.4.838 13.66 13.66 0 0 1 2.95-3.888 3.871 3.871 0 1 1 2.968 6.7 13.253 13.253 0 0 1-6.55-1.314 12.641 12.641 0 0 1-3.389-2.405 12.338 12.338 0 0 1-2.44-3.364 13.017 13.017 0 0 1-1.31-6.5 3.781 3.781 0 0 1 1.824-2.92 3.889 3.889 0 0 1 2.04-.579 4.01 4.01 0 0 1 1.528.305 3.8 3.8 0 0 1 2.279 2.742 3.717 3.717 0 0 1-.914 3.394 14 14 0 0 1-3.925 2.93 10.932 10.932 0 0 0 .843 1.383 15.421 15.421 0 0 0 4.271-3.214 5.361 5.361 0 0 0 1.314-4.833 5.456 5.456 0 0 0-3.244-3.893 5.536 5.536 0 0 0-5.045.392 5.389 5.389 0 0 0-2.592 4.177 14.743 14.743 0 0 0 1.337 7.038 13.281 13.281 0 0 1-2.532.241 13.02 13.02 0 0 1-2.523-.241 14.414 14.414 0 0 0 1.326-7.038 5.383 5.383 0 0 0-2.592-4.177 5.53 5.53 0 0 0-5.043-.392 5.459 5.459 0 0 0-3.248 3.892 5.362 5.362 0 0 0 1.317 4.833 15.432 15.432 0 0 0 4.283 3.221 10.735 10.735 0 0 0 .846-1.387 13.769 13.769 0 0 1-3.94-2.934 3.711 3.711 0 0 1-.914-3.394 3.792 3.792 0 0 1 2.279-2.742 3.993 3.993 0 0 1 1.528-.305 3.881 3.881 0 0 1 2.038.579 3.778 3.778 0 0 1 1.827 2.92 12.768 12.768 0 0 1-1.307 6.5 12.488 12.488 0 0 1-2.445 3.357A12.91 12.91 0 0 1 26.361 38a3.847 3.847 0 0 1-.453-7.6 3.954 3.954 0 0 1 .859-.093 3.732 3.732 0 0 1 2.562 1 14.067 14.067 0 0 1 2.971 3.901 10.856 10.856 0 0 0 1.392-.834 15.356 15.356 0 0 0-3.252-4.254 5.545 5.545 0 0 0-8.8 1.913 5.468 5.468 0 0 0 4.606 7.567 14.813 14.813 0 0 0 7.1-1.314 13.022 13.022 0 0 1 0 5.013 15.049 15.049 0 0 0-7.095-1.342 5.455 5.455 0 0 0-4.216 2.572 5.4 5.4 0 0 0-.393 5 5.542 5.542 0 0 0 8.8 1.913 15.355 15.355 0 0 0 3.242-4.227 10.867 10.867 0 0 0-1.4-.838 13.663 13.663 0 0 1-2.952 3.888 3.871 3.871 0 1 1-2.966-6.7 13.26 13.26 0 0 1 6.55 1.314 12.642 12.642 0 0 1 3.384 2.41 12.39 12.39 0 0 1 2.438 3.364 13 13 0 0 1 1.312 6.5 3.778 3.778 0 0 1-1.827 2.92 3.883 3.883 0 0 1-2.04.579 4 4 0 0 1-1.526-.305 3.787 3.787 0 0 1-2.276-2.747 3.711 3.711 0 0 1 .914-3.394 13.94 13.94 0 0 1 3.925-2.926 10.5 10.5 0 0 0-.841-1.383 15.43 15.43 0 0 0-4.271 3.214 5.364 5.364 0 0 0-1.317 4.833 5.459 5.459 0 0 0 3.246 3.893 5.53 5.53 0 0 0 5.043-.392 5.392 5.392 0 0 0 2.594-4.177 14.773 14.773 0 0 0-1.337-7.038 13.281 13.281 0 0 1 2.532-.241 13.02 13.02 0 0 1 2.523.241 14.423 14.423 0 0 0-1.328 7.038 5.383 5.383 0 0 0 2.592 4.177 5.534 5.534 0 0 0 5.045.392 5.456 5.456 0 0 0 3.244-3.893 5.369 5.369 0 0 0-1.314-4.833 15.466 15.466 0 0 0-4.283-3.221 10.736 10.736 0 0 0-.846 1.387 13.769 13.769 0 0 1 3.94 2.934 3.723 3.723 0 0 1 .914 3.394 3.79 3.79 0 0 1-2.281 2.742 3.99 3.99 0 0 1-1.526.305 3.889 3.889 0 0 1-2.04-.579 3.781 3.781 0 0 1-1.824-2.92 12.8 12.8 0 0 1 1.305-6.5 12.649 12.649 0 0 1 2.446-3.353 12.918 12.918 0 0 1 9.953-3.713 3.847 3.847 0 0 1 .453 7.6m-8.931-7.1a14.811 14.811 0 0 0-4.71 4.66 15.053 15.053 0 0 0-6.665 0 14.1 14.1 0 0 0-2.086-2.6 14.521 14.521 0 0 0-2.615-2.05 14.279 14.279 0 0 0 .379-3.31 14.474 14.474 0 0 0-.375-3.3 14.754 14.754 0 0 0 2.622-2.068 14.429 14.429 0 0 0 2.086-2.592 15.063 15.063 0 0 0 6.668 0 14 14 0 0 0 2.086 2.6 14.442 14.442 0 0 0 2.615 2.05 14.6 14.6 0 0 0 0 6.61" class="cls-1" transform="translate(-10.933 -9.042)"/>
    </g>
    <g id="Group_9" transform="translate(82.007 7.119)">
        <path id="Path_36" d="M54.632 21.086c0-2.324 0-2.753-.029-3.242-.031-.52-.153-.765-.659-.871a3.1 3.1 0 0 0-.6-.046c-.168 0-.259-.031-.259-.139s.108-.137.336-.137c.415 0 .858.015 1.24.015.4.017.75.031.964.031.489 0 3.532 0 3.824-.015a6.006 6.006 0 0 0 .657-.093 1.5 1.5 0 0 1 .245-.06c.077 0 .091.06.091.137a9.724 9.724 0 0 0-.122.995c-.015.153-.046.825-.077 1.01-.015.077-.046.168-.153.168s-.137-.077-.137-.214a1.638 1.638 0 0 0-.091-.551c-.108-.276-.261-.458-1.026-.551-.259-.029-1.866-.06-2.17-.06-.077 0-.108.046-.108.153v3.868c0 .108.015.17.108.17.336 0 2.094 0 2.446-.031s.6-.077.734-.23c.108-.122.168-.2.245-.2s.108.031.108.122-.06.338-.122 1.117c-.015.3-.062.918-.062 1.024 0 .122 0 .29-.137.29a.12.12 0 0 1-.137-.137 4.312 4.312 0 0 0-.062-.551c-.077-.3-.29-.535-.856-.595-.29-.031-1.805-.048-2.172-.048-.077 0-.091.062-.091.153v1.209c0 .52-.015 1.928 0 2.371.031 1.055.276 1.285 1.835 1.285a3.866 3.866 0 0 0 1.439-.184c.4-.182.58-.5.688-1.132.031-.168.06-.23.168-.23s.122.122.122.276a11.928 11.928 0 0 1-.2 1.7c-.106.4-.245.4-.825.4-1.148 0-1.988-.031-2.647-.046-.657-.031-1.132-.046-1.59-.046-.168 0-.5 0-.873.015-.35 0-.748.031-1.055.031-.2 0-.3-.046-.3-.153 0-.077.06-.122.245-.122a2.6 2.6 0 0 0 .549-.06c.307-.062.383-.4.444-.842.077-.643.077-1.851.077-3.259z" class="cls-1" transform="translate(-53.088 -16.437)"/>
        <path id="Path_37" d="M61.668 23.716c0 1.959 0 3.014.321 3.29.259.228.657.336 1.851.336.811 0 1.408-.017 1.789-.429a1.91 1.91 0 0 0 .4-.918c.015-.137.046-.228.168-.228s.122.077.122.259a12.319 12.319 0 0 1-.228 1.76c-.093.336-.17.413-.964.413-1.1 0-1.9-.031-2.585-.046-.688-.031-1.24-.046-1.866-.046-.17 0-.506 0-.873.015s-.75.031-1.055.031c-.2 0-.307-.046-.307-.153 0-.077.062-.122.245-.122a2.6 2.6 0 0 0 .551-.06c.307-.062.381-.4.444-.842.077-.643.077-1.851.077-3.259v-2.694c0-2.324 0-2.753-.031-3.242-.031-.52-.153-.765-.657-.871a2.251 2.251 0 0 0-.506-.046c-.168 0-.259-.031-.259-.139s.108-.137.336-.137c.719 0 1.683.046 2.1.046.367 0 1.484-.046 2.081-.046.214 0 .319.031.319.137s-.091.139-.274.139a3.98 3.98 0 0 0-.6.046c-.413.077-.535.336-.566.871-.031.489-.031.918-.031 3.242z" class="cls-1" transform="translate(-47.492 -16.373)"/>
        <path id="Path_38" d="M64.673 21.023c0-2.324 0-2.753-.031-3.242-.029-.52-.182-.779-.518-.856a2.195 2.195 0 0 0-.551-.06c-.153 0-.245-.031-.245-.153 0-.091.122-.122.367-.122.58 0 1.544.046 1.988.046.384 0 1.285-.046 1.866-.046.2 0 .321.031.321.122 0 .122-.091.153-.245.153a2.516 2.516 0 0 0-.458.046c-.413.077-.535.336-.566.871-.031.489-.031.918-.031 3.242v2.693c0 1.484 0 2.693.062 3.35.046.413.151.688.612.75a6.747 6.747 0 0 0 .779.06c.168 0 .245.046.245.122 0 .108-.122.153-.29.153-1.009 0-1.973-.046-2.386-.046-.352 0-1.316.046-1.928.046-.2 0-.3-.046-.3-.153 0-.077.06-.122.245-.122a2.6 2.6 0 0 0 .549-.06c.307-.062.4-.321.444-.765.077-.643.077-1.851.077-3.335z" class="cls-1" transform="translate(-42.102 -16.373)"/>
        <path id="Path_39" d="M71.042 17.557l-2.278.062c-.887.029-1.254.106-1.484.444a1.738 1.738 0 0 0-.259.535c-.031.122-.077.182-.168.182-.108 0-.139-.077-.139-.245 0-.245.29-1.636.321-1.758.046-.2.091-.292.184-.292a3.516 3.516 0 0 0 .657.184c.444.046 1.024.077 1.53.077h6.057a7.254 7.254 0 0 0 1.055-.077 3.665 3.665 0 0 1 .412-.077c.108 0 .122.091.122.321 0 .321-.046 1.376-.046 1.774-.015.153-.046.245-.139.245-.122 0-.151-.077-.168-.307l-.015-.168c-.031-.4-.444-.825-1.805-.856l-1.926-.046v6.271c0 1.407 0 2.616.077 3.273.046.429.137.765.595.827a6.819 6.819 0 0 0 .781.06c.168 0 .245.046.245.122 0 .108-.122.153-.292.153-1.009 0-1.971-.046-2.4-.046-.352 0-1.316.046-1.928.046-.2 0-.3-.046-.3-.153 0-.077.06-.122.245-.122a2.6 2.6 0 0 0 .549-.06c.307-.062.4-.4.444-.842.077-.643.077-1.851.077-3.259z" class="cls-1" transform="translate(-38.469 -16.485)"/>
        <path id="Path_40" d="M74.367 21.086c0-2.324 0-2.753-.031-3.242-.029-.52-.153-.765-.657-.871a3.1 3.1 0 0 0-.6-.046c-.168 0-.259-.031-.259-.139s.106-.137.336-.137c.413 0 .856.015 1.24.015.4.017.748.031.964.031.489 0 3.532 0 3.822-.015a5.927 5.927 0 0 0 .657-.093 1.527 1.527 0 0 1 .247-.06c.077 0 .091.06.091.137a9.725 9.725 0 0 0-.122.995c-.017.153-.046.825-.077 1.01-.015.077-.046.168-.153.168s-.137-.077-.137-.214a1.648 1.648 0 0 0-.093-.551c-.106-.276-.259-.458-1.024-.551-.259-.029-1.866-.06-2.172-.06-.077 0-.106.046-.106.153v3.868c0 .108.014.17.106.17.338 0 2.1 0 2.448-.031s.6-.077.734-.23c.108-.122.168-.2.245-.2s.108.031.108.122-.062.338-.122 1.117c-.017.3-.062.918-.062 1.024 0 .122 0 .29-.137.29a.121.121 0 0 1-.139-.137 3.939 3.939 0 0 0-.06-.551c-.077-.3-.29-.535-.856-.595-.29-.031-1.805-.048-2.172-.048-.077 0-.091.062-.091.153v1.209c0 .52-.017 1.928 0 2.371.029 1.055.276 1.285 1.835 1.285a3.866 3.866 0 0 0 1.439-.184c.4-.182.58-.5.688-1.132.029-.168.06-.23.168-.23s.122.122.122.276a11.93 11.93 0 0 1-.2 1.7c-.108.4-.245.4-.825.4-1.148 0-1.99-.031-2.647-.046-.657-.031-1.132-.046-1.59-.046-.168 0-.506 0-.873.015-.35 0-.748.031-1.055.031-.2 0-.3-.046-.3-.153 0-.077.06-.122.245-.122a2.6 2.6 0 0 0 .549-.06c.307-.062.383-.4.444-.842.077-.643.077-1.851.077-3.259z" class="cls-1" transform="translate(-31.914 -16.437)"/>
        <path id="Path_41" d="M83.879 24.362c-.077 0-.108.031-.139.122l-.825 2.1a2.974 2.974 0 0 0-.23.933c0 .276.139.475.614.475h.228c.184 0 .23.031.23.122 0 .122-.091.153-.261.153-.489 0-1.146-.046-1.621-.046-.168 0-1.01.046-1.8.046-.2 0-.292-.031-.292-.153 0-.091.062-.122.184-.122a4.313 4.313 0 0 0 .475-.031c.7-.091.993-.612 1.3-1.376l3.835-9.485c.182-.444.276-.614.429-.614.137 0 .228.139.381.491.367.84 2.815 6.959 3.793 9.282.58 1.376 1.024 1.592 1.345 1.669a3.37 3.37 0 0 0 .643.06c.122 0 .2.017.2.122 0 .122-.137.153-.7.153s-1.669 0-2.892-.031c-.276-.015-.458-.015-.458-.122 0-.091.06-.122.214-.137a.25.25 0 0 0 .137-.352l-1.226-3.151a.148.148 0 0 0-.153-.108zM87 23.6c.077 0 .091-.046.077-.091L85.7 19.744c-.015-.06-.031-.137-.077-.137s-.077.077-.091.137l-1.408 3.748c-.015.06 0 .106.06.106z" class="cls-1" transform="translate(-24.451 -16.485)"/>
        <path id="Path_42" d="M87.934 21.086c0-2.324 0-2.753-.029-3.242-.031-.52-.153-.765-.659-.871a3.094 3.094 0 0 0-.595-.046c-.17 0-.261-.031-.261-.139s.108-.137.336-.137c.412 0 .856.015 1.24.015.4.017.75.031.964.031.489 0 3.532 0 3.822-.015a5.984 5.984 0 0 0 .659-.093 1.5 1.5 0 0 1 .245-.06c.077 0 .091.06.091.137a9.725 9.725 0 0 0-.122.995c-.015.153-.046.825-.077 1.01-.015.077-.046.168-.153.168s-.137-.077-.137-.214a1.638 1.638 0 0 0-.091-.551c-.108-.276-.261-.458-1.026-.551-.259-.029-1.866-.06-2.17-.06-.077 0-.108.046-.108.153v3.868c0 .108.014.17.108.17.336 0 2.094 0 2.446-.031s.6-.077.734-.23c.108-.122.168-.2.245-.2s.108.031.108.122-.062.338-.122 1.117c-.015.3-.062.918-.062 1.024 0 .122 0 .29-.137.29a.12.12 0 0 1-.137-.137 4.308 4.308 0 0 0-.062-.551c-.077-.3-.29-.535-.856-.595-.29-.031-1.805-.048-2.172-.048-.077 0-.091.062-.091.153v1.209c0 .52-.017 1.928 0 2.371.031 1.055.276 1.285 1.834 1.285a3.866 3.866 0 0 0 1.439-.184c.4-.182.58-.5.688-1.132.031-.168.06-.23.168-.23s.122.122.122.276a11.926 11.926 0 0 1-.2 1.7c-.108.4-.245.4-.825.4-1.148 0-1.988-.031-2.647-.046-.657-.031-1.132-.046-1.59-.046-.168 0-.506 0-.873.015-.35 0-.748.031-1.055.031-.2 0-.3-.046-.3-.153 0-.077.06-.122.245-.122a2.6 2.6 0 0 0 .549-.06c.307-.062.383-.4.444-.842.077-.643.077-1.851.077-3.259z" class="cls-1" transform="translate(-17.358 -16.437)"/>
        <path id="Path_43" d="M92.051 28.079c-.245-.106-.29-.182-.29-.518 0-.842.06-1.76.077-2s.06-.4.182-.4c.139 0 .153.137.153.261a3.322 3.322 0 0 0 .137.779 2.109 2.109 0 0 0 2.19 1.542A1.858 1.858 0 0 0 96.547 26c0-.75-.23-1.453-1.5-2.448l-.7-.549c-1.683-1.316-2.264-2.386-2.264-3.625 0-1.683 1.407-2.892 3.532-2.892a7.339 7.339 0 0 1 2.033.261c.139.031.216.077.216.182 0 .2-.062.643-.062 1.837 0 .336-.046.458-.168.458s-.153-.091-.153-.274a1.864 1.864 0 0 0-.4-1.012 1.941 1.941 0 0 0-1.669-.748 1.609 1.609 0 0 0-1.82 1.575c0 .7.352 1.24 1.621 2.2l.429.319c1.851 1.393 2.508 2.448 2.508 3.9a3.081 3.081 0 0 1-1.439 2.662 4.42 4.42 0 0 1-2.432.626 5.268 5.268 0 0 1-2.228-.393z" class="cls-1" transform="translate(-11.596 -16.485)"/>
        <path id="Path_44" d="M100.331 17.557l-2.28.062c-.887.029-1.254.106-1.482.444a1.807 1.807 0 0 0-.261.535c-.031.122-.077.182-.168.182-.108 0-.137-.077-.137-.245 0-.245.29-1.636.321-1.758.046-.2.091-.292.182-.292a3.569 3.569 0 0 0 .657.184c.444.046 1.026.077 1.53.077h6.057a7.228 7.228 0 0 0 1.055-.077 3.848 3.848 0 0 1 .412-.077c.108 0 .122.091.122.321 0 .321-.046 1.376-.046 1.774-.015.153-.046.245-.137.245-.122 0-.153-.077-.168-.307l-.017-.168c-.029-.4-.444-.825-1.8-.856l-1.928-.046v6.271c0 1.407 0 2.616.077 3.273.046.429.137.765.6.827a6.747 6.747 0 0 0 .779.06c.168 0 .245.046.245.122 0 .108-.122.153-.29.153-1.01 0-1.973-.046-2.4-.046-.35 0-1.314.046-1.926.046-.2 0-.307-.046-.307-.153 0-.077.062-.122.245-.122a2.618 2.618 0 0 0 .551-.06c.3-.062.4-.4.444-.842.077-.643.077-1.851.077-3.259z" class="cls-1" transform="translate(-7.045 -16.485)"/>
        <path id="Path_45" d="M111.5 21.452a.093.093 0 0 0 .091-.106v-.323c0-2.324 0-2.753-.031-3.242-.031-.52-.153-.765-.657-.871a3.118 3.118 0 0 0-.6-.046c-.168 0-.259-.031-.259-.139s.106-.137.321-.137c.825 0 1.789.046 2.2.046.367 0 1.331-.046 1.928-.046.214 0 .321.031.321.137s-.093.139-.276.139a2.65 2.65 0 0 0-.444.046c-.413.077-.535.336-.566.871-.031.489-.031.918-.031 3.242v2.693c0 1.407 0 2.616.077 3.273.046.429.139.765.6.827a6.746 6.746 0 0 0 .779.06c.168 0 .245.046.245.122 0 .108-.122.153-.3.153-.995 0-1.959-.046-2.386-.046-.352 0-1.316.046-1.913.046-.214 0-.321-.046-.321-.153 0-.077.062-.122.245-.122a2.6 2.6 0 0 0 .551-.06c.307-.062.384-.4.444-.842.077-.643.077-1.851.077-3.259V22.37a.087.087 0 0 0-.091-.091h-5.844a.08.08 0 0 0-.091.091v1.345c0 1.407 0 2.616.077 3.273.046.429.137.765.595.827a6.82 6.82 0 0 0 .781.06c.168 0 .245.046.245.122 0 .108-.122.153-.307.153-.993 0-1.957-.046-2.386-.046-.352 0-1.314.046-1.926.046-.2 0-.307-.046-.307-.153 0-.077.06-.122.245-.122a2.618 2.618 0 0 0 .551-.06c.3-.062.381-.4.444-.842.075-.643.075-1.851.075-3.259v-2.691c0-2.324 0-2.753-.029-3.242-.031-.52-.153-.765-.659-.871a3.094 3.094 0 0 0-.595-.046c-.168 0-.261-.031-.261-.139s.108-.137.321-.137c.827 0 1.789.046 2.2.046.367 0 1.331-.046 1.926-.046.216 0 .321.031.321.137s-.091.139-.274.139a2.65 2.65 0 0 0-.444.046c-.415.077-.537.336-.566.871-.031.489-.031.918-.031 3.242v.323a.093.093 0 0 0 .091.106z" class="cls-1" transform="translate(-.491 -16.373)"/>
        <path id="Path_46" d="M111.335 21.086c0-2.324 0-2.753-.029-3.242-.031-.52-.153-.765-.659-.871a3.094 3.094 0 0 0-.595-.046c-.168 0-.261-.031-.261-.139s.108-.137.338-.137c.413 0 .856.015 1.238.015.4.017.75.031.964.031.489 0 3.532 0 3.825-.015a6.006 6.006 0 0 0 .657-.093 1.5 1.5 0 0 1 .245-.06c.077 0 .091.06.091.137a9.73 9.73 0 0 0-.122.995c-.014.153-.046.825-.077 1.01-.015.077-.046.168-.151.168s-.139-.077-.139-.214a1.638 1.638 0 0 0-.091-.551c-.108-.276-.261-.458-1.024-.551-.261-.029-1.868-.06-2.172-.06-.077 0-.108.046-.108.153v3.868c0 .108.017.17.108.17.336 0 2.1 0 2.446-.031a1.076 1.076 0 0 0 .736-.23c.106-.122.168-.2.245-.2.06 0 .106.031.106.122s-.06.338-.122 1.117c-.015.3-.06.918-.06 1.024 0 .122 0 .29-.139.29a.121.121 0 0 1-.137-.137 4.317 4.317 0 0 0-.062-.551c-.077-.3-.29-.535-.856-.595-.29-.031-1.805-.048-2.172-.048-.075 0-.091.062-.091.153v1.209c0 .52-.014 1.928 0 2.371.031 1.055.276 1.285 1.837 1.285a3.86 3.86 0 0 0 1.437-.184c.4-.182.58-.5.688-1.132.031-.168.062-.23.168-.23.122 0 .122.122.122.276a11.926 11.926 0 0 1-.2 1.7c-.106.4-.245.4-.825.4-1.146 0-1.988-.031-2.645-.046-.659-.031-1.134-.046-1.592-.046-.168 0-.5 0-.871.015s-.75.031-1.055.031c-.2 0-.307-.046-.307-.153 0-.077.06-.122.245-.122a2.618 2.618 0 0 0 .551-.06c.3-.062.381-.4.444-.842.075-.643.075-1.851.075-3.259z" class="cls-1" transform="translate(7.749 -16.437)"/>
        <path id="Path_47" d="M118.929 17.557l-2.278.062c-.887.029-1.254.106-1.484.444a1.789 1.789 0 0 0-.259.535c-.031.122-.077.182-.168.182-.108 0-.139-.077-.139-.245 0-.245.29-1.636.321-1.758.046-.2.091-.292.184-.292a3.517 3.517 0 0 0 .657.184c.444.046 1.024.077 1.53.077h6.057a7.254 7.254 0 0 0 1.055-.077 3.753 3.753 0 0 1 .412-.077c.108 0 .122.091.122.321 0 .321-.046 1.376-.046 1.774-.015.153-.046.245-.137.245-.124 0-.153-.077-.17-.307l-.014-.168c-.031-.4-.444-.825-1.805-.856l-1.926-.046v6.271c0 1.407 0 2.616.077 3.273.046.429.137.765.595.827a6.82 6.82 0 0 0 .782.06c.168 0 .245.046.245.122 0 .108-.122.153-.292.153-1.01 0-1.971-.046-2.4-.046-.352 0-1.316.046-1.928.046-.2 0-.3-.046-.3-.153 0-.077.06-.122.245-.122a2.6 2.6 0 0 0 .549-.06c.307-.062.4-.4.444-.842.077-.643.077-1.851.077-3.259z" class="cls-1" transform="translate(12.909 -16.485)"/>
        <path id="Path_48" d="M122.151 21.023c0-2.324 0-2.753-.031-3.242-.029-.52-.182-.779-.52-.856a2.179 2.179 0 0 0-.549-.06c-.153 0-.245-.031-.245-.153 0-.091.122-.122.367-.122.58 0 1.544.046 1.988.046.383 0 1.285-.046 1.866-.046.2 0 .321.031.321.122 0 .122-.091.153-.245.153a2.516 2.516 0 0 0-.458.046c-.412.077-.537.336-.566.871-.031.489-.031.918-.031 3.242v2.693c0 1.484 0 2.693.06 3.35.048.413.153.688.614.75a6.747 6.747 0 0 0 .779.06c.168 0 .245.046.245.122 0 .108-.122.153-.29.153-1.01 0-1.973-.046-2.386-.046-.352 0-1.316.046-1.928.046-.2 0-.3-.046-.3-.153 0-.077.06-.122.245-.122a2.6 2.6 0 0 0 .549-.06c.307-.062.4-.321.444-.765.077-.643.077-1.851.077-3.335z" class="cls-1" transform="translate(19.566 -16.373)"/>
        <path id="Path_49" d="M126.318 26.81a5.771 5.771 0 0 1-1.9-4.513 5.754 5.754 0 0 1 1.789-4.189 6.672 6.672 0 0 1 4.834-1.623 15.22 15.22 0 0 1 2.218.153c.58.077 1.07.216 1.528.261.17.015.23.091.23.182 0 .122-.046.307-.077.842-.031.506-.014 1.345-.046 1.652-.015.23-.046.352-.185.352-.122 0-.151-.122-.151-.338a2.2 2.2 0 0 0-.6-1.407 4.567 4.567 0 0 0-3.105-.947 3.99 3.99 0 0 0-2.875.947 5.114 5.114 0 0 0-1.408 3.963 5.14 5.14 0 0 0 4.817 5.443c1.362 0 2.187-.153 2.8-.856a2.539 2.539 0 0 0 .518-1.01c.048-.245.077-.3.2-.3s.139.106.139.228a14.5 14.5 0 0 1-.338 2.036.539.539 0 0 1-.4.444 8.872 8.872 0 0 1-2.755.35 7.641 7.641 0 0 1-5.233-1.67z" class="cls-1" transform="translate(23.445 -16.485)"/>
        <path id="Path_50" d="M54.632 30.125c0-2.326 0-2.755-.029-3.244-.031-.518-.153-.765-.659-.871a3.1 3.1 0 0 0-.6-.046c-.168 0-.259-.031-.259-.139s.108-.137.336-.137c.811 0 1.774.046 2.2.046.626 0 1.513-.046 2.218-.046a3.735 3.735 0 0 1 2.844.871 2.666 2.666 0 0 1 .765 1.822 3.6 3.6 0 0 1-3.762 3.7 2.383 2.383 0 0 1-.321-.014c-.077-.017-.182-.031-.182-.139s.106-.168.427-.168a2.409 2.409 0 0 0 2.05-2.523 2.939 2.939 0 0 0-.9-2.295 2.264 2.264 0 0 0-1.528-.6 2.167 2.167 0 0 0-.6.062c-.077.029-.122.122-.122.29v6.117c0 1.407 0 2.616.077 3.273.046.429.137.765.6.827a6.748 6.748 0 0 0 .779.06c.168 0 .245.046.245.122 0 .108-.122.153-.29.153-1.009 0-1.973-.046-2.371-.046-.352 0-1.316.046-1.928.046-.2 0-.3-.046-.3-.153 0-.077.06-.122.245-.122a2.6 2.6 0 0 0 .549-.06c.307-.062.383-.4.444-.842.077-.643.077-1.851.077-3.259z" class="cls-1" transform="translate(-53.088 -6.61)"/>
        <path id="Path_51" d="M61.838 32.816c0 1.959 0 3.014.321 3.29.259.228.657.336 1.851.336.811 0 1.405-.017 1.789-.429a1.931 1.931 0 0 0 .4-.916c.015-.139.046-.23.168-.23s.122.077.122.259a12.074 12.074 0 0 1-.23 1.76c-.091.336-.168.413-.964.413-1.1 0-1.9-.031-2.585-.046-.688-.031-1.238-.046-1.866-.046-.168 0-.5 0-.871.015s-.75.031-1.055.031c-.2 0-.307-.046-.307-.153 0-.077.062-.122.245-.122a2.618 2.618 0 0 0 .551-.06c.3-.062.381-.4.444-.842.077-.643.077-1.851.077-3.259v-2.692c0-2.326 0-2.755-.031-3.244-.031-.518-.153-.765-.657-.871a2.264 2.264 0 0 0-.506-.046c-.168 0-.259-.031-.259-.139s.106-.137.336-.137c.719 0 1.683.046 2.1.046.367 0 1.484-.046 2.079-.046.216 0 .321.031.321.137s-.091.139-.276.139a3.974 3.974 0 0 0-.595.046c-.415.077-.537.336-.566.871-.031.489-.031.918-.031 3.244z" class="cls-1" transform="translate(-47.309 -6.61)"/>
        <path id="Path_52" d="M66.712 33.463c-.077 0-.108.029-.139.12l-.825 2.1a2.973 2.973 0 0 0-.23.933c0 .276.137.475.611.475h.23c.182 0 .228.031.228.122 0 .122-.091.153-.259.153-.489 0-1.146-.046-1.621-.046-.168 0-1.009.046-1.806.046-.2 0-.29-.031-.29-.153 0-.091.062-.122.184-.122a4.273 4.273 0 0 0 .473-.031c.7-.091.995-.612 1.3-1.376l3.84-9.484c.185-.444.276-.612.429-.612s.23.137.383.489c.367.84 2.813 6.959 3.791 9.282.582 1.376 1.026 1.592 1.347 1.669a3.355 3.355 0 0 0 .643.06c.122 0 .2.017.2.122 0 .122-.139.153-.7.153-.549 0-1.667 0-2.89-.031-.276-.015-.46-.015-.46-.122 0-.091.062-.122.216-.137a.25.25 0 0 0 .137-.352l-1.223-3.151a.147.147 0 0 0-.153-.106zm3.12-.765c.077 0 .091-.046.077-.093l-1.376-3.762c-.017-.06-.031-.137-.077-.137s-.077.077-.093.137l-1.406 3.747c-.017.062 0 .108.06.108z" class="cls-1" transform="translate(-42.87 -6.721)"/>
        <path id="Path_53" d="M69.638 37.178c-.245-.106-.29-.182-.29-.518 0-.842.062-1.76.077-2s.062-.4.184-.4.151.139.151.261a3.231 3.231 0 0 0 .139.779 2.106 2.106 0 0 0 2.187 1.544 1.859 1.859 0 0 0 2.05-1.743c0-.748-.23-1.453-1.5-2.446l-.7-.551c-1.683-1.316-2.264-2.386-2.264-3.626 0-1.681 1.408-2.89 3.534-2.89a7.386 7.386 0 0 1 2.034.259c.137.031.214.077.214.184 0 .2-.06.641-.06 1.835 0 .336-.048.458-.17.458-.106 0-.151-.091-.151-.274a1.855 1.855 0 0 0-.4-1.012A1.94 1.94 0 0 0 73 26.289a1.609 1.609 0 0 0-1.82 1.575c0 .7.35 1.24 1.621 2.2l.427.319c1.851 1.393 2.508 2.448 2.508 3.9A3.083 3.083 0 0 1 74.3 36.95a4.42 4.42 0 0 1-2.432.626 5.285 5.285 0 0 1-2.23-.398z" class="cls-1" transform="translate(-35.643 -6.721)"/>
        <path id="Path_54" d="M77.918 26.656l-2.278.062c-.887.029-1.254.106-1.484.444a1.738 1.738 0 0 0-.259.535c-.031.122-.077.182-.17.182s-.137-.077-.137-.245c0-.245.29-1.636.321-1.758.046-.2.091-.29.182-.29a3.674 3.674 0 0 0 .659.182c.444.046 1.024.077 1.53.077h6.055a7.263 7.263 0 0 0 1.057-.077 3.665 3.665 0 0 1 .413-.077c.106 0 .122.091.122.321 0 .321-.046 1.376-.046 1.774-.017.153-.046.245-.139.245-.122 0-.151-.077-.168-.3l-.014-.17c-.031-.4-.444-.825-1.805-.856l-1.928-.046v6.271c0 1.407 0 2.616.077 3.273.046.429.139.765.6.827a6.782 6.782 0 0 0 .779.06c.168 0 .245.046.245.122 0 .108-.122.153-.29.153-1.009 0-1.973-.046-2.4-.046-.352 0-1.316.046-1.928.046-.2 0-.3-.046-.3-.153 0-.077.06-.122.245-.122a2.6 2.6 0 0 0 .549-.06c.307-.062.4-.4.444-.842.077-.643.077-1.851.077-3.259z" class="cls-1" transform="translate(-31.091 -6.721)"/>
        <path id="Path_55" d="M81.14 30.125c0-2.326 0-2.755-.031-3.244-.031-.518-.182-.779-.52-.856a2.178 2.178 0 0 0-.549-.06c-.153 0-.245-.031-.245-.153 0-.091.122-.122.367-.122.58 0 1.544.046 1.988.046.381 0 1.285-.046 1.866-.046.2 0 .321.031.321.122 0 .122-.091.153-.245.153a2.554 2.554 0 0 0-.46.046c-.413.077-.535.336-.564.871-.031.489-.031.918-.031 3.244v2.691c0 1.484 0 2.693.06 3.35.046.413.153.688.612.75a6.82 6.82 0 0 0 .781.06c.168 0 .245.046.245.122 0 .108-.122.153-.29.153-1.01 0-1.973-.046-2.386-.046-.352 0-1.316.046-1.928.046-.2 0-.307-.046-.307-.153 0-.077.062-.122.245-.122a2.6 2.6 0 0 0 .551-.06c.307-.062.4-.321.444-.765.077-.643.077-1.851.077-3.335z" class="cls-1" transform="translate(-24.434 -6.61)"/>
        <path id="Path_56" d="M85.3 35.909a6.059 6.059 0 0 1-.106-8.7 6.67 6.67 0 0 1 4.832-1.621 15.2 15.2 0 0 1 2.218.151c.582.077 1.072.216 1.53.261.168.015.23.091.23.182 0 .122-.046.307-.077.842-.031.506-.017 1.345-.046 1.652-.017.23-.046.352-.184.352-.122 0-.153-.122-.153-.338a2.182 2.182 0 0 0-.595-1.405 4.556 4.556 0 0 0-3.105-.949 3.978 3.978 0 0 0-2.875.949 5.107 5.107 0 0 0-1.408 3.961 5.139 5.139 0 0 0 4.817 5.443c1.362 0 2.187-.153 2.8-.856a2.519 2.519 0 0 0 .52-1.009c.046-.245.077-.3.2-.3s.139.106.139.228a14.5 14.5 0 0 1-.338 2.036.541.541 0 0 1-.4.444 8.866 8.866 0 0 1-2.753.35 7.647 7.647 0 0 1-5.246-1.673z" class="cls-1" transform="translate(-20.556 -6.721)"/>
        <path id="Path_57" d="M94.44 35.909a6.057 6.057 0 0 1-.108-8.7 6.672 6.672 0 0 1 4.834-1.621 15.247 15.247 0 0 1 2.218.151c.58.077 1.07.216 1.528.261.17.015.23.091.23.182 0 .122-.046.307-.077.842-.031.506-.015 1.345-.046 1.652-.015.23-.046.352-.184.352-.122 0-.151-.122-.151-.338a2.2 2.2 0 0 0-.6-1.405 4.556 4.556 0 0 0-3.105-.949 3.982 3.982 0 0 0-2.875.949 5.107 5.107 0 0 0-1.404 3.96 5.14 5.14 0 0 0 4.817 5.443c1.362 0 2.189-.153 2.8-.856a2.54 2.54 0 0 0 .518-1.009c.048-.245.077-.3.2-.3s.139.106.139.228a14.5 14.5 0 0 1-.338 2.036.539.539 0 0 1-.4.444 8.872 8.872 0 0 1-2.755.35 7.641 7.641 0 0 1-5.241-1.672z" class="cls-1" transform="translate(-10.757 -6.721)"/>
        <path id="Path_58" d="M102.421 32.816c0 1.959 0 3.014.321 3.29.261.228.659.336 1.851.336.811 0 1.408-.017 1.789-.429a1.892 1.892 0 0 0 .4-.916c.017-.139.046-.23.168-.23s.122.077.122.259a12.023 12.023 0 0 1-.228 1.76c-.091.336-.168.413-.964.413-1.1 0-1.9-.031-2.585-.046-.688-.031-1.24-.046-1.866-.046-.168 0-.506 0-.873.015s-.748.031-1.055.031c-.2 0-.3-.046-.3-.153 0-.077.06-.122.245-.122a2.6 2.6 0 0 0 .549-.06c.307-.062.383-.4.444-.842.077-.643.077-1.851.077-3.259v-2.692c0-2.326 0-2.755-.031-3.244-.029-.518-.151-.765-.657-.871a2.244 2.244 0 0 0-.5-.046c-.17 0-.261-.031-.261-.139s.108-.137.336-.137c.719 0 1.683.046 2.1.046.367 0 1.484-.046 2.081-.046.214 0 .321.031.321.137s-.093.139-.276.139a4.021 4.021 0 0 0-.6.046c-.413.077-.535.336-.566.871-.031.489-.031.918-.031 3.244z" class="cls-1" transform="translate(-3.768 -6.61)"/>
        <path id="Path_59" d="M105.426 30.125c0-2.326 0-2.755-.029-3.244-.031-.518-.185-.779-.52-.856a2.184 2.184 0 0 0-.551-.06c-.153 0-.245-.031-.245-.153 0-.091.122-.122.367-.122.582 0 1.544.046 1.988.046.383 0 1.285-.046 1.868-.046.2 0 .321.031.321.122 0 .122-.093.153-.245.153a2.554 2.554 0 0 0-.46.046c-.413.077-.535.336-.566.871-.031.489-.031.918-.031 3.244v2.691c0 1.484 0 2.693.062 3.35.046.413.153.688.612.75a6.783 6.783 0 0 0 .779.06c.168 0 .245.046.245.122 0 .108-.122.153-.29.153-1.009 0-1.973-.046-2.386-.046-.352 0-1.314.046-1.926.046-.2 0-.307-.046-.307-.153 0-.077.06-.122.245-.122a2.618 2.618 0 0 0 .551-.06c.3-.062.4-.321.444-.765.075-.643.075-1.851.075-3.335z" class="cls-1" transform="translate(1.622 -6.61)"/>
        <path id="Path_60" d="M110.356 35.281c.031 1.194.23 1.592.537 1.7a2.38 2.38 0 0 0 .794.108c.168 0 .261.031.261.122 0 .122-.139.153-.352.153-.995 0-1.606-.046-1.9-.046-.137 0-.856.046-1.652.046-.2 0-.336-.015-.336-.153 0-.091.091-.122.245-.122a2.665 2.665 0 0 0 .688-.077c.4-.122.458-.566.475-1.9l.137-9.009c0-.3.046-.518.2-.518s.307.2.566.473c.184.2 2.508 2.647 4.741 4.865 1.041 1.039 3.105 3.242 3.366 3.487h.077l-.153-6.868c-.017-.933-.153-1.223-.52-1.376a2.513 2.513 0 0 0-.811-.091c-.184 0-.245-.046-.245-.139 0-.122.168-.137.4-.137.794 0 1.528.046 1.849.046.17 0 .75-.046 1.5-.046.2 0 .352.015.352.137 0 .093-.091.139-.276.139a1.68 1.68 0 0 0-.458.046c-.429.122-.551.444-.566 1.3l-.168 9.651c0 .336-.062.475-.2.475-.168 0-.352-.17-.52-.338-.964-.918-2.921-2.921-4.513-4.5-1.667-1.652-3.364-3.518-3.64-3.808h-.046z" class="cls-1" transform="translate(5.517 -6.721)"/>
        <path id="Path_61" d="M116.767 30.125c0-2.326 0-2.755-.031-3.244-.031-.518-.184-.779-.52-.856a2.184 2.184 0 0 0-.551-.06c-.151 0-.245-.031-.245-.153 0-.091.122-.122.367-.122.582 0 1.546.046 1.99.046.381 0 1.283-.046 1.866-.046.2 0 .321.031.321.122 0 .122-.093.153-.245.153a2.554 2.554 0 0 0-.46.046c-.413.077-.535.336-.566.871-.029.489-.029.918-.029 3.244v2.691c0 1.484 0 2.693.06 3.35.046.413.153.688.612.75a6.82 6.82 0 0 0 .781.06c.168 0 .245.046.245.122 0 .108-.122.153-.292.153-1.01 0-1.971-.046-2.386-.046-.35 0-1.314.046-1.926.046-.2 0-.307-.046-.307-.153 0-.077.062-.122.245-.122a2.618 2.618 0 0 0 .551-.06c.3-.062.4-.321.444-.765.077-.643.077-1.851.077-3.335z" class="cls-1" transform="translate(13.788 -6.61)"/>
        <path id="Path_62" d="M120.932 35.909a6.055 6.055 0 0 1-.106-8.7 6.67 6.67 0 0 1 4.832-1.621 15.2 15.2 0 0 1 2.218.151c.582.077 1.072.216 1.53.261.168.015.23.091.23.182 0 .122-.048.307-.077.842-.031.506-.017 1.345-.046 1.652-.017.23-.048.352-.185.352s-.153-.122-.153-.338a2.174 2.174 0 0 0-.6-1.405 4.55 4.55 0 0 0-3.1-.949 3.978 3.978 0 0 0-2.875.949 5.107 5.107 0 0 0-1.408 3.961 5.139 5.139 0 0 0 4.817 5.443c1.362 0 2.187-.153 2.8-.856a2.519 2.519 0 0 0 .52-1.009c.046-.245.077-.3.2-.3s.137.106.137.228a14.447 14.447 0 0 1-.336 2.036.541.541 0 0 1-.4.444 8.866 8.866 0 0 1-2.753.35 7.647 7.647 0 0 1-5.245-1.673z" class="cls-1" transform="translate(17.666 -6.721)"/>
    </g>
</svg>
