<svg xmlns="http://www.w3.org/2000/svg" width="40" height="40" viewBox="0 0 40 40">
    <defs>
        <style>
            .cls-2{fill:#fff}
        </style>
    </defs>
    <g id="Group_18" transform="translate(-1708 -1043)">
        <rect id="Rectangle_11" width="40" height="40" fill="none" rx="5" transform="translate(1708 1043)"/>
        <g id="Group_15" transform="translate(1716 1053.667)">
            <path id="Path_72" d="M608.095 424.917a.9.9 0 0 1 .394 1.137c-.132.377-.217.77-.317 1.158-.036.141-.056.291.084.394s.254.022.37-.045c.49-.28.99-.544 1.465-.848a1.515 1.515 0 0 1 1.318-.193 8.54 8.54 0 0 0 2.045.3h.453c.352-.007.381-.042.305-.376a5.677 5.677 0 0 1-.166-1.249 5.888 5.888 0 0 1 2.337-4.714 8.3 8.3 0 0 1 5.387-1.869c.488 0 .522-.045.381-.52a6.882 6.882 0 0 0-2.825-3.766 9.476 9.476 0 0 0-6.989-1.508 8.259 8.259 0 0 0-5.5 3.024 5.92 5.92 0 0 0-.826 6.524 6.471 6.471 0 0 0 2.084 2.551zm8.654-8.593a1.162 1.162 0 0 1 1.149 1.16 1.158 1.158 0 1 1-1.149-1.16zm-5.694.012a1.118 1.118 0 0 1 1.153 1.143 1.13 1.13 0 0 1-1.137 1.162 1.152 1.152 0 1 1-.016-2.3z" class="cls-2" transform="translate(-605.388 -412.697)"/>
            <path id="Path_73" d="M651.684 445.189a5.138 5.138 0 0 0-1.983 4.986 5.64 5.64 0 0 0 3.116 4.085 8.1 8.1 0 0 0 6 .7 1.226 1.226 0 0 1 1 .139c.41.253.835.482 1.254.72.1.056.205.116.316.04.129-.088.087-.219.058-.337-.091-.368-.185-.736-.28-1.1a.588.588 0 0 1 .236-.676 6.933 6.933 0 0 0 .893-.8 5.184 5.184 0 0 0-.321-7.529 8.094 8.094 0 0 0-10.287-.221zm2.631 3.236a.968.968 0 0 1-.948-.969.964.964 0 1 1 1.929 0 .972.972 0 0 1-.981.969zm4.734-1.947a.941.941 0 0 1 .988.955.965.965 0 1 1-1.929.011.932.932 0 0 1 .941-.966z" class="cls-2" transform="translate(-640.226 -436.92)"/>
        </g>
    </g>
</svg>
